<svg width="1280" height="326" viewBox="0 0 1280 326" fill="none" xmlns="http://www.w3.org/2000/svg">
<path d="M906.366 0L891.561 0.0104147L882.255 20.4411L872.934 0.0104147L858.129 0L874.7 37.0153L811.124 176.477H833.652L882.255 67.8339L930.752 176.267H953.264L889.795 37.0153L906.366 0Z" fill="white"/>
<path d="M477.651 103.356C477.651 133.307 501.441 157.583 530.695 157.583C545.262 157.556 559.158 151.454 569.039 140.747L583.665 156.015C562.264 177.829 529.799 184.527 501.515 172.964C473.232 161.402 454.751 133.876 454.751 103.314C454.751 72.7515 473.232 45.2254 501.515 33.6633C529.799 22.1007 562.264 28.7989 583.665 50.6121L569.039 65.9113C559.148 55.2247 545.254 49.1429 530.695 49.128C501.399 49.128 477.651 73.4043 477.651 103.356Z" fill="white"/>
<path d="M1013.37 52.0017H993.62V30.129H1104.88V52.0017H1035.09V98.0986H1094.65V117.537H1035.09V176.477H1013.37V52.0017Z" fill="white"/>
<path fill-rule="evenodd" clip-rule="evenodd" d="M119.876 102.07C129.697 96.4267 141.608 84.9311 141.608 68.8374C141.608 46.8914 123.428 30.1706 98.1445 30.1706H26.556V51.0819H47.3681V155.587H26.556V176.487H100.443C126.772 176.487 145.995 159.558 145.995 136.149C145.995 116.919 130.95 106.668 119.876 102.07ZM68.6816 49.8176H96.8907C110.264 49.8176 118.413 58.5961 118.413 71.3455C118.413 83.8859 110.264 93.7096 96.8907 93.7096H68.6816V49.8176ZM100.234 157.248H68.4727V112.52H97.0997C110.682 112.52 122.802 121.717 122.802 134.466C122.802 147.424 112.98 157.248 100.234 157.248Z" fill="white"/>
<path d="M219.099 30.1706H240.872V176.477H219.099V30.1706Z" fill="white"/>
<path d="M343.24 51.9492H305.21V30.1706H403.211V51.9492H364.971V176.477H343.24V97.043H317.841V75.2748H343.24V51.9492Z" fill="white"/>
<path fill-rule="evenodd" clip-rule="evenodd" d="M713.302 30.1807C738.376 30.1807 758.854 50.0367 758.854 74.898C758.854 94.1269 746.119 110.012 727.96 117.369L759.795 176.487H734.313L705.57 119.219H674.227V176.487H652.496V51.0815H631.684V30.1807H713.302ZM674.436 50.444V101.244L711.63 101.233C725.213 101.233 737.123 89.7379 737.123 75.3161C737.123 61.7305 725.213 50.444 711.63 50.444H674.436Z" fill="white"/>
<path d="M1155.45 51.9492V30.1706H1253.44V51.9492H1215.21V176.477H1193.49V97.043H1168.09V75.2748H1193.49V51.9492H1155.45Z" fill="white"/>
<path d="M510.168 104.503L530.639 84.0261L551.111 104.503L530.639 124.979L510.168 104.503Z" fill="white"/>
<path d="M854.047 176.268H910.502L882.255 112.499L854.047 176.268Z" fill="white"/>
<path fill-rule="evenodd" clip-rule="evenodd" d="M154.025 241.922L196.059 283.961L154.025 326L136.763 308.737L123.258 322.244L115.746 314.732L129.252 301.225L117.302 289.273H0V278.649H117.302L129.252 266.698L115.746 253.19L123.258 245.678L136.763 259.186L154.025 241.922ZM136.763 274.21L127.013 283.961L136.763 293.712L146.514 283.961L136.763 274.21ZM144.275 301.225L161.536 283.961L144.275 266.698L154.025 256.946L181.037 283.961L154.025 310.976L144.275 301.225Z" fill="white"/>
<path d="M310.275 275.736L302.347 283.668L310.275 291.597L318.204 283.668L310.275 275.736Z" fill="white"/>
<path fill-rule="evenodd" clip-rule="evenodd" d="M310.569 249.567C291.579 249.567 276.184 264.966 276.184 283.961C276.184 302.956 291.579 318.355 310.569 318.355C329.56 318.355 344.955 302.956 344.955 283.961C344.955 264.966 329.56 249.567 310.569 249.567ZM288.144 283.961C288.144 271.572 298.184 261.53 310.569 261.53C322.955 261.53 332.995 271.572 332.995 283.961C332.995 296.35 322.955 306.392 310.569 306.392C298.184 306.392 288.144 296.35 288.144 283.961Z" fill="white"/>
<path d="M436.806 249.567H432.591V318.355H445.283V275.302L484.959 318.355H489.048V249.567H476.357V293.162L436.806 249.567Z" fill="white"/>
<path d="M576.684 250.05H589.403V306.349H603.132V297.944H615.823V317.872L576.684 317.872V250.05Z" fill="white"/>
<path d="M703.46 249.567H716.151V318.355H703.46V249.567Z" fill="white"/>
<path d="M808.001 249.567H803.787V318.355H816.478V275.302L856.155 318.355H860.244V249.567H847.553V293.162L808.001 249.567Z" fill="white"/>
<path d="M947.881 261.163H959.77V318.357H1003.82V306.763H972.907V288.985H999.18V277.391H972.907V261.16H1003.82V249.566H947.881V261.163Z" fill="white"/>
<path fill-rule="evenodd" clip-rule="evenodd" d="M1083.94 283.961L1125.98 241.922L1143.24 259.186L1156.74 245.678L1164.25 253.19L1150.75 266.698L1162.7 278.649H1280V289.273H1162.7L1150.75 301.225L1164.25 314.732L1156.74 322.244L1143.24 308.737L1125.98 326L1083.94 283.961ZM1152.99 283.961L1143.24 274.21L1133.49 283.961L1143.24 293.712L1152.99 283.961ZM1118.46 283.961L1135.73 301.225L1125.98 310.976L1098.96 283.961L1125.98 256.946L1135.73 266.698L1118.46 283.961Z" fill="white"/>
</svg>
