<svg width="674" height="120" viewBox="0 0 674 120" fill="none" xmlns="http://www.w3.org/2000/svg">
<path d="M673.998 60L613.998 120H60.002L0.00195312 60L60.002 0H613.998L673.998 60ZM63.3154 8L62.1445 9.17188L14.1445 57.1719L11.3154 60L14.1445 62.8281L62.1445 110.828L63.3154 112H610.685L611.855 110.828L659.855 62.8281L662.685 60L659.855 57.1719L611.855 9.17188L610.685 8H63.3154Z" fill="white"/>
<path d="M642.157 45.1865L629.344 58H609V62H629.344L642.157 74.8135L608.971 108H64.9707L31.8135 74.8428L44.6562 62H65V58H44.6562L31.8281 45.1719L31.8135 45.1562L64.9707 12H608.971L642.157 45.1865ZM41 60L29 72L17 60L29 48L41 60ZM656.971 60L644.985 71.9854L633 60L644.985 48.0146L656.971 60Z" fill="white"/>
<path d="M126.497 49.448C128.438 49.448 130.081 49.7787 131.425 50.44C132.769 51.08 133.793 51.9973 134.497 53.192C135.201 54.3653 135.553 55.7627 135.553 57.384C135.553 58.344 135.403 59.3147 135.105 60.296C134.827 61.256 134.369 62.1307 133.729 62.92C133.11 63.7093 132.267 64.3493 131.201 64.84C130.155 65.3093 128.865 65.544 127.329 65.544H124.001V73H119.361V49.448H126.497ZM127.297 61.032C128.001 61.032 128.587 60.9147 129.057 60.68C129.526 60.424 129.889 60.1147 130.145 59.752C130.422 59.368 130.614 58.9733 130.721 58.568C130.849 58.1627 130.913 57.8107 130.913 57.512C130.913 57.2773 130.87 56.968 130.785 56.584C130.721 56.1787 130.571 55.7733 130.337 55.368C130.102 54.9627 129.739 54.6213 129.249 54.344C128.779 54.0667 128.139 53.928 127.329 53.928H124.001V61.032H127.297ZM144.504 49.448H149.144V68.52H160.216V73H144.504V49.448ZM167.148 73L177.772 48.52H178.028L188.652 73H183.276L176.492 55.784L179.852 53.48L171.724 73H167.148ZM174.412 64.488H181.484L183.116 68.392H172.972L174.412 64.488ZM199.81 65.672L191.138 49.448H196.866L202.946 61.672L201.57 61.768L207.554 49.448H213.282L204.45 65.672V73H199.81V65.672ZM257.886 73.96L240.03 57.832L241.406 58.6L241.502 73H236.798V48.52H236.99L254.462 64.584L253.438 64.136L253.342 49.448H258.014V73.96H257.886ZM267.439 61.256C267.439 59.6347 267.749 58.0987 268.367 56.648C268.986 55.1973 269.839 53.9173 270.927 52.808C272.037 51.6773 273.317 50.792 274.767 50.152C276.218 49.512 277.775 49.192 279.439 49.192C281.082 49.192 282.629 49.512 284.079 50.152C285.53 50.792 286.81 51.6773 287.919 52.808C289.05 53.9173 289.925 55.1973 290.543 56.648C291.183 58.0987 291.503 59.6347 291.503 61.256C291.503 62.92 291.183 64.4773 290.543 65.928C289.925 67.3787 289.05 68.6587 287.919 69.768C286.81 70.856 285.53 71.7093 284.079 72.328C282.629 72.9467 281.082 73.256 279.439 73.256C277.775 73.256 276.218 72.9467 274.767 72.328C273.317 71.7093 272.037 70.856 270.927 69.768C269.839 68.6587 268.986 67.3787 268.367 65.928C267.749 64.4773 267.439 62.92 267.439 61.256ZM272.239 61.256C272.239 62.3013 272.421 63.2827 272.783 64.2C273.167 65.096 273.69 65.896 274.351 66.6C275.034 67.2827 275.813 67.816 276.687 68.2C277.583 68.584 278.554 68.776 279.599 68.776C280.602 68.776 281.53 68.584 282.383 68.2C283.258 67.816 284.015 67.2827 284.655 66.6C285.295 65.896 285.797 65.096 286.159 64.2C286.522 63.2827 286.703 62.3013 286.703 61.256C286.703 60.1893 286.511 59.1973 286.127 58.28C285.765 57.3627 285.253 56.5627 284.591 55.88C283.951 55.176 283.194 54.632 282.319 54.248C281.445 53.864 280.495 53.672 279.471 53.672C278.447 53.672 277.498 53.864 276.623 54.248C275.749 54.632 274.981 55.176 274.319 55.88C273.658 56.5627 273.146 57.3627 272.783 58.28C272.421 59.1973 272.239 60.1893 272.239 61.256ZM297.007 49.608H302.447L307.471 64.392L306.735 64.072L311.119 53.16L313.263 59.528L306.479 74.088L297.007 49.608ZM308.815 49.608H313.423L319.215 63.912L318.383 63.784L322.703 49.608H327.695L318.607 74.024L308.815 49.608ZM350.339 61.256C350.339 59.6347 350.649 58.0987 351.267 56.648C351.886 55.1973 352.739 53.9173 353.827 52.808C354.937 51.6773 356.217 50.792 357.667 50.152C359.118 49.512 360.675 49.192 362.339 49.192C363.982 49.192 365.529 49.512 366.979 50.152C368.43 50.792 369.71 51.6773 370.819 52.808C371.95 53.9173 372.825 55.1973 373.443 56.648C374.083 58.0987 374.403 59.6347 374.403 61.256C374.403 62.92 374.083 64.4773 373.443 65.928C372.825 67.3787 371.95 68.6587 370.819 69.768C369.71 70.856 368.43 71.7093 366.979 72.328C365.529 72.9467 363.982 73.256 362.339 73.256C360.675 73.256 359.118 72.9467 357.667 72.328C356.217 71.7093 354.937 70.856 353.827 69.768C352.739 68.6587 351.886 67.3787 351.267 65.928C350.649 64.4773 350.339 62.92 350.339 61.256ZM355.139 61.256C355.139 62.3013 355.321 63.2827 355.683 64.2C356.067 65.096 356.59 65.896 357.251 66.6C357.934 67.2827 358.713 67.816 359.587 68.2C360.483 68.584 361.454 68.776 362.499 68.776C363.502 68.776 364.43 68.584 365.283 68.2C366.158 67.816 366.915 67.2827 367.555 66.6C368.195 65.896 368.697 65.096 369.059 64.2C369.422 63.2827 369.603 62.3013 369.603 61.256C369.603 60.1893 369.411 59.1973 369.027 58.28C368.665 57.3627 368.153 56.5627 367.491 55.88C366.851 55.176 366.094 54.632 365.219 54.248C364.345 53.864 363.395 53.672 362.371 53.672C361.347 53.672 360.398 53.864 359.523 54.248C358.649 54.632 357.881 55.176 357.219 55.88C356.558 56.5627 356.046 57.3627 355.683 58.28C355.321 59.1973 355.139 60.1893 355.139 61.256ZM404.917 73.96L387.061 57.832L388.437 58.6L388.533 73H383.829V48.52H384.021L401.493 64.584L400.469 64.136L400.373 49.448H405.045V73.96H404.917ZM443.693 55.144C442.797 54.6533 441.88 54.248 440.941 53.928C440.024 53.608 439.16 53.448 438.349 53.448C437.346 53.448 436.557 53.6507 435.981 54.056C435.405 54.4613 435.117 55.0693 435.117 55.88C435.117 56.4347 435.33 56.936 435.757 57.384C436.205 57.8107 436.77 58.1947 437.453 58.536C438.157 58.8773 438.882 59.1867 439.629 59.464C440.312 59.72 440.984 60.0293 441.645 60.392C442.328 60.7333 442.936 61.1707 443.469 61.704C444.002 62.216 444.429 62.8667 444.749 63.656C445.069 64.424 445.229 65.3733 445.229 66.504C445.229 67.6987 444.92 68.808 444.301 69.832C443.682 70.856 442.776 71.688 441.581 72.328C440.386 72.9467 438.914 73.256 437.165 73.256C436.269 73.256 435.352 73.1707 434.413 73C433.496 72.808 432.589 72.5307 431.693 72.168C430.797 71.784 429.933 71.304 429.101 70.728L431.149 67.112C431.704 67.5173 432.301 67.88 432.941 68.2C433.602 68.4987 434.264 68.7333 434.925 68.904C435.586 69.0747 436.194 69.16 436.749 69.16C437.304 69.16 437.858 69.0853 438.413 68.936C438.989 68.7653 439.458 68.488 439.821 68.104C440.205 67.72 440.397 67.1867 440.397 66.504C440.397 66.0347 440.237 65.608 439.917 65.224C439.618 64.84 439.202 64.488 438.669 64.168C438.157 63.848 437.592 63.5707 436.973 63.336C436.248 63.0587 435.501 62.7387 434.733 62.376C433.965 62.0133 433.24 61.576 432.557 61.064C431.896 60.5307 431.352 59.88 430.925 59.112C430.52 58.3227 430.317 57.3627 430.317 56.232C430.317 54.8667 430.616 53.6827 431.213 52.68C431.832 51.6773 432.696 50.888 433.805 50.312C434.914 49.7147 436.194 49.384 437.645 49.32C439.544 49.32 441.08 49.544 442.253 49.992C443.448 50.44 444.514 50.9733 445.453 51.592L443.693 55.144ZM452.973 49.448H468.845V53.928H463.117V73H458.477V53.928H452.973V49.448ZM478.123 49.448H494.187V53.928H482.763V58.952H492.875V63.432H482.763V68.52H494.635V73H478.123V49.448ZM501.58 73L512.204 48.52H512.46L523.084 73H517.708L510.924 55.784L514.284 53.48L506.156 73H501.58ZM508.844 64.488H515.916L517.548 68.392H507.404L508.844 64.488ZM531.317 73V48.488H531.349L544.437 67.048L542.453 66.6L555.509 48.488H555.573V73H550.933V58.952L551.221 61.352L543.253 72.68H543.189L534.997 61.352L535.797 59.144V73H531.317Z" fill="#1D1B22"/>
</svg>
