{"asset":{"generator":"UnityGLTF","version":"2.0"},"extensionsUsed":["KHR_texture_transform"],"scene":0,"scenes":[{"nodes":[0],"name":"roof-flat-square"}],"accessors":[{"bufferView":0,"componentType":5126,"count":136,"type":"VEC3","max":[1.1972576379776,0.4000000059604645,1.1972576379776],"min":[-1.1972576379776,0,-1.1972576379776]},{"bufferView":1,"componentType":5126,"count":136,"type":"VEC3","max":[1,1,1],"min":[-1,-1,-1]},{"bufferView":2,"componentType":5126,"count":136,"type":"VEC4","max":[1,0.4082483649253845,1,1],"min":[-1,-0.4082483947277069,-1,1]},{"bufferView":3,"componentType":5126,"count":136,"type":"VEC2","max":[0.59375,0.9750000238418579],"min":[0.46875,0.7749999761581421]},{"bufferView":4,"componentType":5121,"count":252,"type":"SCALAR","max":[135],"min":[0]}],"buffers":[{"byteLength":6780,"uri":"roof-flat-square.bin"}],"bufferViews":[{"buffer":0,"byteLength":1632,"byteStride":12,"target":34962},{"buffer":0,"byteOffset":1632,"byteLength":1632,"byteStride":12,"target":34962},{"buffer":0,"byteOffset":3264,"byteLength":2176,"target":34962},{"buffer":0,"byteOffset":5440,"byteLength":1088,"target":34962},{"buffer":0,"byteOffset":6528,"byteLength":252,"target":34963}],"images":[{"uri":"Textures/colormap.png","name":"colormap"}],"materials":[{"pbrMetallicRoughness":{"baseColorTexture":{"index":0,"extensions":{"KHR_texture_transform":{"texCoord":0}}},"metallicFactor":0},"doubleSided":true,"name":"colormap"}],"meshes":[{"primitives":[{"attributes":{"POSITION":0,"NORMAL":1,"TANGENT":2,"TEXCOORD_0":3},"indices":4,"material":0}],"name":"roof-flat-square"}],"nodes":[{"mesh":0,"name":"roof-flat-square"}],"samplers":[{"magFilter":9728,"minFilter":9984}],"textures":[{"sampler":0,"source":0,"name":"colormap"}]}