{"asset":{"generator":"UnityGLTF","version":"2.0"},"extensionsUsed":["KHR_texture_transform"],"scene":0,"scenes":[{"nodes":[0],"name":"wall-doorway-square"}],"accessors":[{"bufferView":0,"componentType":5126,"count":88,"type":"VEC3","max":[0.10000009834766388,2.4000000953674316,1.0000001192092896],"min":[-0.10000006854534149,-7.21911442571558e-15,-1.0000001192092896]},{"bufferView":1,"componentType":5126,"count":88,"type":"VEC3","max":[1.0000001192092896,1,1.0000001192092896],"min":[-1.0000001192092896,-1,-1.0000001192092896]},{"bufferView":2,"componentType":5126,"count":88,"type":"VEC4","max":[1.0000001192092896,0,1.0000001192092896,1],"min":[-1.0000001192092896,0,-1.0000001192092896,1]},{"bufferView":3,"componentType":5126,"count":88,"type":"VEC2","max":[0.71875,0.925000011920929],"min":[0.34375,0.824999988079071]},{"bufferView":4,"componentType":5121,"count":192,"type":"SCALAR","max":[87],"min":[0]}],"buffers":[{"byteLength":4416,"uri":"wall-doorway-square.bin"}],"bufferViews":[{"buffer":0,"byteLength":1056,"byteStride":12,"target":34962},{"buffer":0,"byteOffset":1056,"byteLength":1056,"byteStride":12,"target":34962},{"buffer":0,"byteOffset":2112,"byteLength":1408,"target":34962},{"buffer":0,"byteOffset":3520,"byteLength":704,"target":34962},{"buffer":0,"byteOffset":4224,"byteLength":192,"target":34963}],"images":[{"uri":"Textures/colormap.png","name":"colormap"}],"materials":[{"pbrMetallicRoughness":{"baseColorTexture":{"index":0,"extensions":{"KHR_texture_transform":{"texCoord":0}}},"metallicFactor":0},"doubleSided":true,"name":"colormap"}],"meshes":[{"primitives":[{"attributes":{"POSITION":0,"NORMAL":1,"TANGENT":2,"TEXCOORD_0":3},"indices":4,"material":0}],"name":"wall-doorway-square"}],"nodes":[{"mesh":0,"name":"wall-doorway-square"}],"samplers":[{"magFilter":9728,"minFilter":9984}],"textures":[{"sampler":0,"source":0,"name":"colormap"}]}