<svg width="48" height="48" viewBox="0 0 48 48" fill="none" xmlns="http://www.w3.org/2000/svg">
<path fill-rule="evenodd" clip-rule="evenodd" d="M28.1141 11.929C25.3933 11.5139 22.6065 11.5139 19.8856 11.929C19.6396 11.3386 19.277 10.618 18.9586 10.055C18.9026 9.95822 18.7535 10.015 18.6636 10.0324C17.2746 10.3161 11.824 11.7221 11.4672 12.3125C7.52912 18.1959 6.00375 23.9556 6.00002 29.6463C5.99889 30.6245 6.04453 31.6019 6.12843 32.5771C6.15181 32.8348 6.1027 32.817 6.30334 32.9628C9.34349 35.1774 12.2905 36.5291 15.1838 37.428C15.2303 37.4423 15.2805 37.4258 15.3096 37.3863C16.0024 36.4415 16.6193 35.4446 17.1488 34.3961C17.1802 34.3345 17.15 34.262 17.0869 34.2373C16.1073 33.8655 15.1755 33.4131 14.2787 32.8986C14.2076 32.8578 14.2019 32.7567 14.267 32.7077C14.4562 32.5667 14.645 32.4196 14.8245 32.27C14.8573 32.2431 14.9027 32.2374 14.9413 32.2552C20.8036 34.9327 27.1966 34.9327 33.0587 32.2552C33.0973 32.2374 33.1424 32.2431 33.1754 32.27C33.355 32.4196 33.5437 32.5667 33.7329 32.7077C33.7979 32.7567 33.7923 32.8578 33.7211 32.8986C32.8245 33.4131 31.8926 33.8655 30.9131 34.2373C30.8502 34.262 30.8198 34.3345 30.851 34.3961C31.3807 35.4446 31.9976 36.4415 32.6904 37.3863C32.7195 37.4258 32.7698 37.4423 32.8162 37.428C35.7093 36.5291 38.6566 35.1774 41.6968 32.9628C41.8972 32.817 41.8482 32.8348 41.8716 32.5771C41.9553 31.6019 42.0009 30.6245 42 29.6463C41.9961 23.9556 40.4708 18.1959 36.5327 12.3125C36.1761 11.7221 30.7252 10.3161 29.3362 10.0324C29.2464 10.015 29.0972 9.95822 29.0412 10.055C28.7228 10.618 28.3601 11.3386 28.1141 11.929ZM29.9717 28.711C31.7456 28.711 33.2066 27.0833 33.2066 25.083C33.2066 23.0832 31.7738 21.4551 29.9717 21.4551C28.1549 21.4551 26.7077 23.0983 26.7372 25.083C26.7372 27.0833 28.1701 28.711 29.9717 28.711ZM18.0281 28.711C16.2543 28.711 14.7931 27.0833 14.7931 25.083C14.7931 23.0832 16.2263 21.4551 18.0281 21.4551C19.8448 21.4551 21.292 23.0983 21.263 25.083C21.263 27.0833 19.8297 28.711 18.0281 28.711Z" fill="white"/>
</svg>
