<svg xmlns="http://www.w3.org/2000/svg" viewBox="0 0 836 836" shape-rendering="geometricPrecision">
<rect width="836" height="836" fill="none"/>
<path d="M 4 119 L 7 135 L 45 146 L 78 168 L 131 234 L 167 325 L 196 489 L 214 543 L 258 608 L 327 658 L 406 680 L 486 674 L 558 641 L 616 579 L 726 556 L 830 522 L 830 514 L 653 433 L 641 365 L 609 301 L 560 249 L 483 200 L 381 161 L 253 132 L 112 116 Z" fill="#253371" />
<path d="M 424 660 L 434 660 Z M 446 659 L 450 659 Z M 408 659 L 413 659 Z M 456 658 L 458 658 Z M 400 658 L 403 658 Z M 463 657 L 465 657 Z M 394 657 L 396 657 Z M 468 656 L 470 656 Z M 388 656 L 390 656 Z M 473 655 L 475 655 Z M 383 655 L 385 655 Z M 478 654 L 479 654 Z M 379 654 L 380 654 Z M 482 653 L 483 653 Z M 375 653 L 376 653 Z M 485 652 L 486 652 Z M 371 652 L 372 652 Z M 368 651 L 369 651 Z M 492 650 L 493 650 Z M 495 649 L 496 649 Z M 503 646 L 504 646 Z M 353 646 L 354 646 Z M 508 644 L 509 644 Z M 540 627 L 539 628 Z M 543 625 L 542 626 Z M 546 623 L 545 624 Z M 550 620 L 549 621 Z M 554 617 L 553 618 Z M 302 613 L 317 628 Z M 561 611 L 558 614 Z M 299 609 L 300 610 Z M 297 606 L 298 607 Z M 575 598 L 566 607 Z M 290 591 L 290 592 Z M 583 589 L 580 592 Z M 540 587 L 548 587 Z M 562 586 L 568 586 Z M 523 586 L 527 586 Z M 574 585 L 578 585 Z M 515 585 L 517 585 Z M 583 584 L 585 584 L 586 585 L 585 586 L 586 585 L 586 584 Z M 509 584 L 510 584 Z M 504 583 L 505 583 Z M 499 582 L 500 582 Z M 287 582 L 287 583 Z M 492 580 L 493 580 Z M 489 579 L 490 579 Z M 486 578 L 487 578 Z M 286 578 L 286 579 Z M 285 574 L 285 575 Z M 284 568 L 284 570 Z M 458 563 L 459 564 Z M 626 562 L 627 562 Z M 631 561 L 632 561 Z M 636 560 L 637 560 Z M 454 560 L 455 561 Z M 641 559 L 642 559 Z M 283 559 L 283 563 Z M 646 558 L 647 558 Z M 650 557 L 652 557 Z M 655 556 L 656 556 Z M 660 555 L 661 555 Z M 664 554 L 665 554 Z M 668 553 L 670 553 Z M 673 552 L 674 552 Z M 677 551 L 678 551 Z M 444 551 L 449 556 Z M 681 550 L 682 550 Z M 685 549 L 686 549 Z M 689 548 L 690 548 Z M 694 547 L 695 547 Z M 698 546 L 699 546 Z M 440 546 L 441 547 Z M 702 545 L 703 545 Z M 706 544 L 707 544 Z M 710 543 L 711 543 Z M 714 542 L 715 542 Z M 437 542 L 438 543 Z M 718 541 L 719 541 Z M 725 539 L 726 539 Z M 435 539 L 436 540 Z M 282 539 L 282 550 Z M 729 538 L 730 538 Z M 733 537 L 734 537 Z M 737 536 L 738 536 Z M 740 535 L 741 535 Z M 744 534 L 745 534 Z M 748 533 L 749 533 Z M 751 532 L 752 532 Z M 755 531 L 756 531 Z M 638 531 L 638 532 Z M 758 530 L 759 530 Z M 762 529 L 763 529 Z M 765 528 L 766 528 Z M 639 528 L 639 529 Z M 769 527 L 770 527 Z M 283 527 L 283 530 Z M 772 526 L 773 526 Z M 779 524 L 780 524 Z M 782 523 L 783 523 Z M 789 521 L 790 521 Z M 792 520 L 793 520 Z M 284 520 L 284 522 Z M 795 519 L 796 519 Z M 427 519 L 427 520 Z M 642 518 L 642 519 Z M 802 516 L 802 517 Z M 426 515 L 426 516 Z M 285 515 L 285 516 Z M 286 511 L 286 512 Z M 425 507 L 425 510 Z M 287 507 L 287 508 Z M 645 506 L 645 507 Z M 288 504 L 288 505 Z M 646 502 L 646 503 Z M 647 497 L 647 498 Z M 425 492 L 425 495 Z M 648 491 L 648 493 Z M 749 490 L 750 490 Z M 295 490 L 294 491 Z M 426 486 L 426 487 Z M 649 485 L 649 487 Z M 736 484 L 737 484 Z M 299 484 L 298 485 Z M 427 481 L 427 482 Z M 727 480 L 728 480 Z M 650 477 L 650 480 Z M 718 476 L 719 476 Z M 312 470 L 301 481 Z M 699 468 L 700 468 Z M 651 467 L 651 472 Z M 694 466 L 695 466 Z M 317 466 L 316 467 Z M 321 463 L 320 464 Z M 324 461 L 323 462 Z M 329 458 L 328 459 Z M 664 454 L 665 454 Z M 659 452 L 660 452 Z M 440 451 L 439 452 Z M 652 450 L 652 459 Z M 442 448 L 441 449 Z M 349 448 L 350 448 Z M 354 446 L 355 446 Z M 445 444 L 444 445 Z M 359 444 L 360 444 Z M 362 443 L 363 443 Z M 368 441 L 369 441 Z M 371 440 L 372 440 Z M 374 439 L 375 439 Z M 381 437 L 382 437 Z M 453 435 L 449 439 Z M 388 435 L 389 435 Z M 392 434 L 393 434 Z M 396 433 L 397 433 Z M 401 432 L 402 432 Z M 458 431 L 457 432 Z M 405 431 L 406 431 Z M 410 430 L 411 430 Z M 415 429 L 416 429 Z M 462 428 L 461 429 Z M 420 428 L 421 428 Z M 425 427 L 427 427 Z M 465 426 L 464 427 Z M 431 426 L 432 426 Z M 437 425 L 439 425 Z M 443 424 L 445 424 Z M 470 423 L 469 424 Z M 449 423 L 452 423 Z M 621 422 L 622 422 Z M 456 422 L 459 422 Z M 463 421 L 466 421 Z M 614 420 L 615 420 Z M 470 420 L 473 420 L 474 421 L 473 420 Z M 478 419 L 477 420 L 476 420 L 477 420 Z M 607 418 L 608 418 Z M 603 417 L 604 417 Z M 630 416 L 630 420 Z M 599 416 L 600 416 Z M 595 415 L 596 415 Z M 590 414 L 591 414 Z M 585 413 L 587 413 Z M 580 412 L 582 412 Z M 576 411 L 577 411 Z M 571 410 L 572 410 Z M 567 409 L 568 409 Z M 629 408 L 629 411 Z M 563 408 L 564 408 Z M 559 407 L 560 407 Z M 555 406 L 556 406 Z M 552 405 L 553 405 Z M 548 404 L 549 404 Z M 545 403 L 546 403 Z M 628 402 L 628 404 Z M 538 401 L 539 401 Z M 535 400 L 536 400 Z M 532 399 L 533 399 Z M 529 398 L 530 398 Z M 627 397 L 627 398 Z M 526 397 L 527 397 Z M 523 396 L 524 396 Z M 520 395 L 521 395 Z M 517 394 L 518 394 Z M 626 392 L 626 393 Z M 506 390 L 507 390 Z M 625 388 L 625 389 Z M 501 388 L 502 388 Z M 496 386 L 497 386 Z M 491 384 L 492 384 Z M 624 383 L 624 384 Z M 623 380 L 623 381 Z M 622 376 L 622 377 Z M 621 373 L 621 374 Z M 617 361 L 617 362 Z M 443 360 L 444 361 Z M 613 351 L 613 352 Z M 420 346 L 421 347 Z M 417 344 L 418 345 Z M 414 342 L 415 343 Z M 407 337 L 408 338 Z M 403 334 L 404 335 Z M 603 332 L 604 333 Z M 400 332 L 401 333 Z M 395 328 L 396 329 Z M 390 324 L 392 326 Z M 597 322 L 598 323 Z M 385 320 L 387 322 Z M 595 319 L 596 320 Z M 593 316 L 594 317 Z M 591 313 L 592 314 Z M 377 313 L 381 317 Z M 588 309 L 589 310 Z M 585 305 L 586 306 Z M 581 300 L 583 302 Z M 576 294 L 579 297 Z M 341 278 L 372 309 Z M 556 273 L 571 288 Z M 331 269 L 335 273 Z M 547 265 L 550 268 Z M 323 262 L 326 265 Z M 542 261 L 543 262 Z M 537 257 L 538 258 Z M 315 255 L 318 258 Z M 533 254 L 534 255 Z M 529 251 L 530 252 Z M 309 250 L 311 252 Z M 525 248 L 526 249 Z M 522 246 L 523 247 Z M 303 245 L 305 247 Z M 519 244 L 520 245 Z M 516 242 L 517 243 Z M 513 240 L 514 241 Z M 297 240 L 299 242 Z M 510 238 L 511 239 Z M 292 236 L 294 238 Z M 288 233 L 289 234 Z M 495 229 L 496 230 Z M 283 229 L 284 230 Z M 279 226 L 280 227 Z M 275 223 L 276 224 Z M 271 220 L 272 221 Z M 267 217 L 268 218 Z M 260 212 L 261 213 Z M 257 210 L 258 211 Z M 454 209 L 455 209 Z M 447 206 L 448 206 Z M 249 205 L 250 206 Z M 427 198 L 428 198 Z M 235 197 L 236 198 Z M 419 195 L 420 195 Z M 416 194 L 417 194 Z M 392 186 L 393 186 Z M 389 185 L 390 185 Z M 379 182 L 380 182 Z M 201 181 L 202 181 Z M 372 180 L 373 180 Z M 365 178 L 366 178 Z M 194 178 L 195 178 Z M 361 177 L 362 177 Z M 357 176 L 358 176 Z M 346 173 L 347 173 Z M 341 172 L 343 172 Z M 337 171 L 338 171 Z M 333 170 L 334 170 Z M 329 169 L 330 169 Z M 324 168 L 325 168 Z M 169 168 L 170 168 Z M 320 167 L 321 167 Z M 315 166 L 316 166 Z M 310 165 L 312 165 Z M 306 164 L 307 164 Z M 158 164 L 159 164 Z M 301 163 L 302 163 Z M 155 163 L 156 163 Z M 296 162 L 297 162 Z M 290 161 L 292 161 Z M 285 160 L 287 160 Z M 280 159 L 282 159 Z M 274 158 L 276 158 Z M 269 157 L 271 157 Z M 263 156 L 265 156 Z M 257 155 L 259 155 Z M 251 154 L 253 154 Z M 245 153 L 247 153 Z M 125 153 L 126 153 Z M 239 152 L 241 152 Z M 122 152 L 123 152 Z M 232 151 L 234 151 Z M 225 150 L 228 150 Z M 218 149 L 221 149 Z M 112 149 L 113 149 Z M 211 148 L 214 148 Z M 109 148 L 110 148 Z M 204 147 L 206 147 Z M 105 147 L 106 147 Z M 196 146 L 199 146 Z M 102 146 L 103 146 Z M 188 145 L 191 145 Z M 98 145 L 99 145 Z M 179 144 L 183 144 Z M 95 144 L 96 144 Z M 170 143 L 173 143 Z M 91 143 L 92 143 Z M 160 142 L 164 142 Z M 88 142 L 89 142 Z M 149 141 L 154 141 Z M 84 141 L 85 141 Z M 138 140 L 142 140 Z M 80 140 L 81 140 Z M 124 139 L 130 139 Z M 108 138 L 115 138 Z M 88 137 L 97 137 Z" fill="#798eb5" />
<path d="M 626 561 L 659 555 L 721 540 L 775 525 L 801 516 L 738 485 L 653 450 L 652 472 L 647 503 L 639 532 Z M 585 585 L 540 588 L 492 581 L 459 565 L 436 542 L 424 510 L 428 474 L 434 459 L 448 439 L 475 420 L 386 436 L 330 458 L 300 483 L 290 500 L 285 517 L 285 573 L 293 598 L 301 611 L 322 631 L 349 644 L 381 654 L 414 659 L 445 659 L 500 647 L 547 622 Z M 72 137 L 170 167 L 249 204 L 315 254 L 399 331 L 454 366 L 543 402 L 630 424 L 618 365 L 590 312 L 544 263 L 485 224 L 413 193 L 305 164 L 187 145 Z" fill="#cde9fa" />
</svg>