{"asset":{"generator":"UnityGLTF","version":"2.0"},"extensionsUsed":["KHR_texture_transform"],"scene":0,"scenes":[{"nodes":[0],"name":"stairs-open"}],"accessors":[{"bufferView":0,"componentType":5126,"count":256,"type":"VEC3","max":[0.6499999761581421,2.5,2],"min":[-0.6499999761581421,0,-2]},{"bufferView":1,"componentType":5126,"count":256,"type":"VEC3","max":[1,1,1],"min":[-1,-1,-1]},{"bufferView":2,"componentType":5126,"count":256,"type":"VEC4","max":[1,0,1,1],"min":[-1,0,-1,1]},{"bufferView":3,"componentType":5126,"count":256,"type":"VEC2","max":[0.59375,0.9750000238418579],"min":[0.59375,0.7749999761581421]},{"bufferView":4,"componentType":5123,"count":396,"type":"SCALAR","max":[255],"min":[0]}],"buffers":[{"byteLength":13080,"uri":"stairs-open.bin"}],"bufferViews":[{"buffer":0,"byteLength":3072,"byteStride":12,"target":34962},{"buffer":0,"byteOffset":3072,"byteLength":3072,"byteStride":12,"target":34962},{"buffer":0,"byteOffset":6144,"byteLength":4096,"target":34962},{"buffer":0,"byteOffset":10240,"byteLength":2048,"target":34962},{"buffer":0,"byteOffset":12288,"byteLength":792,"target":34963}],"images":[{"uri":"Textures/colormap.png","name":"colormap"}],"materials":[{"pbrMetallicRoughness":{"baseColorTexture":{"index":0,"extensions":{"KHR_texture_transform":{"texCoord":0}}},"metallicFactor":0},"doubleSided":true,"name":"colormap"}],"meshes":[{"primitives":[{"attributes":{"POSITION":0,"NORMAL":1,"TANGENT":2,"TEXCOORD_0":3},"indices":4,"material":0}],"name":"stairs-open"}],"nodes":[{"mesh":0,"name":"stairs-open"}],"samplers":[{"magFilter":9728,"minFilter":9984}],"textures":[{"sampler":0,"source":0,"name":"colormap"}]}