{"asset":{"generator":"UnityGLTF","version":"2.0"},"extensionsUsed":["KHR_texture_transform"],"scene":0,"scenes":[{"nodes":[0],"name":"wall-half"}],"accessors":[{"bufferView":0,"componentType":5126,"count":20,"type":"VEC3","max":[0.05000001937150955,2.4000000953674316,0.5],"min":[-0.05000001937150955,0,-0.5]},{"bufferView":1,"componentType":5126,"count":20,"type":"VEC3","max":[1,1,1],"min":[-1,0,-1]},{"bufferView":2,"componentType":5126,"count":20,"type":"VEC4","max":[1,0,1,1],"min":[-1,0,-1,1]},{"bufferView":3,"componentType":5126,"count":20,"type":"VEC2","max":[0.59375,0.925000011920929],"min":[0.34375,0.824999988079071]},{"bufferView":4,"componentType":5121,"count":30,"type":"SCALAR","max":[19],"min":[0]}],"buffers":[{"byteLength":992,"uri":"wall-half.bin"}],"bufferViews":[{"buffer":0,"byteLength":240,"byteStride":12,"target":34962},{"buffer":0,"byteOffset":240,"byteLength":240,"byteStride":12,"target":34962},{"buffer":0,"byteOffset":480,"byteLength":320,"target":34962},{"buffer":0,"byteOffset":800,"byteLength":160,"target":34962},{"buffer":0,"byteOffset":960,"byteLength":32,"target":34963}],"images":[{"uri":"Textures/colormap.png","name":"colormap"}],"materials":[{"pbrMetallicRoughness":{"baseColorTexture":{"index":0,"extensions":{"KHR_texture_transform":{"texCoord":0}}},"metallicFactor":0},"doubleSided":true,"name":"colormap"}],"meshes":[{"primitives":[{"attributes":{"POSITION":0,"NORMAL":1,"TANGENT":2,"TEXCOORD_0":3},"indices":4,"material":0}],"name":"wall-half"}],"nodes":[{"mesh":0,"name":"wall-half"}],"samplers":[{"magFilter":9728,"minFilter":9984}],"textures":[{"sampler":0,"source":0,"name":"colormap"}]}