<svg width="48" height="48" viewBox="0 0 48 48" fill="none" xmlns="http://www.w3.org/2000/svg">
<path d="M10.8567 6.07017C16.1764 10.1204 21.8983 18.3325 23.9991 22.7396C26.1001 18.3328 31.8217 10.1203 37.1415 6.07017C40.9799 3.14771 47.1991 0.886482 47.1991 8.08184C47.1991 9.51885 46.3867 20.1535 45.9102 21.88C44.254 27.8825 38.2187 29.4134 32.8502 28.4868C42.2342 30.1065 44.6214 35.4716 39.466 40.8367C29.6748 51.0261 25.3932 38.2802 24.2956 35.0142C24.0945 34.4155 24.0003 34.1354 23.999 34.3736C23.9976 34.1354 23.9035 34.4155 23.7023 35.0142C22.6052 38.2802 18.3237 51.0264 8.53195 40.8367C3.37643 35.4716 5.76355 30.1062 15.1477 28.4868C9.77907 29.4134 3.74371 27.8824 2.08771 21.88C1.61121 20.1533 0.798828 9.51869 0.798828 8.08184C0.798828 0.886482 7.01819 3.14771 10.8564 6.07017H10.8567Z" fill="#1D1B22"/>
</svg>
