{"asset":{"generator":"UnityGLTF","version":"2.0"},"extensionsUsed":["KHR_texture_transform"],"scene":0,"scenes":[{"nodes":[0],"name":"flag-banner-short"}],"accessors":[{"bufferView":0,"componentType":5126,"count":98,"type":"VEC3","max":[0.03999999910593033,0.7800000309944153,0.3149999976158142],"min":[0,0,-0.3149999976158142]},{"bufferView":1,"componentType":5126,"count":98,"type":"VEC3","max":[1,1,1],"min":[-1,-0.7659898996353149,-1]},{"bufferView":2,"componentType":5126,"count":98,"type":"VEC4","max":[1,0,1,1],"min":[-1,0,-1,1]},{"bufferView":3,"componentType":5126,"count":98,"type":"VEC2","max":[0.59375,0.9750000238418579],"min":[0.46875,0.5249999761581421]},{"bufferView":4,"componentType":5121,"count":204,"type":"SCALAR","max":[97],"min":[0]}],"buffers":[{"byteLength":4908,"uri":"castle-flag-banner-short.bin"}],"bufferViews":[{"buffer":0,"byteLength":1176,"byteStride":12,"target":34962},{"buffer":0,"byteOffset":1176,"byteLength":1176,"byteStride":12,"target":34962},{"buffer":0,"byteOffset":2352,"byteLength":1568,"target":34962},{"buffer":0,"byteOffset":3920,"byteLength":784,"target":34962},{"buffer":0,"byteOffset":4704,"byteLength":204,"target":34963}],"images":[{"uri":"Textures/castle/colormap.png","name":"colormap"}],"materials":[{"pbrMetallicRoughness":{"baseColorTexture":{"index":0,"extensions":{"KHR_texture_transform":{"texCoord":0}}},"metallicFactor":0},"doubleSided":true,"name":"colormap"}],"meshes":[{"primitives":[{"attributes":{"POSITION":0,"NORMAL":1,"TANGENT":2,"TEXCOORD_0":3},"indices":4,"material":0}],"name":"flag-banner-short"}],"nodes":[{"mesh":0,"name":"flag-banner-short"}],"samplers":[{"magFilter":9728,"minFilter":9984}],"textures":[{"sampler":0,"source":0,"name":"colormap"}]}