{"asset":{"generator":"UnityGLTF","version":"2.0"},"extensionsUsed":["KHR_texture_transform"],"scene":0,"scenes":[{"nodes":[0],"name":"tree-small"}],"accessors":[{"bufferView":0,"componentType":5126,"count":272,"type":"VEC3","max":[0.3690274953842163,1.3492000102996826,0.36000001430511475],"min":[-0.3690274953842163,0,-0.36000001430511475]},{"bufferView":1,"componentType":5126,"count":272,"type":"VEC3","max":[1,1,1],"min":[-1,-1,-1]},{"bufferView":2,"componentType":5126,"count":272,"type":"VEC4","max":[1,0.22269095480442047,1,1],"min":[-1,-0.22269095480442047,-1,1]},{"bufferView":3,"componentType":5126,"count":272,"type":"VEC2","max":[0.59375,0.9750000238418579],"min":[0.09375,0.5249999761581421]},{"bufferView":4,"componentType":5123,"count":492,"type":"SCALAR","max":[271],"min":[0]}],"buffers":[{"byteLength":14040,"uri":"castle-tree-small.bin"}],"bufferViews":[{"buffer":0,"byteLength":3264,"byteStride":12,"target":34962},{"buffer":0,"byteOffset":3264,"byteLength":3264,"byteStride":12,"target":34962},{"buffer":0,"byteOffset":6528,"byteLength":4352,"target":34962},{"buffer":0,"byteOffset":10880,"byteLength":2176,"target":34962},{"buffer":0,"byteOffset":13056,"byteLength":984,"target":34963}],"images":[{"uri":"Textures/castle/colormap.png","name":"colormap"}],"materials":[{"pbrMetallicRoughness":{"baseColorTexture":{"index":0,"extensions":{"KHR_texture_transform":{"texCoord":0}}},"metallicFactor":0},"doubleSided":true,"name":"colormap"}],"meshes":[{"primitives":[{"attributes":{"POSITION":0,"NORMAL":1,"TANGENT":2,"TEXCOORD_0":3},"indices":4,"material":0}],"name":"tree-small"}],"nodes":[{"mesh":0,"name":"tree-small"}],"samplers":[{"magFilter":9728,"minFilter":9984}],"textures":[{"sampler":0,"source":0,"name":"colormap"}]}