{"asset":{"generator":"UnityGLTF","version":"2.0"},"extensionsUsed":["KHR_texture_transform"],"scene":0,"scenes":[{"nodes":[0],"name":"column-wide"}],"accessors":[{"bufferView":0,"componentType":5126,"count":52,"type":"VEC3","max":[0.3499999940395355,2.4000000953674316,0.3499999940395355],"min":[-0.3499999940395355,0,-0.3499999940395355]},{"bufferView":1,"componentType":5126,"count":52,"type":"VEC3","max":[1,1,1],"min":[-1,-1,-1]},{"bufferView":2,"componentType":5126,"count":52,"type":"VEC4","max":[1,0,1,1],"min":[-1,0,-1,1]},{"bufferView":3,"componentType":5126,"count":52,"type":"VEC2","max":[0.71875,0.9750000238418579],"min":[0.46875,0.7749999761581421]},{"bufferView":4,"componentType":5121,"count":114,"type":"SCALAR","max":[51],"min":[0]}],"buffers":[{"byteLength":2612,"uri":"column-wide.bin"}],"bufferViews":[{"buffer":0,"byteLength":624,"byteStride":12,"target":34962},{"buffer":0,"byteOffset":624,"byteLength":624,"byteStride":12,"target":34962},{"buffer":0,"byteOffset":1248,"byteLength":832,"target":34962},{"buffer":0,"byteOffset":2080,"byteLength":416,"target":34962},{"buffer":0,"byteOffset":2496,"byteLength":116,"target":34963}],"images":[{"uri":"Textures/colormap.png","name":"colormap"}],"materials":[{"pbrMetallicRoughness":{"baseColorTexture":{"index":0,"extensions":{"KHR_texture_transform":{"texCoord":0}}},"metallicFactor":0},"doubleSided":true,"name":"colormap"}],"meshes":[{"primitives":[{"attributes":{"POSITION":0,"NORMAL":1,"TANGENT":2,"TEXCOORD_0":3},"indices":4,"material":0}],"name":"column-wide"}],"nodes":[{"mesh":0,"name":"column-wide"}],"samplers":[{"magFilter":9728,"minFilter":9984}],"textures":[{"sampler":0,"source":0,"name":"colormap"}]}