{"asset":{"generator":"UnityGLTF","version":"2.0"},"extensionsUsed":["KHR_texture_transform"],"scene":0,"scenes":[{"nodes":[0],"name":"wall-window-square"}],"accessors":[{"bufferView":0,"componentType":5126,"count":108,"type":"VEC3","max":[0.10000000149011612,2.4000000953674316,1],"min":[-0.10000000149011612,0,-1]},{"bufferView":1,"componentType":5126,"count":108,"type":"VEC3","max":[1,1,1],"min":[-1,-1,-1]},{"bufferView":2,"componentType":5126,"count":108,"type":"VEC4","max":[1,0,1,1],"min":[-1,0,-1,1]},{"bufferView":3,"componentType":5126,"count":108,"type":"VEC2","max":[0.71875,0.925000011920929],"min":[0.34375,0.824999988079071]},{"bufferView":4,"componentType":5121,"count":282,"type":"SCALAR","max":[107],"min":[0]},{"bufferView":5,"componentType":5126,"count":8,"type":"VEC3","max":[0,1.2000000476837158,0.8999999761581421],"min":[-1.4438228216156449e-15,0,0]},{"bufferView":6,"componentType":5126,"count":8,"type":"VEC3","max":[1,0,0],"min":[-1,0,0]},{"bufferView":7,"componentType":5126,"count":8,"type":"VEC4","max":[0,0,1,1],"min":[0,0,1,-1]},{"bufferView":8,"componentType":5126,"count":8,"type":"VEC2","max":[35.43307113647461,1],"min":[-4.5595458561050996e-29,-46.24409484863281]},{"bufferView":9,"componentType":5121,"count":12,"type":"SCALAR","max":[7],"min":[0]}],"buffers":[{"byteLength":5864,"uri":"wall-window-square.bin"}],"bufferViews":[{"buffer":0,"byteLength":1296,"byteStride":12,"target":34962},{"buffer":0,"byteOffset":1296,"byteLength":1296,"byteStride":12,"target":34962},{"buffer":0,"byteOffset":2592,"byteLength":1728,"target":34962},{"buffer":0,"byteOffset":4320,"byteLength":864,"target":34962},{"buffer":0,"byteOffset":5184,"byteLength":284,"target":34963},{"buffer":0,"byteOffset":5468,"byteLength":96,"byteStride":12,"target":34962},{"buffer":0,"byteOffset":5564,"byteLength":96,"byteStride":12,"target":34962},{"buffer":0,"byteOffset":5660,"byteLength":128,"target":34962},{"buffer":0,"byteOffset":5788,"byteLength":64,"target":34962},{"buffer":0,"byteOffset":5852,"byteLength":12,"target":34963}],"images":[{"uri":"Textures/colormap.png","name":"colormap"}],"materials":[{"pbrMetallicRoughness":{"baseColorTexture":{"index":0,"extensions":{"KHR_texture_transform":{"texCoord":0}}},"metallicFactor":0},"doubleSided":true,"name":"colormap"},{"pbrMetallicRoughness":{"baseColorFactor":[0.7524076,0.852530241,1,0.5019608],"metallicFactor":0.5,"roughnessFactor":0.5},"emissiveFactor":[0.203648046,0.215670541,0.280335039],"alphaMode":"BLEND","name":"glass"}],"meshes":[{"primitives":[{"attributes":{"POSITION":0,"NORMAL":1,"TANGENT":2,"TEXCOORD_0":3},"indices":4,"material":0}],"name":"wall-window-square"},{"primitives":[{"attributes":{"POSITION":5,"NORMAL":6,"TANGENT":7,"TEXCOORD_0":8},"indices":9,"material":1}],"name":"(%ignore)"}],"nodes":[{"children":[1],"mesh":0,"name":"wall-window-square"},{"mesh":1,"translation":[4.33146832e-14,0.7,-0.45],"name":"(%ignore)"}],"samplers":[{"magFilter":9728,"minFilter":9984}],"textures":[{"sampler":0,"source":0,"name":"colormap"}]}