# Created by Kenney (www.kenney.nl)

mtllib corridor-junction.mtl

g corridor-junction

v -1.994226 0.9 -1.399002 1 1 1
v -1.994226 0.9 -2 1 1 1
v -1.693727 0.9 -1.479521 1 1 1
v -1.393229 0.9 -2 1 1 1
v -1.473747 0.9 -1.699501 1 1 1
v -1.994226 0.2 -1.399002 1 1 1
v -1.994226 0.2 -2 1 1 1
v -1.393229 0.2 -2 1 1 1
v -1.473747 0.2 -1.699501 1 1 1
v -1.693727 0.2 -1.479521 1 1 1
v 1.404776 0.9 -2 1 1 1
v 2.005773 0.9 -2 1 1 1
v 1.485294 0.9 -1.699501 1 1 1
v 2.005774 0.9 -1.399002 1 1 1
v 1.705275 0.9 -1.479521 1 1 1
v 1.404776 0.2 -2 1 1 1
v 2.005773 0.2 -2 1 1 1
v 2.005774 0.2 -1.399002 1 1 1
v 1.705275 0.2 -1.479521 1 1 1
v 1.485294 0.2 -1.699501 1 1 1
v -2 0.2 1.399003 1 1 1
v -8.085408E-14 0.2 1.199003 1 1 1
v -2 0.9 1.399003 1 1 1
v -8.085408E-14 0.9 1.199003 1 1 1
v 2 0.9 2 1 1 1
v -2 0.9 2 1 1 1
v 2 0.9 1.399003 1 1 1
v 2 0.2 2 1 1 1
v -2 0.2 2 1 1 1
v 2 0.2 1.399003 1 1 1
v -1.994226 4.05 -1.6 1 1 1
v -1.994226 0.9 -1.6 1 1 1
v -1.994226 4.05 -2 1 1 1
v -1.994226 0.9 -2 1 1 1
v -1.594226 0.9 -2 1 1 1
v -1.594226 4.05 -2 1 1 1
v -1.794226 0.9 -1.65359 1 1 1
v -1.794226 4.05 -1.65359 1 1 1
v -1.647815 0.9 -1.8 1 1 1
v -1.647815 4.05 -1.8 1 1 1
v -1.994226 -1.852154E-14 -2 1 1 1
v -0.9922314 -1.852154E-14 -2 1 1 1
v -1.994226 0.2 -2 1 1 1
v -0.9922314 0.2 -2 1 1 1
v -1.994226 0.2 -0.9980049 1 1 1
v -1.994226 -1.852154E-14 -0.9980049 1 1 1
v -1.493229 0.2 -1.132247 1 1 1
v -1.126473 0.2 -1.499002 1 1 1
v -1.493229 -1.779963E-14 -1.132247 1 1 1
v -1.126473 -1.779963E-14 -1.499002 1 1 1
v 1.605773 4.05 -2 1 1 1
v 1.605773 0.9 -2 1 1 1
v 2.005773 4.05 -2 1 1 1
v 2.005773 0.9 -2 1 1 1
v 2.005773 0.9 -1.6 1 1 1
v 2.005773 4.05 -1.6 1 1 1
v 1.659363 0.9 -1.8 1 1 1
v 1.659363 4.05 -1.8 1 1 1
v 1.805773 0.9 -1.65359 1 1 1
v 1.805773 4.05 -1.65359 1 1 1
v 2.005774 -1.852154E-14 -2 1 1 1
v 2.005774 -1.852154E-14 -0.9980049 1 1 1
v 2.005774 0.2 -2 1 1 1
v 2.005774 0.2 -0.9980049 1 1 1
v 1.003778 0.2 -2 1 1 1
v 1.003778 -1.852154E-14 -2 1 1 1
v 1.13802 0.2 -1.499002 1 1 1
v 1.504776 0.2 -1.132247 1 1 1
v 1.13802 -1.779963E-14 -1.499002 1 1 1
v 1.504776 -1.779963E-14 -1.132247 1 1 1
v 2 0.2 0.9980046 1 1 1
v 2 0 0.9980046 1 1 1
v 2 0.2 2 1 1 1
v 2 0 2 1 1 1
v -2 0 0.9980046 1 1 1
v -8.954693E-09 0 0.7980046 1 1 1
v -2 0.2 0.9980046 1 1 1
v -8.954693E-09 0.2 0.7980046 1 1 1
v -2 0 2 1 1 1
v -2 0.2 2 1 1 1
v -2 0.9 1.6 1 1 1
v -5.197762E-14 0.9 1.4 1 1 1
v -2 4.05 1.6 1 1 1
v -5.197762E-14 4.05 1.4 1 1 1
v 2 0.9 1.6 1 1 1
v 2 4.05 1.6 1 1 1
v 2 4.05 2 1 1 1
v 2 0.9 2 1 1 1
v -2 4.05 2 1 1 1
v -2 0.9 2 1 1 1
v 0.9278579 1.285278 1.442536 1 1 1
v 0.5443605 1.285278 1.404187 1 1 1
v 0.9228827 1.285278 1.492288 1 1 1
v 0.5393853 1.285278 1.453938 1 1 1
v 0.9278579 1.585278 1.442536 1 1 1
v 0.9228827 1.585278 1.492288 1 1 1
v 0.5443605 1.585278 1.404187 1 1 1
v 0.5393853 1.585278 1.453938 1 1 1
v 0.9776098 1.535278 1.447512 1 1 1
v 0.9776098 1.335278 1.447512 1 1 1
v 0.9726346 1.535278 1.497263 1 1 1
v 0.9726346 1.335278 1.497263 1 1 1
v 0.4946086 1.335278 1.399211 1 1 1
v 0.4946086 1.535278 1.399211 1 1 1
v 0.4896334 1.335278 1.448963 1 1 1
v 0.4896334 1.535278 1.448963 1 1 1
v -1.132622 3.191752 1.513263 1 1 1
v -1.51612 3.191752 1.551612 1 1 1
v -1.137597 3.191752 1.463511 1 1 1
v -1.521095 3.191752 1.501861 1 1 1
v -1.132622 2.891752 1.513263 1 1 1
v -1.137597 2.891752 1.463511 1 1 1
v -1.51612 2.891752 1.551612 1 1 1
v -1.521095 2.891752 1.501861 1 1 1
v -1.08287 3.141752 1.508288 1 1 1
v -1.087846 3.141752 1.458536 1 1 1
v -1.565871 3.141752 1.556588 1 1 1
v -1.570847 3.141752 1.506836 1 1 1
v -1.087846 2.941752 1.458536 1 1 1
v -1.08287 2.941752 1.508288 1 1 1
v -1.565871 2.941752 1.556588 1 1 1
v -1.570847 2.941752 1.506836 1 1 1
v 1.637037 1.633671 1.513454 1 1 1
v 1.253539 1.633671 1.475105 1 1 1
v 1.632062 1.633671 1.563206 1 1 1
v 1.248564 1.633671 1.524857 1 1 1
v 1.637037 1.933671 1.513454 1 1 1
v 1.632062 1.933671 1.563206 1 1 1
v 1.253539 1.933671 1.475105 1 1 1
v 1.248564 1.933671 1.524857 1 1 1
v 1.686789 1.883671 1.51843 1 1 1
v 1.681813 1.883671 1.568182 1 1 1
v 1.686789 1.683671 1.51843 1 1 1
v 1.681813 1.683671 1.568182 1 1 1
v 1.203788 1.683671 1.470129 1 1 1
v 1.203788 1.883671 1.470129 1 1 1
v 1.198812 1.683671 1.519881 1 1 1
v 1.198812 1.883671 1.519881 1 1 1
v -1.296844 0 0.4321918 1 1 1
v -1.266226 0.05 0.4498696 1 1 1
v -1.245081 0 0.6253771 1 1 1
v -1.227403 0.05 0.5947585 1 1 1
v -1.051895 0 0.5736133 1 1 1
v -1.082514 0.05 0.5559356 1 1 1
v -1.547955 0 0.7146534 1 1 1
v -1.934325 0 0.6111257 1 1 1
v -1.58331 0.1 0.653416 1 1 1
v -1.873088 0.1 0.5757704 1 1 1
v -1.830798 0 0.2247554 1 1 1
v -1.795442 0.1 0.2859926 1 1 1
v 1.071889 0 0.006433129 1 1 1
v 1.096889 0.1 0.03143311 1 1 1
v 1.071889 0 0.2064332 1 1 1
v 1.096889 0.1 0.1814332 1 1 1
v 1.246889 0.1 0.03143311 1 1 1
v 1.246889 0.1 0.1814332 1 1 1
v 1.271889 0 0.2064332 1 1 1
v 1.271889 0 0.006433129 1 1 1
v -1.444427 0 0.328283 1 1 1
v -1.505665 0.1 0.3636383 1 1 1
v -1.103659 0 0.3804281 1 1 1
v -1.121337 0.05 0.4110467 1 1 1
v 1.74957 0.05 0.4982207 1 1 1
v 1.537438 0.05 0.7103527 1 1 1
v 1.537438 0.05 0.2860887 1 1 1
v 1.325306 0.05 0.4982207 1 1 1
v 1.537438 0 0.215378 1 1 1
v 1.254596 0 0.4982207 1 1 1
v 0.8904107 -2.887646E-15 0.09759414 1 1 1
v 0.8550553 0.05 0.1588314 1 1 1
v 0.5040404 -2.887646E-15 0.2011218 1 1 1
v 0.5652776 0.05 0.2364771 1 1 1
v 1.820281 0 0.4982207 1 1 1
v 1.537438 0 0.7810634 1 1 1
v 0.9939382 -2.887646E-15 0.4839644 1 1 1
v 0.607568 -2.887646E-15 0.5874921 1 1 1
v 0.932701 0.05 0.4486091 1 1 1
v 0.6429233 0.05 0.5262549 1 1 1
v 2 0 -2 1 1 1
v 2 0 2 1 1 1
v -2 0 -2 1 1 1
v -2 0 2 1 1 1

vn 0 1 0
vn 0 -1 0
vn -1 0 -4.746203E-15
vn 1 0 4.746203E-15
vn 4.746203E-15 0 -1
vn -4.746203E-15 0 1
vn 0.8660254 0 0.5
vn 0.9659258 0 0.258819
vn -0.9659258 0 -0.258819
vn -0.8660254 0 -0.5
vn 0.5 0 0.8660254
vn -0.5 0 -0.8660254
vn 0.258819 0 0.9659258
vn -0.258819 0 -0.9659258
vn -1.192093E-07 0 -1
vn 1.192093E-07 0 1
vn 1 0 -1.192093E-07
vn -1 0 1.192093E-07
vn -0.5 0 0.8660256
vn -0.258819 0 0.965926
vn 0.258819 0 -0.965926
vn 0.5 0 -0.8660256
vn -0.8660255 0 0.5000002
vn 0.8660255 0 -0.5000002
vn -0.9659259 0 0.2588192
vn 0.9659259 0 -0.2588192
vn -0.09950371 0 -0.9950371
vn 0 0 -1
vn 0.09950371 0 0.9950371
vn 0 0 1
vn 0.09950371 0 -0.9950371
vn -0.09950371 0 0.9950371
vn 1 0 0
vn -1 0 0
vn 0.5 0 0.8660254
vn -0.5 0 -0.8660254
vn -0.8660255 0 0.5000001
vn 0.8660255 0 -0.5000001
vn -0.09950373 0 -0.9950371
vn 0.09950373 0 0.9950371
vn 0.0995037 0 -0.9950371
vn -0.0995037 0 0.9950371
vn 0.3807842 -0.9238795 0.03807842
vn -0.3807842 -0.9238795 -0.03807842
vn -0.3807842 0.9238795 -0.03807842
vn 0.3807842 0.9238795 0.03807842
vn 0.9192945 0.3826834 0.09192945
vn 0.9192945 -0.3826834 0.09192945
vn -0.9192945 -0.3826834 -0.09192945
vn -0.9192945 0.3826834 -0.09192945
vn 0.3807842 0.9238795 -0.03807842
vn -0.3807842 0.9238795 0.03807842
vn -0.3807842 -0.9238795 0.03807842
vn 0.3807842 -0.9238795 -0.03807842
vn 0.9192945 0.3826834 -0.09192945
vn -0.9192945 -0.3826834 0.09192945
vn -0.9192945 0.3826834 0.09192945
vn 0.9192945 -0.3826834 -0.09192945
vn -0.7071068 0.5773503 -0.4082483
vn -0.5202672 0.7994348 -0.3003764
vn -0.4082483 0.5773503 0.7071068
vn -0.3003764 0.7994348 0.5202672
vn 0.4082483 -0.5773503 -0.7071068
vn 0.5202672 -0.7994348 0.3003764
vn 0.7071068 -0.5773503 0.4082483
vn 0.3003764 -0.7994348 -0.5202672
vn 0.7071068 0.5773503 0.4082483
vn 0.5202672 0.7994348 0.3003764
vn -0.5202672 -0.7994348 -0.3003764
vn -0.7071068 -0.5773503 -0.4082483
vn 0.4082483 0.5773503 0.7071068
vn -0.7071068 0.5773503 0.4082483
vn 0.3003764 0.7994348 0.5202672
vn -0.5202672 0.7994348 0.3003764
vn -0.3003764 -0.7994348 -0.5202672
vn 0.7071068 -0.5773503 -0.4082483
vn -0.4082483 -0.5773503 -0.7071068
vn 0.5202672 -0.7994348 -0.3003764
vn -0.4082483 0.5773503 -0.7071068
vn -0.3003764 0.7994348 -0.5202672
vn 0.3003764 -0.7994348 0.5202672
vn 0.4082483 -0.5773503 0.7071068
vn -0.6666667 0.3333333 -0.6666667
vn -0.5033765 0.7022992 -0.5033765
vn -0.6666667 0.3333333 0.6666667
vn -0.5033765 0.7022992 0.5033765
vn 0.6666667 -0.3333333 -0.6666667
vn 0.5033765 -0.7022992 0.5033765
vn 0.6666667 -0.3333333 0.6666667
vn 0.5033765 -0.7022992 -0.5033765
vn 0.5033765 0.7022992 -0.5033765
vn 0.5033765 0.7022992 0.5033765
vn -0.5033765 -0.7022992 -0.5033765
vn -0.5033765 -0.7022992 0.5033765
vn 0.6666667 0.3333333 0.6666667
vn -0.6666667 -0.3333333 -0.6666667
vn 0.6666667 0.3333333 -0.6666667
vn -0.6666667 -0.3333333 0.6666667
vn 0.7071068 0.5773503 -0.4082483
vn 0.5202672 0.7994348 -0.3003764
vn -0.5202672 -0.7994348 0.3003764
vn -0.7071068 -0.5773503 0.4082483
vn 0.4082483 0.5773503 -0.7071068
vn 0.3003764 0.7994348 -0.5202672
vn -0.4082483 -0.5773503 0.7071068
vn -0.3003764 -0.7994348 0.5202672
vn 0.4245382 0.9054101 0
vn 0 0.9054101 0.4245382
vn 0 0.9054101 -0.4245382
vn -0.4245382 0.9054101 0
vn 0 -0.9054101 0.4245382
vn 0 -0.9054101 -0.4245382
vn -0.4245382 -0.9054101 0
vn 0.4245382 -0.9054101 0
vn 0 0.8164966 -0.5773503
vn -0.5773503 0.8164966 0
vn 0 -0.8164966 0.5773503
vn 0.5773503 -0.8164966 0
vn 0.2886751 0.8164966 -0.5
vn 0.2122691 0.90541 -0.3676609
vn -0.5 0.8164966 -0.2886751
vn -0.3676609 0.90541 -0.2122691
vn 0.5 -0.8164966 0.2886751
vn -0.2122691 -0.90541 0.3676609
vn -0.2886751 -0.8164966 0.5
vn 0.3676609 -0.90541 0.2122691
vn 0.5773503 0.8164966 0
vn -0.5773503 -0.8164966 0
vn 0 0.8164966 0.5773503
vn 0 -0.8164966 -0.5773503
vn 0.5 0.8164966 0.2886751
vn -0.2886751 0.8164966 0.5
vn 0.3676609 0.90541 0.2122691
vn -0.2122691 0.90541 0.3676609
vn -0.3676609 -0.90541 -0.2122691
vn 0.2886751 -0.8164966 -0.5
vn -0.5 -0.8164966 -0.2886751
vn 0.2122691 -0.90541 -0.3676609

vt 0.09375 0.225
vt 0.09375 0.025
vt 0.34375 0.225
vt 0.34375 0.025
vt 0.34375 0.105
vt 0.34375 0.07946212
vt 0.34375 0.09850974
vt 0.34375 0.09533513
vt 0.34375 0.08263672
vt 0.34375 0.2005081
vt 0.34375 0.1814605
vt 0.34375 0.1973335
vt 0.34375 0.1846351
vt 0.34375 0.1015823
vt 0.34375 0.1206299
vt 0.34375 0.1174553
vt 0.34375 0.1047569
vt 0.46875 0.025
vt 0.46875 0.065
vt 0.46875 0.105

usemtl colormap

f 3/1/1 2/1/1 1/1/1
f 2/1/1 3/1/1 4/1/1
f 4/1/1 3/1/1 5/1/1
f 1/1/2 2/1/2 3/1/2
f 4/1/2 3/1/2 2/1/2
f 5/1/2 3/1/2 4/1/2
f 2/1/3 6/2/3 1/1/3
f 6/2/3 2/1/3 7/2/3
f 1/1/4 6/2/4 2/1/4
f 7/2/4 2/1/4 6/2/4
f 2/1/5 8/2/5 7/2/5
f 8/2/5 2/1/5 4/1/5
f 7/2/6 8/2/6 2/1/6
f 4/1/6 2/1/6 8/2/6
f 8/2/8 5/1/7 9/2/7
f 5/1/7 8/2/8 4/1/8
f 9/2/10 5/1/10 8/2/9
f 4/1/9 8/2/9 5/1/10
f 9/2/7 3/1/11 10/2/11
f 3/1/11 9/2/7 5/1/7
f 10/2/12 3/1/12 9/2/10
f 5/1/10 9/2/10 3/1/12
f 10/2/11 1/1/13 6/2/13
f 1/1/13 10/2/11 3/1/11
f 6/2/14 1/1/14 10/2/12
f 3/1/12 10/2/12 1/1/14
f 13/1/1 12/1/1 11/1/1
f 12/1/1 13/1/1 14/1/1
f 14/1/1 13/1/1 15/1/1
f 11/1/2 12/1/2 13/1/2
f 14/1/2 13/1/2 12/1/2
f 15/1/2 13/1/2 14/1/2
f 12/1/15 16/2/15 11/1/15
f 16/2/15 12/1/15 17/2/15
f 11/1/16 16/2/16 12/1/16
f 17/2/16 12/1/16 16/2/16
f 12/1/17 18/2/17 17/2/17
f 18/2/17 12/1/17 14/1/17
f 17/2/18 18/2/18 12/1/18
f 14/1/18 12/1/18 18/2/18
f 18/2/20 15/1/19 19/2/19
f 15/1/19 18/2/20 14/1/20
f 19/2/22 15/1/22 18/2/21
f 14/1/21 18/2/21 15/1/22
f 19/2/19 13/1/23 20/2/23
f 13/1/23 19/2/19 15/1/19
f 20/2/24 13/1/24 19/2/22
f 15/1/22 19/2/22 13/1/24
f 20/2/23 11/1/25 16/2/25
f 11/1/25 20/2/23 13/1/23
f 16/2/26 11/1/26 20/2/24
f 13/1/24 20/2/24 11/1/26
f 23/1/27 22/2/28 21/2/27
f 22/2/28 23/1/27 24/1/28
f 21/2/29 22/2/30 23/1/29
f 24/1/30 23/1/29 22/2/30
f 27/1/1 26/1/1 25/1/1
f 26/1/1 27/1/1 24/1/1
f 26/1/1 24/1/1 23/1/1
f 25/1/2 26/1/2 27/1/2
f 24/1/2 27/1/2 26/1/2
f 23/1/2 24/1/2 26/1/2
f 25/1/30 29/2/30 28/2/30
f 29/2/30 25/1/30 26/1/30
f 28/2/28 29/2/28 25/1/28
f 26/1/28 25/1/28 29/2/28
f 24/1/28 30/2/31 22/2/28
f 30/2/31 24/1/28 27/1/31
f 22/2/30 30/2/32 24/1/30
f 27/1/32 24/1/30 30/2/32
f 25/1/33 30/2/33 27/1/33
f 30/2/33 25/1/33 28/2/33
f 27/1/34 30/2/34 25/1/34
f 28/2/34 25/1/34 30/2/34
f 29/2/34 23/1/34 21/2/34
f 23/1/34 29/2/34 26/1/34
f 21/2/33 23/1/33 29/2/33
f 26/1/33 29/2/33 23/1/33
f 33/3/3 32/4/3 31/3/3
f 32/4/3 33/3/3 34/4/3
f 31/3/4 32/4/4 33/3/4
f 34/4/4 33/3/4 32/4/4
f 33/3/5 35/4/5 34/4/5
f 35/4/5 33/3/5 36/3/5
f 34/4/6 35/4/6 33/3/6
f 36/3/6 33/3/6 35/4/6
f 37/4/11 31/3/13 32/4/13
f 31/3/13 37/4/11 38/3/11
f 32/4/14 31/3/14 37/4/12
f 38/3/12 37/4/12 31/3/14
f 35/4/8 40/3/7 39/4/7
f 40/3/7 35/4/8 36/3/8
f 39/4/10 40/3/10 35/4/9
f 36/3/9 35/4/9 40/3/10
f 38/3/1 33/3/1 31/3/1
f 33/3/1 38/3/1 36/3/1
f 36/3/1 38/3/1 40/3/1
f 31/3/2 33/3/2 38/3/2
f 36/3/2 38/3/2 33/3/2
f 40/3/2 38/3/2 36/3/2
f 40/3/7 37/4/11 39/4/7
f 37/4/11 40/3/7 38/3/11
f 39/4/10 37/4/12 40/3/10
f 38/3/12 40/3/10 37/4/12
f 43/5/5 42/4/5 41/4/5
f 42/4/5 43/5/5 44/5/5
f 41/4/6 42/4/6 43/5/6
f 44/5/6 43/5/6 42/4/6
f 43/5/3 46/4/3 45/5/3
f 46/4/3 43/5/3 41/4/3
f 45/5/4 46/4/4 43/5/4
f 41/4/4 43/5/4 46/4/4
f 47/5/1 43/5/1 45/5/1
f 43/5/1 47/5/1 44/5/1
f 44/5/1 47/5/1 48/5/1
f 45/5/2 43/5/2 47/5/2
f 44/5/2 47/5/2 43/5/2
f 48/5/2 47/5/2 44/5/2
f 42/4/2 46/4/2 41/4/2
f 46/4/2 42/4/2 49/4/2
f 49/4/2 42/4/2 50/4/2
f 41/4/1 46/4/1 42/4/1
f 49/4/1 42/4/1 46/4/1
f 50/4/1 42/4/1 49/4/1
f 42/4/8 48/5/7 50/4/7
f 48/5/7 42/4/8 44/5/8
f 50/4/10 48/5/10 42/4/9
f 44/5/9 42/4/9 48/5/10
f 48/5/7 49/4/35 50/4/7
f 49/4/35 48/5/7 47/5/35
f 50/4/10 49/4/36 48/5/10
f 47/5/36 48/5/10 49/4/36
f 49/4/35 45/5/13 46/4/13
f 45/5/13 49/4/35 47/5/35
f 46/4/14 45/5/14 49/4/36
f 47/5/36 49/4/36 45/5/14
f 53/3/15 52/4/15 51/3/15
f 52/4/15 53/3/15 54/4/15
f 51/3/16 52/4/16 53/3/16
f 54/4/16 53/3/16 52/4/16
f 53/3/17 55/4/17 54/4/17
f 55/4/17 53/3/17 56/3/17
f 54/4/18 55/4/18 53/3/18
f 56/3/18 53/3/18 55/4/18
f 57/4/23 51/3/25 52/4/25
f 51/3/25 57/4/23 58/3/23
f 52/4/26 51/3/26 57/4/24
f 58/3/24 57/4/24 51/3/26
f 55/4/20 60/3/19 59/4/19
f 60/3/19 55/4/20 56/3/20
f 59/4/22 60/3/22 55/4/21
f 56/3/21 55/4/21 60/3/22
f 58/3/1 53/3/1 51/3/1
f 53/3/1 58/3/1 56/3/1
f 56/3/1 58/3/1 60/3/1
f 51/3/2 53/3/2 58/3/2
f 56/3/2 58/3/2 53/3/2
f 60/3/2 58/3/2 56/3/2
f 60/3/19 57/4/23 59/4/19
f 57/4/23 60/3/19 58/3/23
f 59/4/22 57/4/24 60/3/22
f 58/3/24 60/3/22 57/4/24
f 63/5/17 62/4/17 61/4/17
f 62/4/17 63/5/17 64/5/17
f 61/4/18 62/4/18 63/5/18
f 64/5/18 63/5/18 62/4/18
f 63/5/15 66/4/15 65/5/15
f 66/4/15 63/5/15 61/4/15
f 65/5/16 66/4/16 63/5/16
f 61/4/16 63/5/16 66/4/16
f 67/5/1 63/5/1 65/5/1
f 63/5/1 67/5/1 64/5/1
f 64/5/1 67/5/1 68/5/1
f 65/5/2 63/5/2 67/5/2
f 64/5/2 67/5/2 63/5/2
f 68/5/2 67/5/2 64/5/2
f 62/4/2 66/4/2 61/4/2
f 66/4/2 62/4/2 69/4/2
f 69/4/2 62/4/2 70/4/2
f 61/4/1 66/4/1 62/4/1
f 69/4/1 62/4/1 66/4/1
f 70/4/1 62/4/1 69/4/1
f 62/4/20 68/5/19 70/4/19
f 68/5/19 62/4/20 64/5/20
f 70/4/22 68/5/22 62/4/21
f 64/5/21 62/4/21 68/5/22
f 68/5/19 69/4/37 70/4/19
f 69/4/37 68/5/19 67/5/37
f 70/4/22 69/4/38 68/5/22
f 67/5/38 68/5/22 69/4/38
f 69/4/37 65/5/25 66/4/25
f 65/5/25 69/4/37 67/5/37
f 66/4/26 65/5/26 69/4/38
f 67/5/38 69/4/38 65/5/26
f 73/5/33 72/4/33 71/5/33
f 72/4/33 73/5/33 74/4/33
f 71/5/34 72/4/34 73/5/34
f 74/4/34 73/5/34 72/4/34
f 77/5/39 76/4/28 75/4/39
f 76/4/28 77/5/39 78/5/28
f 75/4/40 76/4/30 77/5/40
f 78/5/30 77/5/40 76/4/30
f 73/5/30 79/4/30 74/4/30
f 79/4/30 73/5/30 80/5/30
f 74/4/28 79/4/28 73/5/28
f 80/5/28 73/5/28 79/4/28
f 78/5/28 72/4/41 76/4/28
f 72/4/41 78/5/28 71/5/41
f 76/4/30 72/4/42 78/5/30
f 71/5/42 78/5/30 72/4/42
f 79/4/2 72/4/2 74/4/2
f 72/4/2 79/4/2 76/4/2
f 76/4/2 79/4/2 75/4/2
f 74/4/1 72/4/1 79/4/1
f 76/4/1 79/4/1 72/4/1
f 75/4/1 79/4/1 76/4/1
f 71/5/1 80/5/1 73/5/1
f 80/5/1 71/5/1 78/5/1
f 80/5/1 78/5/1 77/5/1
f 73/5/2 80/5/2 71/5/2
f 78/5/2 71/5/2 80/5/2
f 77/5/2 78/5/2 80/5/2
f 79/4/34 77/5/34 75/4/34
f 77/5/34 79/4/34 80/5/34
f 75/4/33 77/5/33 79/4/33
f 80/5/33 79/4/33 77/5/33
f 83/3/27 82/4/28 81/4/27
f 82/4/28 83/3/27 84/3/28
f 81/4/29 82/4/30 83/3/29
f 84/3/30 83/3/29 82/4/30
f 84/3/28 85/4/31 82/4/28
f 85/4/31 84/3/28 86/3/31
f 82/4/30 85/4/32 84/3/30
f 86/3/32 84/3/30 85/4/32
f 87/3/33 85/4/33 86/3/33
f 85/4/33 87/3/33 88/4/33
f 86/3/34 85/4/34 87/3/34
f 88/4/34 87/3/34 85/4/34
f 86/3/1 89/3/1 87/3/1
f 89/3/1 86/3/1 84/3/1
f 89/3/1 84/3/1 83/3/1
f 87/3/2 89/3/2 86/3/2
f 84/3/2 86/3/2 89/3/2
f 83/3/2 84/3/2 89/3/2
f 87/3/30 90/4/30 88/4/30
f 90/4/30 87/3/30 89/3/30
f 88/4/28 90/4/28 87/3/28
f 89/3/28 87/3/28 90/4/28
f 90/4/34 83/3/34 81/4/34
f 83/3/34 90/4/34 89/3/34
f 81/4/33 83/3/33 90/4/33
f 89/3/33 90/4/33 83/3/33
f 93/6/43 92/6/44 91/6/43
f 92/6/44 93/6/43 94/6/44
f 91/6/45 92/6/46 93/6/45
f 94/6/46 93/6/45 92/6/46
f 97/7/45 96/7/46 95/7/46
f 96/7/46 97/7/45 98/7/45
f 95/7/44 96/7/44 97/7/43
f 98/7/43 97/7/43 96/7/44
f 101/8/47 100/9/48 99/8/47
f 100/9/48 101/8/47 102/9/48
f 99/8/49 100/9/50 101/8/49
f 102/9/50 101/8/49 100/9/50
f 105/9/49 104/8/50 103/9/49
f 104/8/50 105/9/49 106/8/50
f 103/9/47 104/8/48 105/9/47
f 106/8/48 105/9/47 104/8/48
f 95/7/46 101/8/47 99/8/47
f 101/8/47 95/7/46 96/7/46
f 99/8/49 101/8/49 95/7/44
f 96/7/44 95/7/44 101/8/49
f 102/9/48 91/6/43 100/9/48
f 91/6/43 102/9/48 93/6/43
f 100/9/50 91/6/45 102/9/50
f 93/6/45 102/9/50 91/6/45
f 103/9/31 91/6/31 92/6/31
f 91/6/31 103/9/31 100/9/31
f 100/9/31 103/9/31 104/8/31
f 100/9/31 104/8/31 99/8/31
f 99/8/31 104/8/31 97/7/31
f 99/8/31 97/7/31 95/7/31
f 92/6/32 91/6/32 103/9/32
f 100/9/32 103/9/32 91/6/32
f 104/8/32 103/9/32 100/9/32
f 99/8/32 104/8/32 100/9/32
f 97/7/32 104/8/32 99/8/32
f 95/7/32 97/7/32 99/8/32
f 102/9/32 94/6/32 93/6/32
f 94/6/32 102/9/32 105/9/32
f 105/9/32 102/9/32 101/8/32
f 105/9/32 101/8/32 106/8/32
f 106/8/32 101/8/32 96/7/32
f 106/8/32 96/7/32 98/7/32
f 93/6/31 94/6/31 102/9/31
f 105/9/31 102/9/31 94/6/31
f 101/8/31 102/9/31 105/9/31
f 106/8/31 101/8/31 105/9/31
f 96/7/31 101/8/31 106/8/31
f 98/7/31 96/7/31 106/8/31
f 94/6/44 103/9/49 92/6/44
f 103/9/49 94/6/44 105/9/49
f 92/6/46 103/9/47 94/6/46
f 105/9/47 94/6/46 103/9/47
f 104/8/50 98/7/45 97/7/45
f 98/7/45 104/8/50 106/8/50
f 97/7/43 98/7/43 104/8/48
f 106/8/48 104/8/48 98/7/43
f 109/10/51 108/10/52 107/10/51
f 108/10/52 109/10/51 110/10/52
f 107/10/53 108/10/54 109/10/53
f 110/10/54 109/10/53 108/10/54
f 113/11/53 112/11/54 111/11/54
f 112/11/54 113/11/53 114/11/53
f 111/11/52 112/11/52 113/11/51
f 114/11/51 113/11/51 112/11/52
f 116/12/55 107/10/51 115/12/55
f 107/10/51 116/12/55 109/10/51
f 115/12/56 107/10/53 116/12/56
f 109/10/53 116/12/56 107/10/53
f 110/10/52 117/12/57 108/10/52
f 117/12/57 110/10/52 118/12/57
f 108/10/54 117/12/58 110/10/54
f 118/12/58 110/10/54 117/12/58
f 115/12/55 119/13/58 116/12/55
f 119/13/58 115/12/55 120/13/58
f 116/12/56 119/13/57 115/12/56
f 120/13/57 115/12/56 119/13/57
f 111/11/54 119/13/58 120/13/58
f 119/13/58 111/11/54 112/11/54
f 120/13/57 119/13/57 111/11/52
f 112/11/52 111/11/52 119/13/57
f 120/13/29 113/11/29 111/11/29
f 113/11/29 120/13/29 121/13/29
f 121/13/29 120/13/29 115/12/29
f 121/13/29 115/12/29 117/12/29
f 117/12/29 115/12/29 107/10/29
f 117/12/29 107/10/29 108/10/29
f 111/11/27 113/11/27 120/13/27
f 121/13/27 120/13/27 113/11/27
f 115/12/27 120/13/27 121/13/27
f 117/12/27 115/12/27 121/13/27
f 107/10/27 115/12/27 117/12/27
f 108/10/27 107/10/27 117/12/27
f 122/13/27 112/11/27 114/11/27
f 112/11/27 122/13/27 119/13/27
f 119/13/27 122/13/27 118/12/27
f 119/13/27 118/12/27 116/12/27
f 116/12/27 118/12/27 110/10/27
f 116/12/27 110/10/27 109/10/27
f 114/11/29 112/11/29 122/13/29
f 119/13/29 122/13/29 112/11/29
f 118/12/29 122/13/29 119/13/29
f 116/12/29 118/12/29 119/13/29
f 110/10/29 118/12/29 116/12/29
f 109/10/29 110/10/29 116/12/29
f 121/13/56 114/11/53 113/11/53
f 114/11/53 121/13/56 122/13/56
f 113/11/51 114/11/51 121/13/55
f 122/13/55 121/13/55 114/11/51
f 121/13/56 118/12/57 122/13/56
f 118/12/57 121/13/56 117/12/57
f 122/13/55 118/12/58 121/13/55
f 117/12/58 121/13/55 118/12/58
f 125/14/43 124/14/44 123/14/43
f 124/14/44 125/14/43 126/14/44
f 123/14/45 124/14/46 125/14/45
f 126/14/46 125/14/45 124/14/46
f 129/15/45 128/15/46 127/15/46
f 128/15/46 129/15/45 130/15/45
f 127/15/44 128/15/44 129/15/43
f 130/15/43 129/15/43 128/15/44
f 127/15/46 132/16/47 131/16/47
f 132/16/47 127/15/46 128/15/46
f 131/16/49 132/16/49 127/15/44
f 128/15/44 127/15/44 132/16/49
f 134/17/48 123/14/43 133/17/48
f 123/14/43 134/17/48 125/14/43
f 133/17/50 123/14/45 134/17/50
f 125/14/45 134/17/50 123/14/45
f 137/17/49 136/16/50 135/17/49
f 136/16/50 137/17/49 138/16/50
f 135/17/47 136/16/48 137/17/47
f 138/16/48 137/17/47 136/16/48
f 132/16/47 133/17/48 131/16/47
f 133/17/48 132/16/47 134/17/48
f 131/16/49 133/17/50 132/16/49
f 134/17/50 132/16/49 133/17/50
f 135/17/31 123/14/31 124/14/31
f 123/14/31 135/17/31 133/17/31
f 133/17/31 135/17/31 136/16/31
f 133/17/31 136/16/31 131/16/31
f 131/16/31 136/16/31 129/15/31
f 131/16/31 129/15/31 127/15/31
f 124/14/32 123/14/32 135/17/32
f 133/17/32 135/17/32 123/14/32
f 136/16/32 135/17/32 133/17/32
f 131/16/32 136/16/32 133/17/32
f 129/15/32 136/16/32 131/16/32
f 127/15/32 129/15/32 131/16/32
f 126/14/44 135/17/49 124/14/44
f 135/17/49 126/14/44 137/17/49
f 124/14/46 135/17/47 126/14/46
f 137/17/47 126/14/46 135/17/47
f 134/17/32 126/14/32 125/14/32
f 126/14/32 134/17/32 137/17/32
f 137/17/32 134/17/32 132/16/32
f 137/17/32 132/16/32 138/16/32
f 138/16/32 132/16/32 128/15/32
f 138/16/32 128/15/32 130/15/32
f 125/14/31 126/14/31 134/17/31
f 137/17/31 134/17/31 126/14/31
f 132/16/31 134/17/31 137/17/31
f 138/16/31 132/16/31 137/17/31
f 128/15/31 132/16/31 138/16/31
f 130/15/31 128/15/31 138/16/31
f 136/16/50 130/15/45 129/15/45
f 130/15/45 136/16/50 138/16/50
f 129/15/43 130/15/43 136/16/48
f 138/16/48 136/16/48 130/15/43
f 141/18/61 140/19/60 139/18/59
f 140/19/60 141/18/61 142/19/62
f 139/18/65 140/19/64 141/18/63
f 142/19/66 141/18/63 140/19/64
f 144/19/68 141/18/61 143/18/67
f 141/18/61 144/19/68 142/19/62
f 143/18/70 141/18/63 144/19/69
f 142/19/66 144/19/69 141/18/63
f 147/20/73 146/18/72 145/18/71
f 146/18/72 147/20/73 148/20/74
f 145/18/77 146/18/76 147/20/75
f 148/20/78 147/20/75 146/18/76
f 146/18/72 150/20/80 149/18/79
f 150/20/80 146/18/72 148/20/74
f 149/18/82 150/20/81 146/18/76
f 148/20/78 146/18/76 150/20/81
f 153/18/85 152/20/84 151/18/83
f 152/20/84 153/18/85 154/20/86
f 151/18/89 152/20/88 153/18/87
f 154/20/90 153/18/87 152/20/88
f 152/20/84 156/20/92 155/20/91
f 156/20/92 152/20/84 154/20/86
f 155/20/94 156/20/93 152/20/88
f 154/20/90 152/20/88 156/20/93
f 156/20/92 153/18/85 157/18/95
f 153/18/85 156/20/92 154/20/86
f 157/18/96 153/18/87 156/20/93
f 154/20/90 156/20/93 153/18/87
f 152/20/84 158/18/97 151/18/83
f 158/18/97 152/20/84 155/20/91
f 151/18/89 158/18/98 152/20/88
f 155/20/94 152/20/88 158/18/98
f 155/20/91 157/18/95 158/18/97
f 157/18/95 155/20/91 156/20/92
f 158/18/98 157/18/96 155/20/94
f 156/20/93 155/20/94 157/18/96
f 160/20/100 145/18/71 159/18/99
f 145/18/71 160/20/100 147/20/73
f 159/18/102 145/18/77 160/20/101
f 147/20/75 160/20/101 145/18/77
f 140/19/60 161/18/103 139/18/59
f 161/18/103 140/19/60 162/19/104
f 139/18/65 161/18/105 140/19/64
f 162/19/106 140/19/64 161/18/105
f 150/20/80 159/18/99 149/18/79
f 159/18/99 150/20/80 160/20/100
f 149/18/82 159/18/102 150/20/81
f 160/20/101 150/20/81 159/18/102
f 150/20/80 147/20/73 160/20/100
f 147/20/73 150/20/80 148/20/74
f 160/20/101 147/20/75 150/20/81
f 148/20/78 150/20/81 147/20/75
f 165/19/109 164/19/108 163/19/107
f 164/19/108 165/19/109 166/19/110
f 163/19/113 164/19/112 165/19/111
f 166/19/114 165/19/111 164/19/112
f 162/19/104 142/19/62 144/19/68
f 142/19/62 162/19/104 140/19/60
f 144/19/69 142/19/66 162/19/106
f 140/19/64 162/19/106 142/19/66
f 167/18/115 166/19/110 165/19/109
f 166/19/110 167/18/115 168/18/116
f 165/19/111 166/19/114 167/18/117
f 168/18/118 167/18/117 166/19/114
f 171/18/121 170/19/120 169/18/119
f 170/19/120 171/18/121 172/19/122
f 169/18/125 170/19/124 171/18/123
f 172/19/126 171/18/123 170/19/124
f 167/18/115 163/19/107 173/18/127
f 163/19/107 167/18/115 165/19/109
f 173/18/128 163/19/113 167/18/117
f 165/19/111 167/18/117 163/19/113
f 166/19/110 174/18/129 164/19/108
f 174/18/129 166/19/110 168/18/116
f 164/19/112 174/18/130 166/19/114
f 168/18/118 166/19/114 174/18/130
f 177/19/133 176/18/132 175/18/131
f 176/18/132 177/19/133 178/19/134
f 175/18/137 176/18/136 177/19/135
f 178/19/138 177/19/135 176/18/136
f 163/19/107 174/18/129 173/18/127
f 174/18/129 163/19/107 164/19/108
f 173/18/128 174/18/130 163/19/113
f 164/19/112 163/19/113 174/18/130
f 169/18/119 177/19/133 175/18/131
f 177/19/133 169/18/119 170/19/120
f 175/18/137 177/19/135 169/18/125
f 170/19/124 169/18/125 177/19/135
f 172/19/122 176/18/132 178/19/134
f 176/18/132 172/19/122 171/18/121
f 178/19/138 176/18/136 172/19/126
f 171/18/123 172/19/126 176/18/136
f 170/19/120 178/19/134 177/19/133
f 178/19/134 170/19/120 172/19/122
f 177/19/135 178/19/138 170/19/124
f 172/19/126 170/19/124 178/19/138
f 162/19/104 143/18/67 161/18/103
f 143/18/67 162/19/104 144/19/68
f 161/18/105 143/18/70 162/19/106
f 144/19/69 162/19/106 143/18/70
f 181/18/1 180/18/1 179/18/1
f 180/18/1 181/18/1 182/18/1
f 179/18/2 180/18/2 181/18/2
f 182/18/2 181/18/2 180/18/2

g corridor-junction




usemtl colormap

f 3/1/1 2/1/1 1/1/1
f 2/1/1 3/1/1 4/1/1
f 4/1/1 3/1/1 5/1/1
f 1/1/2 2/1/2 3/1/2
f 4/1/2 3/1/2 2/1/2
f 5/1/2 3/1/2 4/1/2
f 2/1/3 6/2/3 1/1/3
f 6/2/3 2/1/3 7/2/3
f 1/1/4 6/2/4 2/1/4
f 7/2/4 2/1/4 6/2/4
f 2/1/5 8/2/5 7/2/5
f 8/2/5 2/1/5 4/1/5
f 7/2/6 8/2/6 2/1/6
f 4/1/6 2/1/6 8/2/6
f 8/2/8 5/1/7 9/2/7
f 5/1/7 8/2/8 4/1/8
f 9/2/10 5/1/10 8/2/9
f 4/1/9 8/2/9 5/1/10
f 9/2/7 3/1/11 10/2/11
f 3/1/11 9/2/7 5/1/7
f 10/2/12 3/1/12 9/2/10
f 5/1/10 9/2/10 3/1/12
f 10/2/11 1/1/13 6/2/13
f 1/1/13 10/2/11 3/1/11
f 6/2/14 1/1/14 10/2/12
f 3/1/12 10/2/12 1/1/14
f 13/1/1 12/1/1 11/1/1
f 12/1/1 13/1/1 14/1/1
f 14/1/1 13/1/1 15/1/1
f 11/1/2 12/1/2 13/1/2
f 14/1/2 13/1/2 12/1/2
f 15/1/2 13/1/2 14/1/2
f 12/1/15 16/2/15 11/1/15
f 16/2/15 12/1/15 17/2/15
f 11/1/16 16/2/16 12/1/16
f 17/2/16 12/1/16 16/2/16
f 12/1/17 18/2/17 17/2/17
f 18/2/17 12/1/17 14/1/17
f 17/2/18 18/2/18 12/1/18
f 14/1/18 12/1/18 18/2/18
f 18/2/20 15/1/19 19/2/19
f 15/1/19 18/2/20 14/1/20
f 19/2/22 15/1/22 18/2/21
f 14/1/21 18/2/21 15/1/22
f 19/2/19 13/1/23 20/2/23
f 13/1/23 19/2/19 15/1/19
f 20/2/24 13/1/24 19/2/22
f 15/1/22 19/2/22 13/1/24
f 20/2/23 11/1/25 16/2/25
f 11/1/25 20/2/23 13/1/23
f 16/2/26 11/1/26 20/2/24
f 13/1/24 20/2/24 11/1/26
f 23/1/27 22/2/28 21/2/27
f 22/2/28 23/1/27 24/1/28
f 21/2/29 22/2/30 23/1/29
f 24/1/30 23/1/29 22/2/30
f 27/1/1 26/1/1 25/1/1
f 26/1/1 27/1/1 24/1/1
f 26/1/1 24/1/1 23/1/1
f 25/1/2 26/1/2 27/1/2
f 24/1/2 27/1/2 26/1/2
f 23/1/2 24/1/2 26/1/2
f 25/1/30 29/2/30 28/2/30
f 29/2/30 25/1/30 26/1/30
f 28/2/28 29/2/28 25/1/28
f 26/1/28 25/1/28 29/2/28
f 24/1/28 30/2/31 22/2/28
f 30/2/31 24/1/28 27/1/31
f 22/2/30 30/2/32 24/1/30
f 27/1/32 24/1/30 30/2/32
f 25/1/33 30/2/33 27/1/33
f 30/2/33 25/1/33 28/2/33
f 27/1/34 30/2/34 25/1/34
f 28/2/34 25/1/34 30/2/34
f 29/2/34 23/1/34 21/2/34
f 23/1/34 29/2/34 26/1/34
f 21/2/33 23/1/33 29/2/33
f 26/1/33 29/2/33 23/1/33
f 33/3/3 32/4/3 31/3/3
f 32/4/3 33/3/3 34/4/3
f 31/3/4 32/4/4 33/3/4
f 34/4/4 33/3/4 32/4/4
f 33/3/5 35/4/5 34/4/5
f 35/4/5 33/3/5 36/3/5
f 34/4/6 35/4/6 33/3/6
f 36/3/6 33/3/6 35/4/6
f 37/4/11 31/3/13 32/4/13
f 31/3/13 37/4/11 38/3/11
f 32/4/14 31/3/14 37/4/12
f 38/3/12 37/4/12 31/3/14
f 35/4/8 40/3/7 39/4/7
f 40/3/7 35/4/8 36/3/8
f 39/4/10 40/3/10 35/4/9
f 36/3/9 35/4/9 40/3/10
f 38/3/1 33/3/1 31/3/1
f 33/3/1 38/3/1 36/3/1
f 36/3/1 38/3/1 40/3/1
f 31/3/2 33/3/2 38/3/2
f 36/3/2 38/3/2 33/3/2
f 40/3/2 38/3/2 36/3/2
f 40/3/7 37/4/11 39/4/7
f 37/4/11 40/3/7 38/3/11
f 39/4/10 37/4/12 40/3/10
f 38/3/12 40/3/10 37/4/12
f 43/5/5 42/4/5 41/4/5
f 42/4/5 43/5/5 44/5/5
f 41/4/6 42/4/6 43/5/6
f 44/5/6 43/5/6 42/4/6
f 43/5/3 46/4/3 45/5/3
f 46/4/3 43/5/3 41/4/3
f 45/5/4 46/4/4 43/5/4
f 41/4/4 43/5/4 46/4/4
f 47/5/1 43/5/1 45/5/1
f 43/5/1 47/5/1 44/5/1
f 44/5/1 47/5/1 48/5/1
f 45/5/2 43/5/2 47/5/2
f 44/5/2 47/5/2 43/5/2
f 48/5/2 47/5/2 44/5/2
f 42/4/2 46/4/2 41/4/2
f 46/4/2 42/4/2 49/4/2
f 49/4/2 42/4/2 50/4/2
f 41/4/1 46/4/1 42/4/1
f 49/4/1 42/4/1 46/4/1
f 50/4/1 42/4/1 49/4/1
f 42/4/8 48/5/7 50/4/7
f 48/5/7 42/4/8 44/5/8
f 50/4/10 48/5/10 42/4/9
f 44/5/9 42/4/9 48/5/10
f 48/5/7 49/4/35 50/4/7
f 49/4/35 48/5/7 47/5/35
f 50/4/10 49/4/36 48/5/10
f 47/5/36 48/5/10 49/4/36
f 49/4/35 45/5/13 46/4/13
f 45/5/13 49/4/35 47/5/35
f 46/4/14 45/5/14 49/4/36
f 47/5/36 49/4/36 45/5/14
f 53/3/15 52/4/15 51/3/15
f 52/4/15 53/3/15 54/4/15
f 51/3/16 52/4/16 53/3/16
f 54/4/16 53/3/16 52/4/16
f 53/3/17 55/4/17 54/4/17
f 55/4/17 53/3/17 56/3/17
f 54/4/18 55/4/18 53/3/18
f 56/3/18 53/3/18 55/4/18
f 57/4/23 51/3/25 52/4/25
f 51/3/25 57/4/23 58/3/23
f 52/4/26 51/3/26 57/4/24
f 58/3/24 57/4/24 51/3/26
f 55/4/20 60/3/19 59/4/19
f 60/3/19 55/4/20 56/3/20
f 59/4/22 60/3/22 55/4/21
f 56/3/21 55/4/21 60/3/22
f 58/3/1 53/3/1 51/3/1
f 53/3/1 58/3/1 56/3/1
f 56/3/1 58/3/1 60/3/1
f 51/3/2 53/3/2 58/3/2
f 56/3/2 58/3/2 53/3/2
f 60/3/2 58/3/2 56/3/2
f 60/3/19 57/4/23 59/4/19
f 57/4/23 60/3/19 58/3/23
f 59/4/22 57/4/24 60/3/22
f 58/3/24 60/3/22 57/4/24
f 63/5/17 62/4/17 61/4/17
f 62/4/17 63/5/17 64/5/17
f 61/4/18 62/4/18 63/5/18
f 64/5/18 63/5/18 62/4/18
f 63/5/15 66/4/15 65/5/15
f 66/4/15 63/5/15 61/4/15
f 65/5/16 66/4/16 63/5/16
f 61/4/16 63/5/16 66/4/16
f 67/5/1 63/5/1 65/5/1
f 63/5/1 67/5/1 64/5/1
f 64/5/1 67/5/1 68/5/1
f 65/5/2 63/5/2 67/5/2
f 64/5/2 67/5/2 63/5/2
f 68/5/2 67/5/2 64/5/2
f 62/4/2 66/4/2 61/4/2
f 66/4/2 62/4/2 69/4/2
f 69/4/2 62/4/2 70/4/2
f 61/4/1 66/4/1 62/4/1
f 69/4/1 62/4/1 66/4/1
f 70/4/1 62/4/1 69/4/1
f 62/4/20 68/5/19 70/4/19
f 68/5/19 62/4/20 64/5/20
f 70/4/22 68/5/22 62/4/21
f 64/5/21 62/4/21 68/5/22
f 68/5/19 69/4/37 70/4/19
f 69/4/37 68/5/19 67/5/37
f 70/4/22 69/4/38 68/5/22
f 67/5/38 68/5/22 69/4/38
f 69/4/37 65/5/25 66/4/25
f 65/5/25 69/4/37 67/5/37
f 66/4/26 65/5/26 69/4/38
f 67/5/38 69/4/38 65/5/26
f 73/5/33 72/4/33 71/5/33
f 72/4/33 73/5/33 74/4/33
f 71/5/34 72/4/34 73/5/34
f 74/4/34 73/5/34 72/4/34
f 77/5/39 76/4/28 75/4/39
f 76/4/28 77/5/39 78/5/28
f 75/4/40 76/4/30 77/5/40
f 78/5/30 77/5/40 76/4/30
f 73/5/30 79/4/30 74/4/30
f 79/4/30 73/5/30 80/5/30
f 74/4/28 79/4/28 73/5/28
f 80/5/28 73/5/28 79/4/28
f 78/5/28 72/4/41 76/4/28
f 72/4/41 78/5/28 71/5/41
f 76/4/30 72/4/42 78/5/30
f 71/5/42 78/5/30 72/4/42
f 79/4/2 72/4/2 74/4/2
f 72/4/2 79/4/2 76/4/2
f 76/4/2 79/4/2 75/4/2
f 74/4/1 72/4/1 79/4/1
f 76/4/1 79/4/1 72/4/1
f 75/4/1 79/4/1 76/4/1
f 71/5/1 80/5/1 73/5/1
f 80/5/1 71/5/1 78/5/1
f 80/5/1 78/5/1 77/5/1
f 73/5/2 80/5/2 71/5/2
f 78/5/2 71/5/2 80/5/2
f 77/5/2 78/5/2 80/5/2
f 79/4/34 77/5/34 75/4/34
f 77/5/34 79/4/34 80/5/34
f 75/4/33 77/5/33 79/4/33
f 80/5/33 79/4/33 77/5/33
f 83/3/27 82/4/28 81/4/27
f 82/4/28 83/3/27 84/3/28
f 81/4/29 82/4/30 83/3/29
f 84/3/30 83/3/29 82/4/30
f 84/3/28 85/4/31 82/4/28
f 85/4/31 84/3/28 86/3/31
f 82/4/30 85/4/32 84/3/30
f 86/3/32 84/3/30 85/4/32
f 87/3/33 85/4/33 86/3/33
f 85/4/33 87/3/33 88/4/33
f 86/3/34 85/4/34 87/3/34
f 88/4/34 87/3/34 85/4/34
f 86/3/1 89/3/1 87/3/1
f 89/3/1 86/3/1 84/3/1
f 89/3/1 84/3/1 83/3/1
f 87/3/2 89/3/2 86/3/2
f 84/3/2 86/3/2 89/3/2
f 83/3/2 84/3/2 89/3/2
f 87/3/30 90/4/30 88/4/30
f 90/4/30 87/3/30 89/3/30
f 88/4/28 90/4/28 87/3/28
f 89/3/28 87/3/28 90/4/28
f 90/4/34 83/3/34 81/4/34
f 83/3/34 90/4/34 89/3/34
f 81/4/33 83/3/33 90/4/33
f 89/3/33 90/4/33 83/3/33
f 93/6/43 92/6/44 91/6/43
f 92/6/44 93/6/43 94/6/44
f 91/6/45 92/6/46 93/6/45
f 94/6/46 93/6/45 92/6/46
f 97/7/45 96/7/46 95/7/46
f 96/7/46 97/7/45 98/7/45
f 95/7/44 96/7/44 97/7/43
f 98/7/43 97/7/43 96/7/44
f 101/8/47 100/9/48 99/8/47
f 100/9/48 101/8/47 102/9/48
f 99/8/49 100/9/50 101/8/49
f 102/9/50 101/8/49 100/9/50
f 105/9/49 104/8/50 103/9/49
f 104/8/50 105/9/49 106/8/50
f 103/9/47 104/8/48 105/9/47
f 106/8/48 105/9/47 104/8/48
f 95/7/46 101/8/47 99/8/47
f 101/8/47 95/7/46 96/7/46
f 99/8/49 101/8/49 95/7/44
f 96/7/44 95/7/44 101/8/49
f 102/9/48 91/6/43 100/9/48
f 91/6/43 102/9/48 93/6/43
f 100/9/50 91/6/45 102/9/50
f 93/6/45 102/9/50 91/6/45
f 103/9/31 91/6/31 92/6/31
f 91/6/31 103/9/31 100/9/31
f 100/9/31 103/9/31 104/8/31
f 100/9/31 104/8/31 99/8/31
f 99/8/31 104/8/31 97/7/31
f 99/8/31 97/7/31 95/7/31
f 92/6/32 91/6/32 103/9/32
f 100/9/32 103/9/32 91/6/32
f 104/8/32 103/9/32 100/9/32
f 99/8/32 104/8/32 100/9/32
f 97/7/32 104/8/32 99/8/32
f 95/7/32 97/7/32 99/8/32
f 102/9/32 94/6/32 93/6/32
f 94/6/32 102/9/32 105/9/32
f 105/9/32 102/9/32 101/8/32
f 105/9/32 101/8/32 106/8/32
f 106/8/32 101/8/32 96/7/32
f 106/8/32 96/7/32 98/7/32
f 93/6/31 94/6/31 102/9/31
f 105/9/31 102/9/31 94/6/31
f 101/8/31 102/9/31 105/9/31
f 106/8/31 101/8/31 105/9/31
f 96/7/31 101/8/31 106/8/31
f 98/7/31 96/7/31 106/8/31
f 94/6/44 103/9/49 92/6/44
f 103/9/49 94/6/44 105/9/49
f 92/6/46 103/9/47 94/6/46
f 105/9/47 94/6/46 103/9/47
f 104/8/50 98/7/45 97/7/45
f 98/7/45 104/8/50 106/8/50
f 97/7/43 98/7/43 104/8/48
f 106/8/48 104/8/48 98/7/43
f 109/10/51 108/10/52 107/10/51
f 108/10/52 109/10/51 110/10/52
f 107/10/53 108/10/54 109/10/53
f 110/10/54 109/10/53 108/10/54
f 113/11/53 112/11/54 111/11/54
f 112/11/54 113/11/53 114/11/53
f 111/11/52 112/11/52 113/11/51
f 114/11/51 113/11/51 112/11/52
f 116/12/55 107/10/51 115/12/55
f 107/10/51 116/12/55 109/10/51
f 115/12/56 107/10/53 116/12/56
f 109/10/53 116/12/56 107/10/53
f 110/10/52 117/12/57 108/10/52
f 117/12/57 110/10/52 118/12/57
f 108/10/54 117/12/58 110/10/54
f 118/12/58 110/10/54 117/12/58
f 115/12/55 119/13/58 116/12/55
f 119/13/58 115/12/55 120/13/58
f 116/12/56 119/13/57 115/12/56
f 120/13/57 115/12/56 119/13/57
f 111/11/54 119/13/58 120/13/58
f 119/13/58 111/11/54 112/11/54
f 120/13/57 119/13/57 111/11/52
f 112/11/52 111/11/52 119/13/57
f 120/13/29 113/11/29 111/11/29
f 113/11/29 120/13/29 121/13/29
f 121/13/29 120/13/29 115/12/29
f 121/13/29 115/12/29 117/12/29
f 117/12/29 115/12/29 107/10/29
f 117/12/29 107/10/29 108/10/29
f 111/11/27 113/11/27 120/13/27
f 121/13/27 120/13/27 113/11/27
f 115/12/27 120/13/27 121/13/27
f 117/12/27 115/12/27 121/13/27
f 107/10/27 115/12/27 117/12/27
f 108/10/27 107/10/27 117/12/27
f 122/13/27 112/11/27 114/11/27
f 112/11/27 122/13/27 119/13/27
f 119/13/27 122/13/27 118/12/27
f 119/13/27 118/12/27 116/12/27
f 116/12/27 118/12/27 110/10/27
f 116/12/27 110/10/27 109/10/27
f 114/11/29 112/11/29 122/13/29
f 119/13/29 122/13/29 112/11/29
f 118/12/29 122/13/29 119/13/29
f 116/12/29 118/12/29 119/13/29
f 110/10/29 118/12/29 116/12/29
f 109/10/29 110/10/29 116/12/29
f 121/13/56 114/11/53 113/11/53
f 114/11/53 121/13/56 122/13/56
f 113/11/51 114/11/51 121/13/55
f 122/13/55 121/13/55 114/11/51
f 121/13/56 118/12/57 122/13/56
f 118/12/57 121/13/56 117/12/57
f 122/13/55 118/12/58 121/13/55
f 117/12/58 121/13/55 118/12/58
f 125/14/43 124/14/44 123/14/43
f 124/14/44 125/14/43 126/14/44
f 123/14/45 124/14/46 125/14/45
f 126/14/46 125/14/45 124/14/46
f 129/15/45 128/15/46 127/15/46
f 128/15/46 129/15/45 130/15/45
f 127/15/44 128/15/44 129/15/43
f 130/15/43 129/15/43 128/15/44
f 127/15/46 132/16/47 131/16/47
f 132/16/47 127/15/46 128/15/46
f 131/16/49 132/16/49 127/15/44
f 128/15/44 127/15/44 132/16/49
f 134/17/48 123/14/43 133/17/48
f 123/14/43 134/17/48 125/14/43
f 133/17/50 123/14/45 134/17/50
f 125/14/45 134/17/50 123/14/45
f 137/17/49 136/16/50 135/17/49
f 136/16/50 137/17/49 138/16/50
f 135/17/47 136/16/48 137/17/47
f 138/16/48 137/17/47 136/16/48
f 132/16/47 133/17/48 131/16/47
f 133/17/48 132/16/47 134/17/48
f 131/16/49 133/17/50 132/16/49
f 134/17/50 132/16/49 133/17/50
f 135/17/31 123/14/31 124/14/31
f 123/14/31 135/17/31 133/17/31
f 133/17/31 135/17/31 136/16/31
f 133/17/31 136/16/31 131/16/31
f 131/16/31 136/16/31 129/15/31
f 131/16/31 129/15/31 127/15/31
f 124/14/32 123/14/32 135/17/32
f 133/17/32 135/17/32 123/14/32
f 136/16/32 135/17/32 133/17/32
f 131/16/32 136/16/32 133/17/32
f 129/15/32 136/16/32 131/16/32
f 127/15/32 129/15/32 131/16/32
f 126/14/44 135/17/49 124/14/44
f 135/17/49 126/14/44 137/17/49
f 124/14/46 135/17/47 126/14/46
f 137/17/47 126/14/46 135/17/47
f 134/17/32 126/14/32 125/14/32
f 126/14/32 134/17/32 137/17/32
f 137/17/32 134/17/32 132/16/32
f 137/17/32 132/16/32 138/16/32
f 138/16/32 132/16/32 128/15/32
f 138/16/32 128/15/32 130/15/32
f 125/14/31 126/14/31 134/17/31
f 137/17/31 134/17/31 126/14/31
f 132/16/31 134/17/31 137/17/31
f 138/16/31 132/16/31 137/17/31
f 128/15/31 132/16/31 138/16/31
f 130/15/31 128/15/31 138/16/31
f 136/16/50 130/15/45 129/15/45
f 130/15/45 136/16/50 138/16/50
f 129/15/43 130/15/43 136/16/48
f 138/16/48 136/16/48 130/15/43
f 141/18/61 140/19/60 139/18/59
f 140/19/60 141/18/61 142/19/62
f 139/18/65 140/19/64 141/18/63
f 142/19/66 141/18/63 140/19/64
f 144/19/68 141/18/61 143/18/67
f 141/18/61 144/19/68 142/19/62
f 143/18/70 141/18/63 144/19/69
f 142/19/66 144/19/69 141/18/63
f 147/20/73 146/18/72 145/18/71
f 146/18/72 147/20/73 148/20/74
f 145/18/77 146/18/76 147/20/75
f 148/20/78 147/20/75 146/18/76
f 146/18/72 150/20/80 149/18/79
f 150/20/80 146/18/72 148/20/74
f 149/18/82 150/20/81 146/18/76
f 148/20/78 146/18/76 150/20/81
f 153/18/85 152/20/84 151/18/83
f 152/20/84 153/18/85 154/20/86
f 151/18/89 152/20/88 153/18/87
f 154/20/90 153/18/87 152/20/88
f 152/20/84 156/20/92 155/20/91
f 156/20/92 152/20/84 154/20/86
f 155/20/94 156/20/93 152/20/88
f 154/20/90 152/20/88 156/20/93
f 156/20/92 153/18/85 157/18/95
f 153/18/85 156/20/92 154/20/86
f 157/18/96 153/18/87 156/20/93
f 154/20/90 156/20/93 153/18/87
f 152/20/84 158/18/97 151/18/83
f 158/18/97 152/20/84 155/20/91
f 151/18/89 158/18/98 152/20/88
f 155/20/94 152/20/88 158/18/98
f 155/20/91 157/18/95 158/18/97
f 157/18/95 155/20/91 156/20/92
f 158/18/98 157/18/96 155/20/94
f 156/20/93 155/20/94 157/18/96
f 160/20/100 145/18/71 159/18/99
f 145/18/71 160/20/100 147/20/73
f 159/18/102 145/18/77 160/20/101
f 147/20/75 160/20/101 145/18/77
f 140/19/60 161/18/103 139/18/59
f 161/18/103 140/19/60 162/19/104
f 139/18/65 161/18/105 140/19/64
f 162/19/106 140/19/64 161/18/105
f 150/20/80 159/18/99 149/18/79
f 159/18/99 150/20/80 160/20/100
f 149/18/82 159/18/102 150/20/81
f 160/20/101 150/20/81 159/18/102
f 150/20/80 147/20/73 160/20/100
f 147/20/73 150/20/80 148/20/74
f 160/20/101 147/20/75 150/20/81
f 148/20/78 150/20/81 147/20/75
f 165/19/109 164/19/108 163/19/107
f 164/19/108 165/19/109 166/19/110
f 163/19/113 164/19/112 165/19/111
f 166/19/114 165/19/111 164/19/112
f 162/19/104 142/19/62 144/19/68
f 142/19/62 162/19/104 140/19/60
f 144/19/69 142/19/66 162/19/106
f 140/19/64 162/19/106 142/19/66
f 167/18/115 166/19/110 165/19/109
f 166/19/110 167/18/115 168/18/116
f 165/19/111 166/19/114 167/18/117
f 168/18/118 167/18/117 166/19/114
f 171/18/121 170/19/120 169/18/119
f 170/19/120 171/18/121 172/19/122
f 169/18/125 170/19/124 171/18/123
f 172/19/126 171/18/123 170/19/124
f 167/18/115 163/19/107 173/18/127
f 163/19/107 167/18/115 165/19/109
f 173/18/128 163/19/113 167/18/117
f 165/19/111 167/18/117 163/19/113
f 166/19/110 174/18/129 164/19/108
f 174/18/129 166/19/110 168/18/116
f 164/19/112 174/18/130 166/19/114
f 168/18/118 166/19/114 174/18/130
f 177/19/133 176/18/132 175/18/131
f 176/18/132 177/19/133 178/19/134
f 175/18/137 176/18/136 177/19/135
f 178/19/138 177/19/135 176/18/136
f 163/19/107 174/18/129 173/18/127
f 174/18/129 163/19/107 164/19/108
f 173/18/128 174/18/130 163/19/113
f 164/19/112 163/19/113 174/18/130
f 169/18/119 177/19/133 175/18/131
f 177/19/133 169/18/119 170/19/120
f 175/18/137 177/19/135 169/18/125
f 170/19/124 169/18/125 177/19/135
f 172/19/122 176/18/132 178/19/134
f 176/18/132 172/19/122 171/18/121
f 178/19/138 176/18/136 172/19/126
f 171/18/123 172/19/126 176/18/136
f 170/19/120 178/19/134 177/19/133
f 178/19/134 170/19/120 172/19/122
f 177/19/135 178/19/138 170/19/124
f 172/19/126 170/19/124 178/19/138
f 162/19/104 143/18/67 161/18/103
f 143/18/67 162/19/104 144/19/68
f 161/18/105 143/18/70 162/19/106
f 144/19/69 162/19/106 143/18/70
f 181/18/1 180/18/1 179/18/1
f 180/18/1 181/18/1 182/18/1
f 179/18/2 180/18/2 181/18/2
f 182/18/2 181/18/2 180/18/2

