# Created by Kenney (www.kenney.nl)

mtllib corridor-intersection.mtl

g corridor-intersection

v 2 0 -2 1 1 1
v 2 0 2 1 1 1
v -2 0 -2 1 1 1
v -2 0 2 1 1 1
v 2 0.9 1.399002 1 1 1
v 2 0.9 2 1 1 1
v 1.699501 0.9 1.479521 1 1 1
v 1.399002 0.9 2 1 1 1
v 1.479521 0.9 1.699501 1 1 1
v 2 0.2 1.399002 1 1 1
v 2 0.2 2 1 1 1
v 1.399002 0.2 2 1 1 1
v 1.479521 0.2 1.699501 1 1 1
v 1.699501 0.2 1.479521 1 1 1
v -1.399002 0.9 2 1 1 1
v -2 0.9 2 1 1 1
v -1.479521 0.9 1.699501 1 1 1
v -2 0.9 1.399002 1 1 1
v -1.699501 0.9 1.479521 1 1 1
v -1.399002 0.2 2 1 1 1
v -2 0.2 2 1 1 1
v -2 0.2 1.399002 1 1 1
v -1.699501 0.2 1.479521 1 1 1
v -1.479521 0.2 1.699501 1 1 1
v -2 0.9 -1.399002 1 1 1
v -2 0.9 -2 1 1 1
v -1.699501 0.9 -1.479521 1 1 1
v -1.399002 0.9 -2 1 1 1
v -1.479521 0.9 -1.699501 1 1 1
v -2 0.2 -1.399002 1 1 1
v -2 0.2 -2 1 1 1
v -1.399002 0.2 -2 1 1 1
v -1.479521 0.2 -1.699501 1 1 1
v -1.699501 0.2 -1.479521 1 1 1
v 1.399002 0.9 -2 1 1 1
v 2 0.9 -2 1 1 1
v 1.479521 0.9 -1.699501 1 1 1
v 2 0.9 -1.399002 1 1 1
v 1.699501 0.9 -1.479521 1 1 1
v 1.399002 0.2 -2 1 1 1
v 2 0.2 -2 1 1 1
v 2 0.2 -1.399002 1 1 1
v 1.699501 0.2 -1.479521 1 1 1
v 1.479521 0.2 -1.699501 1 1 1
v 1.999999 4.05 1.6 1 1 1
v 1.999999 0.9 1.6 1 1 1
v 1.999999 4.05 2 1 1 1
v 1.999999 0.9 2 1 1 1
v 1.599999 0.9 2 1 1 1
v 1.599999 4.05 2 1 1 1
v 1.799999 0.9 1.65359 1 1 1
v 1.799999 4.05 1.65359 1 1 1
v 1.653589 0.9 1.8 1 1 1
v 1.653589 4.05 1.8 1 1 1
v 1.999998 -1.707772E-14 2 1 1 1
v 0.998003 -1.707772E-14 2 1 1 1
v 1.999998 0.2 2 1 1 1
v 0.998003 0.2 2 1 1 1
v 1.999998 0.2 0.9980049 1 1 1
v 1.999998 -1.707772E-14 0.9980049 1 1 1
v 1.499001 0.2 1.132247 1 1 1
v 1.132245 0.2 1.499002 1 1 1
v 1.499001 -1.635581E-14 1.132247 1 1 1
v 1.132245 -1.635581E-14 1.499002 1 1 1
v -1.599999 4.05 2 1 1 1
v -1.599999 0.9 2 1 1 1
v -1.999999 4.05 2 1 1 1
v -1.999999 0.9 2 1 1 1
v -1.999999 0.9 1.6 1 1 1
v -1.999999 4.05 1.6 1 1 1
v -1.653589 0.9 1.8 1 1 1
v -1.653589 4.05 1.8 1 1 1
v -1.799999 0.9 1.65359 1 1 1
v -1.799999 4.05 1.65359 1 1 1
v -1.999998 -1.707772E-14 2 1 1 1
v -1.999998 -1.707772E-14 0.9980048 1 1 1
v -1.999998 0.2 2 1 1 1
v -1.999998 0.2 0.9980048 1 1 1
v -0.998003 0.2 2 1 1 1
v -0.998003 -1.707772E-14 2 1 1 1
v -1.132245 0.2 1.499002 1 1 1
v -1.499001 0.2 1.132247 1 1 1
v -1.132245 -1.635581E-14 1.499002 1 1 1
v -1.499001 -1.635581E-14 1.132247 1 1 1
v -1.999999 4.05 -1.6 1 1 1
v -1.999999 0.9 -1.6 1 1 1
v -1.999999 4.05 -2 1 1 1
v -1.999999 0.9 -2 1 1 1
v -1.599999 0.9 -2 1 1 1
v -1.599999 4.05 -2 1 1 1
v -1.799999 0.9 -1.65359 1 1 1
v -1.799999 4.05 -1.65359 1 1 1
v -1.653589 0.9 -1.8 1 1 1
v -1.653589 4.05 -1.8 1 1 1
v -1.999998 -1.707772E-14 -2 1 1 1
v -0.998003 -1.707772E-14 -2 1 1 1
v -1.999998 0.2 -2 1 1 1
v -0.998003 0.2 -2 1 1 1
v -1.999998 0.2 -0.9980049 1 1 1
v -1.999998 -1.707772E-14 -0.9980049 1 1 1
v -1.499001 0.2 -1.132247 1 1 1
v -1.132245 0.2 -1.499002 1 1 1
v -1.499001 -1.635581E-14 -1.132247 1 1 1
v -1.132245 -1.635581E-14 -1.499002 1 1 1
v 1.599999 4.05 -2 1 1 1
v 1.599999 0.9 -2 1 1 1
v 1.999999 4.05 -2 1 1 1
v 1.999999 0.9 -2 1 1 1
v 1.999999 0.9 -1.6 1 1 1
v 1.999999 4.05 -1.6 1 1 1
v 1.653589 0.9 -1.8 1 1 1
v 1.653589 4.05 -1.8 1 1 1
v 1.799999 0.9 -1.65359 1 1 1
v 1.799999 4.05 -1.65359 1 1 1
v 1.999998 -1.707772E-14 -2 1 1 1
v 1.999998 -1.707772E-14 -0.9980049 1 1 1
v 1.999998 0.2 -2 1 1 1
v 1.999998 0.2 -0.9980049 1 1 1
v 0.9980029 0.2 -2 1 1 1
v 0.9980029 -1.707772E-14 -2 1 1 1
v 1.132245 0.2 -1.499002 1 1 1
v 1.499001 0.2 -1.132247 1 1 1
v 1.132245 -1.635581E-14 -1.499002 1 1 1
v 1.499001 -1.635581E-14 -1.132247 1 1 1

vn 0 1 0
vn 0 -1 0
vn 1 0 0
vn -1 0 0
vn 0 0 1
vn 0 0 -1
vn -0.8660254 0 -0.5
vn -0.9659258 0 -0.258819
vn 0.9659258 0 0.258819
vn 0.8660254 0 0.5
vn -0.5 0 -0.8660254
vn 0.5 0 0.8660254
vn -0.258819 0 -0.9659258
vn 0.258819 0 0.9659258
vn -1.192093E-07 0 1
vn 1.192093E-07 0 -1
vn -1 0 -1.192093E-07
vn 1 0 1.192093E-07
vn 0.5000002 0 -0.8660255
vn 0.2588192 0 -0.9659259
vn -0.2588192 0 0.9659259
vn -0.5000002 0 0.8660255
vn 0.8660256 0 -0.5
vn -0.8660256 0 0.5
vn 0.965926 0 -0.2588189
vn -0.965926 0 0.2588189
vn -1 0 3.314016E-14
vn 1 0 -3.314016E-14
vn -3.314016E-14 0 -1
vn 3.314016E-14 0 1
vn -1.192093E-07 0 -1
vn 1.192093E-07 0 1
vn 1 0 -1.192093E-07
vn -1 0 1.192093E-07
vn -0.5 0 0.8660256
vn -0.258819 0 0.965926
vn 0.258819 0 -0.965926
vn 0.5 0 -0.8660256
vn -0.8660255 0 0.5000002
vn 0.8660255 0 -0.5000002
vn -0.9659259 0 0.2588192
vn 0.9659259 0 -0.2588192
vn -0.5 0 -0.8660254
vn 0.5 0 0.8660254
vn 0.8660256 0 -0.4999999
vn -0.8660256 0 0.4999999
vn -0.8660255 0 0.5000001
vn 0.8660255 0 -0.5000001

vt 0.46875 0.025
vt 0.09375 0.225
vt 0.09375 0.025
vt 0.34375 0.225
vt 0.34375 0.025
vt 0.34375 0.105

usemtl colormap

f 3/1/1 2/1/1 1/1/1
f 2/1/1 3/1/1 4/1/1
f 1/1/2 2/1/2 3/1/2
f 4/1/2 3/1/2 2/1/2
f 7/2/1 6/2/1 5/2/1
f 6/2/1 7/2/1 8/2/1
f 8/2/1 7/2/1 9/2/1
f 5/2/2 6/2/2 7/2/2
f 8/2/2 7/2/2 6/2/2
f 9/2/2 7/2/2 8/2/2
f 6/2/3 10/3/3 5/2/3
f 10/3/3 6/2/3 11/3/3
f 5/2/4 10/3/4 6/2/4
f 11/3/4 6/2/4 10/3/4
f 6/2/5 12/3/5 11/3/5
f 12/3/5 6/2/5 8/2/5
f 11/3/6 12/3/6 6/2/6
f 8/2/6 6/2/6 12/3/6
f 12/3/8 9/2/7 13/3/7
f 9/2/7 12/3/8 8/2/8
f 13/3/10 9/2/10 12/3/9
f 8/2/9 12/3/9 9/2/10
f 13/3/7 7/2/11 14/3/11
f 7/2/11 13/3/7 9/2/7
f 14/3/12 7/2/12 13/3/10
f 9/2/10 13/3/10 7/2/12
f 14/3/11 5/2/13 10/3/13
f 5/2/13 14/3/11 7/2/11
f 10/3/14 5/2/14 14/3/12
f 7/2/12 14/3/12 5/2/14
f 17/2/1 16/2/1 15/2/1
f 16/2/1 17/2/1 18/2/1
f 18/2/1 17/2/1 19/2/1
f 15/2/2 16/2/2 17/2/2
f 18/2/2 17/2/2 16/2/2
f 19/2/2 17/2/2 18/2/2
f 16/2/15 20/3/15 15/2/15
f 20/3/15 16/2/15 21/3/15
f 15/2/16 20/3/16 16/2/16
f 21/3/16 16/2/16 20/3/16
f 16/2/17 22/3/17 21/3/17
f 22/3/17 16/2/17 18/2/17
f 21/3/18 22/3/18 16/2/18
f 18/2/18 16/2/18 22/3/18
f 22/3/20 19/2/19 23/3/19
f 19/2/19 22/3/20 18/2/20
f 23/3/22 19/2/22 22/3/21
f 18/2/21 22/3/21 19/2/22
f 23/3/19 17/2/23 24/3/23
f 17/2/23 23/3/19 19/2/19
f 24/3/24 17/2/24 23/3/22
f 19/2/22 23/3/22 17/2/24
f 24/3/23 15/2/25 20/3/25
f 15/2/25 24/3/23 17/2/23
f 20/3/26 15/2/26 24/3/24
f 17/2/24 24/3/24 15/2/26
f 27/2/1 26/2/1 25/2/1
f 26/2/1 27/2/1 28/2/1
f 28/2/1 27/2/1 29/2/1
f 25/2/2 26/2/2 27/2/2
f 28/2/2 27/2/2 26/2/2
f 29/2/2 27/2/2 28/2/2
f 26/2/27 30/3/27 25/2/27
f 30/3/27 26/2/27 31/3/27
f 25/2/28 30/3/28 26/2/28
f 31/3/28 26/2/28 30/3/28
f 26/2/29 32/3/29 31/3/29
f 32/3/29 26/2/29 28/2/29
f 31/3/30 32/3/30 26/2/30
f 28/2/30 26/2/30 32/3/30
f 32/3/9 29/2/10 33/3/10
f 29/2/10 32/3/9 28/2/9
f 33/3/7 29/2/7 32/3/8
f 28/2/8 32/3/8 29/2/7
f 33/3/10 27/2/12 34/3/12
f 27/2/12 33/3/10 29/2/10
f 34/3/11 27/2/11 33/3/7
f 29/2/7 33/3/7 27/2/11
f 34/3/12 25/2/14 30/3/14
f 25/2/14 34/3/12 27/2/12
f 30/3/13 25/2/13 34/3/11
f 27/2/11 34/3/11 25/2/13
f 37/2/1 36/2/1 35/2/1
f 36/2/1 37/2/1 38/2/1
f 38/2/1 37/2/1 39/2/1
f 35/2/2 36/2/2 37/2/2
f 38/2/2 37/2/2 36/2/2
f 39/2/2 37/2/2 38/2/2
f 36/2/31 40/3/31 35/2/31
f 40/3/31 36/2/31 41/3/31
f 35/2/32 40/3/32 36/2/32
f 41/3/32 36/2/32 40/3/32
f 36/2/33 42/3/33 41/3/33
f 42/3/33 36/2/33 38/2/33
f 41/3/34 42/3/34 36/2/34
f 38/2/34 36/2/34 42/3/34
f 42/3/36 39/2/35 43/3/35
f 39/2/35 42/3/36 38/2/36
f 43/3/38 39/2/38 42/3/37
f 38/2/37 42/3/37 39/2/38
f 43/3/35 37/2/39 44/3/39
f 37/2/39 43/3/35 39/2/35
f 44/3/40 37/2/40 43/3/38
f 39/2/38 43/3/38 37/2/40
f 44/3/39 35/2/41 40/3/41
f 35/2/41 44/3/39 37/2/39
f 40/3/42 35/2/42 44/3/40
f 37/2/40 44/3/40 35/2/42
f 47/4/3 46/5/3 45/4/3
f 46/5/3 47/4/3 48/5/3
f 45/4/4 46/5/4 47/4/4
f 48/5/4 47/4/4 46/5/4
f 47/4/5 49/5/5 48/5/5
f 49/5/5 47/4/5 50/4/5
f 48/5/6 49/5/6 47/4/6
f 50/4/6 47/4/6 49/5/6
f 51/5/11 45/4/13 46/5/13
f 45/4/13 51/5/11 52/4/11
f 46/5/14 45/4/14 51/5/12
f 52/4/12 51/5/12 45/4/14
f 49/5/8 54/4/7 53/5/7
f 54/4/7 49/5/8 50/4/8
f 53/5/10 54/4/10 49/5/9
f 50/4/9 49/5/9 54/4/10
f 52/4/1 47/4/1 45/4/1
f 47/4/1 52/4/1 50/4/1
f 50/4/1 52/4/1 54/4/1
f 45/4/2 47/4/2 52/4/2
f 50/4/2 52/4/2 47/4/2
f 54/4/2 52/4/2 50/4/2
f 54/4/7 51/5/11 53/5/7
f 51/5/11 54/4/7 52/4/11
f 53/5/10 51/5/12 54/4/10
f 52/4/12 54/4/10 51/5/12
f 57/6/5 56/5/5 55/5/5
f 56/5/5 57/6/5 58/6/5
f 55/5/6 56/5/6 57/6/6
f 58/6/6 57/6/6 56/5/6
f 57/6/3 60/5/3 59/6/3
f 60/5/3 57/6/3 55/5/3
f 59/6/4 60/5/4 57/6/4
f 55/5/4 57/6/4 60/5/4
f 61/6/1 57/6/1 59/6/1
f 57/6/1 61/6/1 58/6/1
f 58/6/1 61/6/1 62/6/1
f 59/6/2 57/6/2 61/6/2
f 58/6/2 61/6/2 57/6/2
f 62/6/2 61/6/2 58/6/2
f 56/5/2 60/5/2 55/5/2
f 60/5/2 56/5/2 63/5/2
f 63/5/2 56/5/2 64/5/2
f 55/5/1 60/5/1 56/5/1
f 63/5/1 56/5/1 60/5/1
f 64/5/1 56/5/1 63/5/1
f 56/5/8 62/6/7 64/5/7
f 62/6/7 56/5/8 58/6/8
f 64/5/10 62/6/10 56/5/9
f 58/6/9 56/5/9 62/6/10
f 62/6/7 63/5/43 64/5/7
f 63/5/43 62/6/7 61/6/43
f 64/5/10 63/5/44 62/6/10
f 61/6/44 62/6/10 63/5/44
f 63/5/43 59/6/13 60/5/13
f 59/6/13 63/5/43 61/6/43
f 60/5/14 59/6/14 63/5/44
f 61/6/44 63/5/44 59/6/14
f 67/4/15 66/5/15 65/4/15
f 66/5/15 67/4/15 68/5/15
f 65/4/16 66/5/16 67/4/16
f 68/5/16 67/4/16 66/5/16
f 67/4/17 69/5/17 68/5/17
f 69/5/17 67/4/17 70/4/17
f 68/5/18 69/5/18 67/4/18
f 70/4/18 67/4/18 69/5/18
f 71/5/23 65/4/25 66/5/25
f 65/4/25 71/5/23 72/4/23
f 66/5/26 65/4/26 71/5/24
f 72/4/24 71/5/24 65/4/26
f 69/5/20 74/4/19 73/5/19
f 74/4/19 69/5/20 70/4/20
f 73/5/22 74/4/22 69/5/21
f 70/4/21 69/5/21 74/4/22
f 72/4/1 67/4/1 65/4/1
f 67/4/1 72/4/1 70/4/1
f 70/4/1 72/4/1 74/4/1
f 65/4/2 67/4/2 72/4/2
f 70/4/2 72/4/2 67/4/2
f 74/4/2 72/4/2 70/4/2
f 74/4/19 71/5/23 73/5/19
f 71/5/23 74/4/19 72/4/23
f 73/5/22 71/5/24 74/4/22
f 72/4/24 74/4/22 71/5/24
f 77/6/17 76/5/17 75/5/17
f 76/5/17 77/6/17 78/6/17
f 75/5/18 76/5/18 77/6/18
f 78/6/18 77/6/18 76/5/18
f 77/6/15 80/5/15 79/6/15
f 80/5/15 77/6/15 75/5/15
f 79/6/16 80/5/16 77/6/16
f 75/5/16 77/6/16 80/5/16
f 81/6/1 77/6/1 79/6/1
f 77/6/1 81/6/1 78/6/1
f 78/6/1 81/6/1 82/6/1
f 79/6/2 77/6/2 81/6/2
f 78/6/2 81/6/2 77/6/2
f 82/6/2 81/6/2 78/6/2
f 76/5/2 80/5/2 75/5/2
f 80/5/2 76/5/2 83/5/2
f 83/5/2 76/5/2 84/5/2
f 75/5/1 80/5/1 76/5/1
f 83/5/1 76/5/1 80/5/1
f 84/5/1 76/5/1 83/5/1
f 76/5/20 82/6/19 84/5/19
f 82/6/19 76/5/20 78/6/20
f 84/5/22 82/6/22 76/5/21
f 78/6/21 76/5/21 82/6/22
f 82/6/19 83/5/45 84/5/19
f 83/5/45 82/6/19 81/6/45
f 84/5/22 83/5/46 82/6/22
f 81/6/46 82/6/22 83/5/46
f 83/5/45 79/6/25 80/5/25
f 79/6/25 83/5/45 81/6/45
f 80/5/26 79/6/26 83/5/46
f 81/6/46 83/5/46 79/6/26
f 87/4/27 86/5/27 85/4/27
f 86/5/27 87/4/27 88/5/27
f 85/4/28 86/5/28 87/4/28
f 88/5/28 87/4/28 86/5/28
f 87/4/29 89/5/29 88/5/29
f 89/5/29 87/4/29 90/4/29
f 88/5/30 89/5/30 87/4/30
f 90/4/30 87/4/30 89/5/30
f 91/5/12 85/4/14 86/5/14
f 85/4/14 91/5/12 92/4/12
f 86/5/13 85/4/13 91/5/11
f 92/4/11 91/5/11 85/4/13
f 89/5/9 94/4/10 93/5/10
f 94/4/10 89/5/9 90/4/9
f 93/5/7 94/4/7 89/5/8
f 90/4/8 89/5/8 94/4/7
f 92/4/1 87/4/1 85/4/1
f 87/4/1 92/4/1 90/4/1
f 90/4/1 92/4/1 94/4/1
f 85/4/2 87/4/2 92/4/2
f 90/4/2 92/4/2 87/4/2
f 94/4/2 92/4/2 90/4/2
f 94/4/10 91/5/12 93/5/10
f 91/5/12 94/4/10 92/4/12
f 93/5/7 91/5/11 94/4/7
f 92/4/11 94/4/7 91/5/11
f 97/6/29 96/5/29 95/5/29
f 96/5/29 97/6/29 98/6/29
f 95/5/30 96/5/30 97/6/30
f 98/6/30 97/6/30 96/5/30
f 97/6/27 100/5/27 99/6/27
f 100/5/27 97/6/27 95/5/27
f 99/6/28 100/5/28 97/6/28
f 95/5/28 97/6/28 100/5/28
f 101/6/1 97/6/1 99/6/1
f 97/6/1 101/6/1 98/6/1
f 98/6/1 101/6/1 102/6/1
f 99/6/2 97/6/2 101/6/2
f 98/6/2 101/6/2 97/6/2
f 102/6/2 101/6/2 98/6/2
f 96/5/2 100/5/2 95/5/2
f 100/5/2 96/5/2 103/5/2
f 103/5/2 96/5/2 104/5/2
f 95/5/1 100/5/1 96/5/1
f 103/5/1 96/5/1 100/5/1
f 104/5/1 96/5/1 103/5/1
f 96/5/9 102/6/10 104/5/10
f 102/6/10 96/5/9 98/6/9
f 104/5/7 102/6/7 96/5/8
f 98/6/8 96/5/8 102/6/7
f 102/6/10 103/5/44 104/5/10
f 103/5/44 102/6/10 101/6/44
f 104/5/7 103/5/43 102/6/7
f 101/6/43 102/6/7 103/5/43
f 103/5/44 99/6/14 100/5/14
f 99/6/14 103/5/44 101/6/44
f 100/5/13 99/6/13 103/5/43
f 101/6/43 103/5/43 99/6/13
f 107/4/31 106/5/31 105/4/31
f 106/5/31 107/4/31 108/5/31
f 105/4/32 106/5/32 107/4/32
f 108/5/32 107/4/32 106/5/32
f 107/4/33 109/5/33 108/5/33
f 109/5/33 107/4/33 110/4/33
f 108/5/34 109/5/34 107/4/34
f 110/4/34 107/4/34 109/5/34
f 111/5/39 105/4/41 106/5/41
f 105/4/41 111/5/39 112/4/39
f 106/5/42 105/4/42 111/5/40
f 112/4/40 111/5/40 105/4/42
f 109/5/36 114/4/35 113/5/35
f 114/4/35 109/5/36 110/4/36
f 113/5/38 114/4/38 109/5/37
f 110/4/37 109/5/37 114/4/38
f 112/4/1 107/4/1 105/4/1
f 107/4/1 112/4/1 110/4/1
f 110/4/1 112/4/1 114/4/1
f 105/4/2 107/4/2 112/4/2
f 110/4/2 112/4/2 107/4/2
f 114/4/2 112/4/2 110/4/2
f 114/4/35 111/5/39 113/5/35
f 111/5/39 114/4/35 112/4/39
f 113/5/38 111/5/40 114/4/38
f 112/4/40 114/4/38 111/5/40
f 117/6/33 116/5/33 115/5/33
f 116/5/33 117/6/33 118/6/33
f 115/5/34 116/5/34 117/6/34
f 118/6/34 117/6/34 116/5/34
f 117/6/31 120/5/31 119/6/31
f 120/5/31 117/6/31 115/5/31
f 119/6/32 120/5/32 117/6/32
f 115/5/32 117/6/32 120/5/32
f 121/6/1 117/6/1 119/6/1
f 117/6/1 121/6/1 118/6/1
f 118/6/1 121/6/1 122/6/1
f 119/6/2 117/6/2 121/6/2
f 118/6/2 121/6/2 117/6/2
f 122/6/2 121/6/2 118/6/2
f 116/5/2 120/5/2 115/5/2
f 120/5/2 116/5/2 123/5/2
f 123/5/2 116/5/2 124/5/2
f 115/5/1 120/5/1 116/5/1
f 123/5/1 116/5/1 120/5/1
f 124/5/1 116/5/1 123/5/1
f 116/5/36 122/6/35 124/5/35
f 122/6/35 116/5/36 118/6/36
f 124/5/38 122/6/38 116/5/37
f 118/6/37 116/5/37 122/6/38
f 122/6/35 123/5/47 124/5/35
f 123/5/47 122/6/35 121/6/47
f 124/5/38 123/5/48 122/6/38
f 121/6/48 122/6/38 123/5/48
f 123/5/47 119/6/41 120/5/41
f 119/6/41 123/5/47 121/6/47
f 120/5/42 119/6/42 123/5/48
f 121/6/48 123/5/48 119/6/42

g corridor-intersection




usemtl colormap

f 3/1/1 2/1/1 1/1/1
f 2/1/1 3/1/1 4/1/1
f 1/1/2 2/1/2 3/1/2
f 4/1/2 3/1/2 2/1/2
f 7/2/1 6/2/1 5/2/1
f 6/2/1 7/2/1 8/2/1
f 8/2/1 7/2/1 9/2/1
f 5/2/2 6/2/2 7/2/2
f 8/2/2 7/2/2 6/2/2
f 9/2/2 7/2/2 8/2/2
f 6/2/3 10/3/3 5/2/3
f 10/3/3 6/2/3 11/3/3
f 5/2/4 10/3/4 6/2/4
f 11/3/4 6/2/4 10/3/4
f 6/2/5 12/3/5 11/3/5
f 12/3/5 6/2/5 8/2/5
f 11/3/6 12/3/6 6/2/6
f 8/2/6 6/2/6 12/3/6
f 12/3/8 9/2/7 13/3/7
f 9/2/7 12/3/8 8/2/8
f 13/3/10 9/2/10 12/3/9
f 8/2/9 12/3/9 9/2/10
f 13/3/7 7/2/11 14/3/11
f 7/2/11 13/3/7 9/2/7
f 14/3/12 7/2/12 13/3/10
f 9/2/10 13/3/10 7/2/12
f 14/3/11 5/2/13 10/3/13
f 5/2/13 14/3/11 7/2/11
f 10/3/14 5/2/14 14/3/12
f 7/2/12 14/3/12 5/2/14
f 17/2/1 16/2/1 15/2/1
f 16/2/1 17/2/1 18/2/1
f 18/2/1 17/2/1 19/2/1
f 15/2/2 16/2/2 17/2/2
f 18/2/2 17/2/2 16/2/2
f 19/2/2 17/2/2 18/2/2
f 16/2/15 20/3/15 15/2/15
f 20/3/15 16/2/15 21/3/15
f 15/2/16 20/3/16 16/2/16
f 21/3/16 16/2/16 20/3/16
f 16/2/17 22/3/17 21/3/17
f 22/3/17 16/2/17 18/2/17
f 21/3/18 22/3/18 16/2/18
f 18/2/18 16/2/18 22/3/18
f 22/3/20 19/2/19 23/3/19
f 19/2/19 22/3/20 18/2/20
f 23/3/22 19/2/22 22/3/21
f 18/2/21 22/3/21 19/2/22
f 23/3/19 17/2/23 24/3/23
f 17/2/23 23/3/19 19/2/19
f 24/3/24 17/2/24 23/3/22
f 19/2/22 23/3/22 17/2/24
f 24/3/23 15/2/25 20/3/25
f 15/2/25 24/3/23 17/2/23
f 20/3/26 15/2/26 24/3/24
f 17/2/24 24/3/24 15/2/26
f 27/2/1 26/2/1 25/2/1
f 26/2/1 27/2/1 28/2/1
f 28/2/1 27/2/1 29/2/1
f 25/2/2 26/2/2 27/2/2
f 28/2/2 27/2/2 26/2/2
f 29/2/2 27/2/2 28/2/2
f 26/2/27 30/3/27 25/2/27
f 30/3/27 26/2/27 31/3/27
f 25/2/28 30/3/28 26/2/28
f 31/3/28 26/2/28 30/3/28
f 26/2/29 32/3/29 31/3/29
f 32/3/29 26/2/29 28/2/29
f 31/3/30 32/3/30 26/2/30
f 28/2/30 26/2/30 32/3/30
f 32/3/9 29/2/10 33/3/10
f 29/2/10 32/3/9 28/2/9
f 33/3/7 29/2/7 32/3/8
f 28/2/8 32/3/8 29/2/7
f 33/3/10 27/2/12 34/3/12
f 27/2/12 33/3/10 29/2/10
f 34/3/11 27/2/11 33/3/7
f 29/2/7 33/3/7 27/2/11
f 34/3/12 25/2/14 30/3/14
f 25/2/14 34/3/12 27/2/12
f 30/3/13 25/2/13 34/3/11
f 27/2/11 34/3/11 25/2/13
f 37/2/1 36/2/1 35/2/1
f 36/2/1 37/2/1 38/2/1
f 38/2/1 37/2/1 39/2/1
f 35/2/2 36/2/2 37/2/2
f 38/2/2 37/2/2 36/2/2
f 39/2/2 37/2/2 38/2/2
f 36/2/31 40/3/31 35/2/31
f 40/3/31 36/2/31 41/3/31
f 35/2/32 40/3/32 36/2/32
f 41/3/32 36/2/32 40/3/32
f 36/2/33 42/3/33 41/3/33
f 42/3/33 36/2/33 38/2/33
f 41/3/34 42/3/34 36/2/34
f 38/2/34 36/2/34 42/3/34
f 42/3/36 39/2/35 43/3/35
f 39/2/35 42/3/36 38/2/36
f 43/3/38 39/2/38 42/3/37
f 38/2/37 42/3/37 39/2/38
f 43/3/35 37/2/39 44/3/39
f 37/2/39 43/3/35 39/2/35
f 44/3/40 37/2/40 43/3/38
f 39/2/38 43/3/38 37/2/40
f 44/3/39 35/2/41 40/3/41
f 35/2/41 44/3/39 37/2/39
f 40/3/42 35/2/42 44/3/40
f 37/2/40 44/3/40 35/2/42
f 47/4/3 46/5/3 45/4/3
f 46/5/3 47/4/3 48/5/3
f 45/4/4 46/5/4 47/4/4
f 48/5/4 47/4/4 46/5/4
f 47/4/5 49/5/5 48/5/5
f 49/5/5 47/4/5 50/4/5
f 48/5/6 49/5/6 47/4/6
f 50/4/6 47/4/6 49/5/6
f 51/5/11 45/4/13 46/5/13
f 45/4/13 51/5/11 52/4/11
f 46/5/14 45/4/14 51/5/12
f 52/4/12 51/5/12 45/4/14
f 49/5/8 54/4/7 53/5/7
f 54/4/7 49/5/8 50/4/8
f 53/5/10 54/4/10 49/5/9
f 50/4/9 49/5/9 54/4/10
f 52/4/1 47/4/1 45/4/1
f 47/4/1 52/4/1 50/4/1
f 50/4/1 52/4/1 54/4/1
f 45/4/2 47/4/2 52/4/2
f 50/4/2 52/4/2 47/4/2
f 54/4/2 52/4/2 50/4/2
f 54/4/7 51/5/11 53/5/7
f 51/5/11 54/4/7 52/4/11
f 53/5/10 51/5/12 54/4/10
f 52/4/12 54/4/10 51/5/12
f 57/6/5 56/5/5 55/5/5
f 56/5/5 57/6/5 58/6/5
f 55/5/6 56/5/6 57/6/6
f 58/6/6 57/6/6 56/5/6
f 57/6/3 60/5/3 59/6/3
f 60/5/3 57/6/3 55/5/3
f 59/6/4 60/5/4 57/6/4
f 55/5/4 57/6/4 60/5/4
f 61/6/1 57/6/1 59/6/1
f 57/6/1 61/6/1 58/6/1
f 58/6/1 61/6/1 62/6/1
f 59/6/2 57/6/2 61/6/2
f 58/6/2 61/6/2 57/6/2
f 62/6/2 61/6/2 58/6/2
f 56/5/2 60/5/2 55/5/2
f 60/5/2 56/5/2 63/5/2
f 63/5/2 56/5/2 64/5/2
f 55/5/1 60/5/1 56/5/1
f 63/5/1 56/5/1 60/5/1
f 64/5/1 56/5/1 63/5/1
f 56/5/8 62/6/7 64/5/7
f 62/6/7 56/5/8 58/6/8
f 64/5/10 62/6/10 56/5/9
f 58/6/9 56/5/9 62/6/10
f 62/6/7 63/5/43 64/5/7
f 63/5/43 62/6/7 61/6/43
f 64/5/10 63/5/44 62/6/10
f 61/6/44 62/6/10 63/5/44
f 63/5/43 59/6/13 60/5/13
f 59/6/13 63/5/43 61/6/43
f 60/5/14 59/6/14 63/5/44
f 61/6/44 63/5/44 59/6/14
f 67/4/15 66/5/15 65/4/15
f 66/5/15 67/4/15 68/5/15
f 65/4/16 66/5/16 67/4/16
f 68/5/16 67/4/16 66/5/16
f 67/4/17 69/5/17 68/5/17
f 69/5/17 67/4/17 70/4/17
f 68/5/18 69/5/18 67/4/18
f 70/4/18 67/4/18 69/5/18
f 71/5/23 65/4/25 66/5/25
f 65/4/25 71/5/23 72/4/23
f 66/5/26 65/4/26 71/5/24
f 72/4/24 71/5/24 65/4/26
f 69/5/20 74/4/19 73/5/19
f 74/4/19 69/5/20 70/4/20
f 73/5/22 74/4/22 69/5/21
f 70/4/21 69/5/21 74/4/22
f 72/4/1 67/4/1 65/4/1
f 67/4/1 72/4/1 70/4/1
f 70/4/1 72/4/1 74/4/1
f 65/4/2 67/4/2 72/4/2
f 70/4/2 72/4/2 67/4/2
f 74/4/2 72/4/2 70/4/2
f 74/4/19 71/5/23 73/5/19
f 71/5/23 74/4/19 72/4/23
f 73/5/22 71/5/24 74/4/22
f 72/4/24 74/4/22 71/5/24
f 77/6/17 76/5/17 75/5/17
f 76/5/17 77/6/17 78/6/17
f 75/5/18 76/5/18 77/6/18
f 78/6/18 77/6/18 76/5/18
f 77/6/15 80/5/15 79/6/15
f 80/5/15 77/6/15 75/5/15
f 79/6/16 80/5/16 77/6/16
f 75/5/16 77/6/16 80/5/16
f 81/6/1 77/6/1 79/6/1
f 77/6/1 81/6/1 78/6/1
f 78/6/1 81/6/1 82/6/1
f 79/6/2 77/6/2 81/6/2
f 78/6/2 81/6/2 77/6/2
f 82/6/2 81/6/2 78/6/2
f 76/5/2 80/5/2 75/5/2
f 80/5/2 76/5/2 83/5/2
f 83/5/2 76/5/2 84/5/2
f 75/5/1 80/5/1 76/5/1
f 83/5/1 76/5/1 80/5/1
f 84/5/1 76/5/1 83/5/1
f 76/5/20 82/6/19 84/5/19
f 82/6/19 76/5/20 78/6/20
f 84/5/22 82/6/22 76/5/21
f 78/6/21 76/5/21 82/6/22
f 82/6/19 83/5/45 84/5/19
f 83/5/45 82/6/19 81/6/45
f 84/5/22 83/5/46 82/6/22
f 81/6/46 82/6/22 83/5/46
f 83/5/45 79/6/25 80/5/25
f 79/6/25 83/5/45 81/6/45
f 80/5/26 79/6/26 83/5/46
f 81/6/46 83/5/46 79/6/26
f 87/4/27 86/5/27 85/4/27
f 86/5/27 87/4/27 88/5/27
f 85/4/28 86/5/28 87/4/28
f 88/5/28 87/4/28 86/5/28
f 87/4/29 89/5/29 88/5/29
f 89/5/29 87/4/29 90/4/29
f 88/5/30 89/5/30 87/4/30
f 90/4/30 87/4/30 89/5/30
f 91/5/12 85/4/14 86/5/14
f 85/4/14 91/5/12 92/4/12
f 86/5/13 85/4/13 91/5/11
f 92/4/11 91/5/11 85/4/13
f 89/5/9 94/4/10 93/5/10
f 94/4/10 89/5/9 90/4/9
f 93/5/7 94/4/7 89/5/8
f 90/4/8 89/5/8 94/4/7
f 92/4/1 87/4/1 85/4/1
f 87/4/1 92/4/1 90/4/1
f 90/4/1 92/4/1 94/4/1
f 85/4/2 87/4/2 92/4/2
f 90/4/2 92/4/2 87/4/2
f 94/4/2 92/4/2 90/4/2
f 94/4/10 91/5/12 93/5/10
f 91/5/12 94/4/10 92/4/12
f 93/5/7 91/5/11 94/4/7
f 92/4/11 94/4/7 91/5/11
f 97/6/29 96/5/29 95/5/29
f 96/5/29 97/6/29 98/6/29
f 95/5/30 96/5/30 97/6/30
f 98/6/30 97/6/30 96/5/30
f 97/6/27 100/5/27 99/6/27
f 100/5/27 97/6/27 95/5/27
f 99/6/28 100/5/28 97/6/28
f 95/5/28 97/6/28 100/5/28
f 101/6/1 97/6/1 99/6/1
f 97/6/1 101/6/1 98/6/1
f 98/6/1 101/6/1 102/6/1
f 99/6/2 97/6/2 101/6/2
f 98/6/2 101/6/2 97/6/2
f 102/6/2 101/6/2 98/6/2
f 96/5/2 100/5/2 95/5/2
f 100/5/2 96/5/2 103/5/2
f 103/5/2 96/5/2 104/5/2
f 95/5/1 100/5/1 96/5/1
f 103/5/1 96/5/1 100/5/1
f 104/5/1 96/5/1 103/5/1
f 96/5/9 102/6/10 104/5/10
f 102/6/10 96/5/9 98/6/9
f 104/5/7 102/6/7 96/5/8
f 98/6/8 96/5/8 102/6/7
f 102/6/10 103/5/44 104/5/10
f 103/5/44 102/6/10 101/6/44
f 104/5/7 103/5/43 102/6/7
f 101/6/43 102/6/7 103/5/43
f 103/5/44 99/6/14 100/5/14
f 99/6/14 103/5/44 101/6/44
f 100/5/13 99/6/13 103/5/43
f 101/6/43 103/5/43 99/6/13
f 107/4/31 106/5/31 105/4/31
f 106/5/31 107/4/31 108/5/31
f 105/4/32 106/5/32 107/4/32
f 108/5/32 107/4/32 106/5/32
f 107/4/33 109/5/33 108/5/33
f 109/5/33 107/4/33 110/4/33
f 108/5/34 109/5/34 107/4/34
f 110/4/34 107/4/34 109/5/34
f 111/5/39 105/4/41 106/5/41
f 105/4/41 111/5/39 112/4/39
f 106/5/42 105/4/42 111/5/40
f 112/4/40 111/5/40 105/4/42
f 109/5/36 114/4/35 113/5/35
f 114/4/35 109/5/36 110/4/36
f 113/5/38 114/4/38 109/5/37
f 110/4/37 109/5/37 114/4/38
f 112/4/1 107/4/1 105/4/1
f 107/4/1 112/4/1 110/4/1
f 110/4/1 112/4/1 114/4/1
f 105/4/2 107/4/2 112/4/2
f 110/4/2 112/4/2 107/4/2
f 114/4/2 112/4/2 110/4/2
f 114/4/35 111/5/39 113/5/35
f 111/5/39 114/4/35 112/4/39
f 113/5/38 111/5/40 114/4/38
f 112/4/40 114/4/38 111/5/40
f 117/6/33 116/5/33 115/5/33
f 116/5/33 117/6/33 118/6/33
f 115/5/34 116/5/34 117/6/34
f 118/6/34 117/6/34 116/5/34
f 117/6/31 120/5/31 119/6/31
f 120/5/31 117/6/31 115/5/31
f 119/6/32 120/5/32 117/6/32
f 115/5/32 117/6/32 120/5/32
f 121/6/1 117/6/1 119/6/1
f 117/6/1 121/6/1 118/6/1
f 118/6/1 121/6/1 122/6/1
f 119/6/2 117/6/2 121/6/2
f 118/6/2 121/6/2 117/6/2
f 122/6/2 121/6/2 118/6/2
f 116/5/2 120/5/2 115/5/2
f 120/5/2 116/5/2 123/5/2
f 123/5/2 116/5/2 124/5/2
f 115/5/1 120/5/1 116/5/1
f 123/5/1 116/5/1 120/5/1
f 124/5/1 116/5/1 123/5/1
f 116/5/36 122/6/35 124/5/35
f 122/6/35 116/5/36 118/6/36
f 124/5/38 122/6/38 116/5/37
f 118/6/37 116/5/37 122/6/38
f 122/6/35 123/5/47 124/5/35
f 123/5/47 122/6/35 121/6/47
f 124/5/38 123/5/48 122/6/38
f 121/6/48 122/6/38 123/5/48
f 123/5/47 119/6/41 120/5/41
f 119/6/41 123/5/47 121/6/47
f 120/5/42 119/6/42 123/5/48
f 121/6/48 123/5/48 119/6/42

