# Created by Kenney (www.kenney.nl)

mtllib corridor-wide-intersection.mtl

g corridor-wide-intersection

v 0 0 -4 1 1 1
v 0 0 0 1 1 1
v -4 0 -4 1 1 1
v -4 0 0 1 1 1
v 0 0 4 1 1 1
v -4 0 4 1 1 1
v 4 0 0 1 1 1
v 4 0 4 1 1 1
v 4 0 -4 1 1 1
v -4 0.9 -3.399002 1 1 1
v -4 0.9 -4 1 1 1
v -3.699501 0.9 -3.479521 1 1 1
v -3.399002 0.9 -4 1 1 1
v -3.479521 0.9 -3.699501 1 1 1
v -4 0.2 -3.399002 1 1 1
v -4 0.2 -4 1 1 1
v -3.399002 0.2 -4 1 1 1
v -3.479521 0.2 -3.699501 1 1 1
v -3.699501 0.2 -3.479521 1 1 1
v -3.399002 0.9 4 1 1 1
v -4 0.9 4 1 1 1
v -3.479521 0.9 3.699501 1 1 1
v -4 0.9 3.399002 1 1 1
v -3.699501 0.9 3.479521 1 1 1
v -3.399002 0.2 4 1 1 1
v -4 0.2 4 1 1 1
v -4 0.2 3.399002 1 1 1
v -3.699501 0.2 3.479521 1 1 1
v -3.479521 0.2 3.699501 1 1 1
v 4 0.9 3.399002 1 1 1
v 4 0.9 4 1 1 1
v 3.699501 0.9 3.479521 1 1 1
v 3.399002 0.9 4 1 1 1
v 3.479521 0.9 3.699501 1 1 1
v 4 0.2 3.399002 1 1 1
v 4 0.2 4 1 1 1
v 3.399002 0.2 4 1 1 1
v 3.479521 0.2 3.699501 1 1 1
v 3.699501 0.2 3.479521 1 1 1
v 3.399002 0.9 -4 1 1 1
v 4 0.9 -4 1 1 1
v 3.479521 0.9 -3.699501 1 1 1
v 4 0.9 -3.399002 1 1 1
v 3.699501 0.9 -3.479521 1 1 1
v 3.399002 0.2 -4 1 1 1
v 4 0.2 -4 1 1 1
v 4 0.2 -3.399002 1 1 1
v 3.699501 0.2 -3.479521 1 1 1
v 3.479521 0.2 -3.699501 1 1 1
v -3.999999 4.05 -3.599999 1 1 1
v -3.999999 0.9 -3.599999 1 1 1
v -3.999999 4.05 -3.999999 1 1 1
v -3.999999 0.9 -3.999999 1 1 1
v -3.599999 0.9 -3.999999 1 1 1
v -3.599999 4.05 -3.999999 1 1 1
v -3.799999 0.9 -3.653589 1 1 1
v -3.799999 4.05 -3.653589 1 1 1
v -3.653589 0.9 -3.799999 1 1 1
v -3.653589 4.05 -3.799999 1 1 1
v -4 -1.707772E-14 -4 1 1 1
v -2.998005 -1.707772E-14 -4 1 1 1
v -4 0.2 -4 1 1 1
v -2.998005 0.2 -4 1 1 1
v -4 0.2 -2.998005 1 1 1
v -4 -1.707772E-14 -2.998005 1 1 1
v -3.499002 0.2 -3.132247 1 1 1
v -3.132247 0.2 -3.499002 1 1 1
v -3.499002 -1.635581E-14 -3.132247 1 1 1
v -3.132247 -1.635581E-14 -3.499002 1 1 1
v -3.599999 4.05 3.999999 1 1 1
v -3.599999 0.9 3.999999 1 1 1
v -3.999999 4.05 3.999999 1 1 1
v -3.999999 0.9 3.999999 1 1 1
v -3.999999 0.9 3.599999 1 1 1
v -3.999999 4.05 3.599999 1 1 1
v -3.653589 0.9 3.799999 1 1 1
v -3.653589 4.05 3.799999 1 1 1
v -3.799999 0.9 3.653589 1 1 1
v -3.799999 4.05 3.653589 1 1 1
v -4 -1.707772E-14 4 1 1 1
v -4 -1.707772E-14 2.998005 1 1 1
v -4 0.2 4 1 1 1
v -4 0.2 2.998005 1 1 1
v -2.998005 0.2 4 1 1 1
v -2.998005 -1.707772E-14 4 1 1 1
v -3.132247 0.2 3.499002 1 1 1
v -3.499002 0.2 3.132247 1 1 1
v -3.132247 -1.635581E-14 3.499002 1 1 1
v -3.499002 -1.635581E-14 3.132247 1 1 1
v 3.999999 4.05 3.599999 1 1 1
v 3.999999 0.9 3.599999 1 1 1
v 3.999999 4.05 3.999999 1 1 1
v 3.999999 0.9 3.999999 1 1 1
v 3.599999 0.9 3.999999 1 1 1
v 3.599999 4.05 3.999999 1 1 1
v 3.799999 0.9 3.653589 1 1 1
v 3.799999 4.05 3.653589 1 1 1
v 3.653589 0.9 3.799999 1 1 1
v 3.653589 4.05 3.799999 1 1 1
v 4 -1.707772E-14 4 1 1 1
v 2.998005 -1.707772E-14 4 1 1 1
v 4 0.2 4 1 1 1
v 2.998005 0.2 4 1 1 1
v 4 0.2 2.998005 1 1 1
v 4 -1.707772E-14 2.998005 1 1 1
v 3.499002 0.2 3.132247 1 1 1
v 3.132247 0.2 3.499002 1 1 1
v 3.499002 -1.635581E-14 3.132247 1 1 1
v 3.132247 -1.635581E-14 3.499002 1 1 1
v 3.599999 4.05 -3.999999 1 1 1
v 3.599999 0.9 -3.999999 1 1 1
v 3.999999 4.05 -3.999999 1 1 1
v 3.999999 0.9 -3.999999 1 1 1
v 3.999999 0.9 -3.599999 1 1 1
v 3.999999 4.05 -3.599999 1 1 1
v 3.653589 0.9 -3.799999 1 1 1
v 3.653589 4.05 -3.799999 1 1 1
v 3.799999 0.9 -3.653589 1 1 1
v 3.799999 4.05 -3.653589 1 1 1
v 4 -1.707772E-14 -4 1 1 1
v 4 -1.707772E-14 -2.998005 1 1 1
v 4 0.2 -4 1 1 1
v 4 0.2 -2.998005 1 1 1
v 2.998005 0.2 -4 1 1 1
v 2.998005 -1.707772E-14 -4 1 1 1
v 3.132247 0.2 -3.499002 1 1 1
v 3.499002 0.2 -3.132247 1 1 1
v 3.132247 -1.635581E-14 -3.499002 1 1 1
v 3.499002 -1.635581E-14 -3.132247 1 1 1

vn 0 1 0
vn 0 -1 0
vn -1 0 3.314016E-14
vn 1 0 -3.314016E-14
vn -3.314016E-14 0 -1
vn 3.314016E-14 0 1
vn 0.8660254 0 0.5
vn 0.9659258 0 0.258819
vn -0.9659258 0 -0.258819
vn -0.8660254 0 -0.5
vn 0.5 0 0.8660254
vn -0.5 0 -0.8660254
vn 0.258819 0 0.9659258
vn -0.258819 0 -0.9659258
vn -1.192093E-07 0 1
vn 1.192093E-07 0 -1
vn -1 0 -1.192093E-07
vn 1 0 1.192093E-07
vn 0.5000002 0 -0.8660255
vn 0.2588192 0 -0.9659259
vn -0.2588192 0 0.9659259
vn -0.5000002 0 0.8660255
vn 0.8660256 0 -0.5
vn -0.8660256 0 0.5
vn 0.965926 0 -0.2588189
vn -0.965926 0 0.2588189
vn 1 0 0
vn -1 0 0
vn 0 0 1
vn 0 0 -1
vn -1.192093E-07 0 -1
vn 1.192093E-07 0 1
vn 1 0 -1.192093E-07
vn -1 0 1.192093E-07
vn -0.5 0 0.8660256
vn -0.258819 0 0.965926
vn 0.258819 0 -0.965926
vn 0.5 0 -0.8660256
vn -0.8660255 0 0.5000002
vn 0.8660255 0 -0.5000002
vn -0.9659259 0 0.2588192
vn 0.9659259 0 -0.2588192
vn 0.5 0 0.8660254
vn -0.5 0 -0.8660254
vn 0.8660256 0 -0.4999999
vn -0.8660256 0 0.4999999
vn -0.8660255 0 0.5000001
vn 0.8660255 0 -0.5000001

vt 0.46875 0.025
vt 0.09375 0.225
vt 0.09375 0.025
vt 0.34375 0.225
vt 0.34375 0.025
vt 0.34375 0.105

usemtl colormap

f 3/1/1 2/1/1 1/1/1
f 2/1/1 3/1/1 4/1/1
f 1/1/2 2/1/2 3/1/2
f 4/1/2 3/1/2 2/1/2
f 4/1/1 5/1/1 2/1/1
f 5/1/1 4/1/1 6/1/1
f 2/1/2 5/1/2 4/1/2
f 6/1/2 4/1/2 5/1/2
f 2/1/1 8/1/1 7/1/1
f 8/1/1 2/1/1 5/1/1
f 7/1/2 8/1/2 2/1/2
f 5/1/2 2/1/2 8/1/2
f 1/1/1 7/1/1 9/1/1
f 7/1/1 1/1/1 2/1/1
f 9/1/2 7/1/2 1/1/2
f 2/1/2 1/1/2 7/1/2
f 12/2/1 11/2/1 10/2/1
f 11/2/1 12/2/1 13/2/1
f 13/2/1 12/2/1 14/2/1
f 10/2/2 11/2/2 12/2/2
f 13/2/2 12/2/2 11/2/2
f 14/2/2 12/2/2 13/2/2
f 11/2/3 15/3/3 10/2/3
f 15/3/3 11/2/3 16/3/3
f 10/2/4 15/3/4 11/2/4
f 16/3/4 11/2/4 15/3/4
f 11/2/5 17/3/5 16/3/5
f 17/3/5 11/2/5 13/2/5
f 16/3/6 17/3/6 11/2/6
f 13/2/6 11/2/6 17/3/6
f 17/3/8 14/2/7 18/3/7
f 14/2/7 17/3/8 13/2/8
f 18/3/10 14/2/10 17/3/9
f 13/2/9 17/3/9 14/2/10
f 18/3/7 12/2/11 19/3/11
f 12/2/11 18/3/7 14/2/7
f 19/3/12 12/2/12 18/3/10
f 14/2/10 18/3/10 12/2/12
f 19/3/11 10/2/13 15/3/13
f 10/2/13 19/3/11 12/2/11
f 15/3/14 10/2/14 19/3/12
f 12/2/12 19/3/12 10/2/14
f 22/2/1 21/2/1 20/2/1
f 21/2/1 22/2/1 23/2/1
f 23/2/1 22/2/1 24/2/1
f 20/2/2 21/2/2 22/2/2
f 23/2/2 22/2/2 21/2/2
f 24/2/2 22/2/2 23/2/2
f 21/2/15 25/3/15 20/2/15
f 25/3/15 21/2/15 26/3/15
f 20/2/16 25/3/16 21/2/16
f 26/3/16 21/2/16 25/3/16
f 21/2/17 27/3/17 26/3/17
f 27/3/17 21/2/17 23/2/17
f 26/3/18 27/3/18 21/2/18
f 23/2/18 21/2/18 27/3/18
f 27/3/20 24/2/19 28/3/19
f 24/2/19 27/3/20 23/2/20
f 28/3/22 24/2/22 27/3/21
f 23/2/21 27/3/21 24/2/22
f 28/3/19 22/2/23 29/3/23
f 22/2/23 28/3/19 24/2/19
f 29/3/24 22/2/24 28/3/22
f 24/2/22 28/3/22 22/2/24
f 29/3/23 20/2/25 25/3/25
f 20/2/25 29/3/23 22/2/23
f 25/3/26 20/2/26 29/3/24
f 22/2/24 29/3/24 20/2/26
f 32/2/1 31/2/1 30/2/1
f 31/2/1 32/2/1 33/2/1
f 33/2/1 32/2/1 34/2/1
f 30/2/2 31/2/2 32/2/2
f 33/2/2 32/2/2 31/2/2
f 34/2/2 32/2/2 33/2/2
f 31/2/27 35/3/27 30/2/27
f 35/3/27 31/2/27 36/3/27
f 30/2/28 35/3/28 31/2/28
f 36/3/28 31/2/28 35/3/28
f 31/2/29 37/3/29 36/3/29
f 37/3/29 31/2/29 33/2/29
f 36/3/30 37/3/30 31/2/30
f 33/2/30 31/2/30 37/3/30
f 37/3/9 34/2/10 38/3/10
f 34/2/10 37/3/9 33/2/9
f 38/3/7 34/2/7 37/3/8
f 33/2/8 37/3/8 34/2/7
f 38/3/10 32/2/12 39/3/12
f 32/2/12 38/3/10 34/2/10
f 39/3/11 32/2/11 38/3/7
f 34/2/7 38/3/7 32/2/11
f 39/3/12 30/2/14 35/3/14
f 30/2/14 39/3/12 32/2/12
f 35/3/13 30/2/13 39/3/11
f 32/2/11 39/3/11 30/2/13
f 42/2/1 41/2/1 40/2/1
f 41/2/1 42/2/1 43/2/1
f 43/2/1 42/2/1 44/2/1
f 40/2/2 41/2/2 42/2/2
f 43/2/2 42/2/2 41/2/2
f 44/2/2 42/2/2 43/2/2
f 41/2/31 45/3/31 40/2/31
f 45/3/31 41/2/31 46/3/31
f 40/2/32 45/3/32 41/2/32
f 46/3/32 41/2/32 45/3/32
f 41/2/33 47/3/33 46/3/33
f 47/3/33 41/2/33 43/2/33
f 46/3/34 47/3/34 41/2/34
f 43/2/34 41/2/34 47/3/34
f 47/3/36 44/2/35 48/3/35
f 44/2/35 47/3/36 43/2/36
f 48/3/38 44/2/38 47/3/37
f 43/2/37 47/3/37 44/2/38
f 48/3/35 42/2/39 49/3/39
f 42/2/39 48/3/35 44/2/35
f 49/3/40 42/2/40 48/3/38
f 44/2/38 48/3/38 42/2/40
f 49/3/39 40/2/41 45/3/41
f 40/2/41 49/3/39 42/2/39
f 45/3/42 40/2/42 49/3/40
f 42/2/40 49/3/40 40/2/42
f 52/4/3 51/5/3 50/4/3
f 51/5/3 52/4/3 53/5/3
f 50/4/4 51/5/4 52/4/4
f 53/5/4 52/4/4 51/5/4
f 52/4/5 54/5/5 53/5/5
f 54/5/5 52/4/5 55/4/5
f 53/5/6 54/5/6 52/4/6
f 55/4/6 52/4/6 54/5/6
f 56/5/11 50/4/13 51/5/13
f 50/4/13 56/5/11 57/4/11
f 51/5/14 50/4/14 56/5/12
f 57/4/12 56/5/12 50/4/14
f 54/5/8 59/4/7 58/5/7
f 59/4/7 54/5/8 55/4/8
f 58/5/10 59/4/10 54/5/9
f 55/4/9 54/5/9 59/4/10
f 57/4/1 52/4/1 50/4/1
f 52/4/1 57/4/1 55/4/1
f 55/4/1 57/4/1 59/4/1
f 50/4/2 52/4/2 57/4/2
f 55/4/2 57/4/2 52/4/2
f 59/4/2 57/4/2 55/4/2
f 59/4/7 56/5/11 58/5/7
f 56/5/11 59/4/7 57/4/11
f 58/5/10 56/5/12 59/4/10
f 57/4/12 59/4/10 56/5/12
f 62/6/5 61/5/5 60/5/5
f 61/5/5 62/6/5 63/6/5
f 60/5/6 61/5/6 62/6/6
f 63/6/6 62/6/6 61/5/6
f 62/6/3 65/5/3 64/6/3
f 65/5/3 62/6/3 60/5/3
f 64/6/4 65/5/4 62/6/4
f 60/5/4 62/6/4 65/5/4
f 66/6/1 62/6/1 64/6/1
f 62/6/1 66/6/1 63/6/1
f 63/6/1 66/6/1 67/6/1
f 64/6/2 62/6/2 66/6/2
f 63/6/2 66/6/2 62/6/2
f 67/6/2 66/6/2 63/6/2
f 61/5/2 65/5/2 60/5/2
f 65/5/2 61/5/2 68/5/2
f 68/5/2 61/5/2 69/5/2
f 60/5/1 65/5/1 61/5/1
f 68/5/1 61/5/1 65/5/1
f 69/5/1 61/5/1 68/5/1
f 61/5/8 67/6/7 69/5/7
f 67/6/7 61/5/8 63/6/8
f 69/5/10 67/6/10 61/5/9
f 63/6/9 61/5/9 67/6/10
f 67/6/7 68/5/43 69/5/7
f 68/5/43 67/6/7 66/6/43
f 69/5/10 68/5/44 67/6/10
f 66/6/44 67/6/10 68/5/44
f 68/5/43 64/6/13 65/5/13
f 64/6/13 68/5/43 66/6/43
f 65/5/14 64/6/14 68/5/44
f 66/6/44 68/5/44 64/6/14
f 72/4/15 71/5/15 70/4/15
f 71/5/15 72/4/15 73/5/15
f 70/4/16 71/5/16 72/4/16
f 73/5/16 72/4/16 71/5/16
f 72/4/17 74/5/17 73/5/17
f 74/5/17 72/4/17 75/4/17
f 73/5/18 74/5/18 72/4/18
f 75/4/18 72/4/18 74/5/18
f 76/5/23 70/4/25 71/5/25
f 70/4/25 76/5/23 77/4/23
f 71/5/26 70/4/26 76/5/24
f 77/4/24 76/5/24 70/4/26
f 74/5/20 79/4/19 78/5/19
f 79/4/19 74/5/20 75/4/20
f 78/5/22 79/4/22 74/5/21
f 75/4/21 74/5/21 79/4/22
f 77/4/1 72/4/1 70/4/1
f 72/4/1 77/4/1 75/4/1
f 75/4/1 77/4/1 79/4/1
f 70/4/2 72/4/2 77/4/2
f 75/4/2 77/4/2 72/4/2
f 79/4/2 77/4/2 75/4/2
f 79/4/19 76/5/23 78/5/19
f 76/5/23 79/4/19 77/4/23
f 78/5/22 76/5/24 79/4/22
f 77/4/24 79/4/22 76/5/24
f 82/6/17 81/5/17 80/5/17
f 81/5/17 82/6/17 83/6/17
f 80/5/18 81/5/18 82/6/18
f 83/6/18 82/6/18 81/5/18
f 82/6/15 85/5/15 84/6/15
f 85/5/15 82/6/15 80/5/15
f 84/6/16 85/5/16 82/6/16
f 80/5/16 82/6/16 85/5/16
f 86/6/1 82/6/1 84/6/1
f 82/6/1 86/6/1 83/6/1
f 83/6/1 86/6/1 87/6/1
f 84/6/2 82/6/2 86/6/2
f 83/6/2 86/6/2 82/6/2
f 87/6/2 86/6/2 83/6/2
f 81/5/2 85/5/2 80/5/2
f 85/5/2 81/5/2 88/5/2
f 88/5/2 81/5/2 89/5/2
f 80/5/1 85/5/1 81/5/1
f 88/5/1 81/5/1 85/5/1
f 89/5/1 81/5/1 88/5/1
f 81/5/20 87/6/19 89/5/19
f 87/6/19 81/5/20 83/6/20
f 89/5/22 87/6/22 81/5/21
f 83/6/21 81/5/21 87/6/22
f 87/6/19 88/5/45 89/5/19
f 88/5/45 87/6/19 86/6/45
f 89/5/22 88/5/46 87/6/22
f 86/6/46 87/6/22 88/5/46
f 88/5/45 84/6/25 85/5/25
f 84/6/25 88/5/45 86/6/45
f 85/5/26 84/6/26 88/5/46
f 86/6/46 88/5/46 84/6/26
f 92/4/27 91/5/27 90/4/27
f 91/5/27 92/4/27 93/5/27
f 90/4/28 91/5/28 92/4/28
f 93/5/28 92/4/28 91/5/28
f 92/4/29 94/5/29 93/5/29
f 94/5/29 92/4/29 95/4/29
f 93/5/30 94/5/30 92/4/30
f 95/4/30 92/4/30 94/5/30
f 96/5/12 90/4/14 91/5/14
f 90/4/14 96/5/12 97/4/12
f 91/5/13 90/4/13 96/5/11
f 97/4/11 96/5/11 90/4/13
f 94/5/9 99/4/10 98/5/10
f 99/4/10 94/5/9 95/4/9
f 98/5/7 99/4/7 94/5/8
f 95/4/8 94/5/8 99/4/7
f 97/4/1 92/4/1 90/4/1
f 92/4/1 97/4/1 95/4/1
f 95/4/1 97/4/1 99/4/1
f 90/4/2 92/4/2 97/4/2
f 95/4/2 97/4/2 92/4/2
f 99/4/2 97/4/2 95/4/2
f 99/4/10 96/5/12 98/5/10
f 96/5/12 99/4/10 97/4/12
f 98/5/7 96/5/11 99/4/7
f 97/4/11 99/4/7 96/5/11
f 102/6/29 101/5/29 100/5/29
f 101/5/29 102/6/29 103/6/29
f 100/5/30 101/5/30 102/6/30
f 103/6/30 102/6/30 101/5/30
f 102/6/27 105/5/27 104/6/27
f 105/5/27 102/6/27 100/5/27
f 104/6/28 105/5/28 102/6/28
f 100/5/28 102/6/28 105/5/28
f 106/6/1 102/6/1 104/6/1
f 102/6/1 106/6/1 103/6/1
f 103/6/1 106/6/1 107/6/1
f 104/6/2 102/6/2 106/6/2
f 103/6/2 106/6/2 102/6/2
f 107/6/2 106/6/2 103/6/2
f 101/5/2 105/5/2 100/5/2
f 105/5/2 101/5/2 108/5/2
f 108/5/2 101/5/2 109/5/2
f 100/5/1 105/5/1 101/5/1
f 108/5/1 101/5/1 105/5/1
f 109/5/1 101/5/1 108/5/1
f 101/5/9 107/6/10 109/5/10
f 107/6/10 101/5/9 103/6/9
f 109/5/7 107/6/7 101/5/8
f 103/6/8 101/5/8 107/6/7
f 107/6/10 108/5/44 109/5/10
f 108/5/44 107/6/10 106/6/44
f 109/5/7 108/5/43 107/6/7
f 106/6/43 107/6/7 108/5/43
f 108/5/44 104/6/14 105/5/14
f 104/6/14 108/5/44 106/6/44
f 105/5/13 104/6/13 108/5/43
f 106/6/43 108/5/43 104/6/13
f 112/4/31 111/5/31 110/4/31
f 111/5/31 112/4/31 113/5/31
f 110/4/32 111/5/32 112/4/32
f 113/5/32 112/4/32 111/5/32
f 112/4/33 114/5/33 113/5/33
f 114/5/33 112/4/33 115/4/33
f 113/5/34 114/5/34 112/4/34
f 115/4/34 112/4/34 114/5/34
f 116/5/39 110/4/41 111/5/41
f 110/4/41 116/5/39 117/4/39
f 111/5/42 110/4/42 116/5/40
f 117/4/40 116/5/40 110/4/42
f 114/5/36 119/4/35 118/5/35
f 119/4/35 114/5/36 115/4/36
f 118/5/38 119/4/38 114/5/37
f 115/4/37 114/5/37 119/4/38
f 117/4/1 112/4/1 110/4/1
f 112/4/1 117/4/1 115/4/1
f 115/4/1 117/4/1 119/4/1
f 110/4/2 112/4/2 117/4/2
f 115/4/2 117/4/2 112/4/2
f 119/4/2 117/4/2 115/4/2
f 119/4/35 116/5/39 118/5/35
f 116/5/39 119/4/35 117/4/39
f 118/5/38 116/5/40 119/4/38
f 117/4/40 119/4/38 116/5/40
f 122/6/33 121/5/33 120/5/33
f 121/5/33 122/6/33 123/6/33
f 120/5/34 121/5/34 122/6/34
f 123/6/34 122/6/34 121/5/34
f 122/6/31 125/5/31 124/6/31
f 125/5/31 122/6/31 120/5/31
f 124/6/32 125/5/32 122/6/32
f 120/5/32 122/6/32 125/5/32
f 126/6/1 122/6/1 124/6/1
f 122/6/1 126/6/1 123/6/1
f 123/6/1 126/6/1 127/6/1
f 124/6/2 122/6/2 126/6/2
f 123/6/2 126/6/2 122/6/2
f 127/6/2 126/6/2 123/6/2
f 121/5/2 125/5/2 120/5/2
f 125/5/2 121/5/2 128/5/2
f 128/5/2 121/5/2 129/5/2
f 120/5/1 125/5/1 121/5/1
f 128/5/1 121/5/1 125/5/1
f 129/5/1 121/5/1 128/5/1
f 121/5/36 127/6/35 129/5/35
f 127/6/35 121/5/36 123/6/36
f 129/5/38 127/6/38 121/5/37
f 123/6/37 121/5/37 127/6/38
f 127/6/35 128/5/47 129/5/35
f 128/5/47 127/6/35 126/6/47
f 129/5/38 128/5/48 127/6/38
f 126/6/48 127/6/38 128/5/48
f 128/5/47 124/6/41 125/5/41
f 124/6/41 128/5/47 126/6/47
f 125/5/42 124/6/42 128/5/48
f 126/6/48 128/5/48 124/6/42

g corridor-wide-intersection




usemtl colormap

f 3/1/1 2/1/1 1/1/1
f 2/1/1 3/1/1 4/1/1
f 1/1/2 2/1/2 3/1/2
f 4/1/2 3/1/2 2/1/2
f 4/1/1 5/1/1 2/1/1
f 5/1/1 4/1/1 6/1/1
f 2/1/2 5/1/2 4/1/2
f 6/1/2 4/1/2 5/1/2
f 2/1/1 8/1/1 7/1/1
f 8/1/1 2/1/1 5/1/1
f 7/1/2 8/1/2 2/1/2
f 5/1/2 2/1/2 8/1/2
f 1/1/1 7/1/1 9/1/1
f 7/1/1 1/1/1 2/1/1
f 9/1/2 7/1/2 1/1/2
f 2/1/2 1/1/2 7/1/2
f 12/2/1 11/2/1 10/2/1
f 11/2/1 12/2/1 13/2/1
f 13/2/1 12/2/1 14/2/1
f 10/2/2 11/2/2 12/2/2
f 13/2/2 12/2/2 11/2/2
f 14/2/2 12/2/2 13/2/2
f 11/2/3 15/3/3 10/2/3
f 15/3/3 11/2/3 16/3/3
f 10/2/4 15/3/4 11/2/4
f 16/3/4 11/2/4 15/3/4
f 11/2/5 17/3/5 16/3/5
f 17/3/5 11/2/5 13/2/5
f 16/3/6 17/3/6 11/2/6
f 13/2/6 11/2/6 17/3/6
f 17/3/8 14/2/7 18/3/7
f 14/2/7 17/3/8 13/2/8
f 18/3/10 14/2/10 17/3/9
f 13/2/9 17/3/9 14/2/10
f 18/3/7 12/2/11 19/3/11
f 12/2/11 18/3/7 14/2/7
f 19/3/12 12/2/12 18/3/10
f 14/2/10 18/3/10 12/2/12
f 19/3/11 10/2/13 15/3/13
f 10/2/13 19/3/11 12/2/11
f 15/3/14 10/2/14 19/3/12
f 12/2/12 19/3/12 10/2/14
f 22/2/1 21/2/1 20/2/1
f 21/2/1 22/2/1 23/2/1
f 23/2/1 22/2/1 24/2/1
f 20/2/2 21/2/2 22/2/2
f 23/2/2 22/2/2 21/2/2
f 24/2/2 22/2/2 23/2/2
f 21/2/15 25/3/15 20/2/15
f 25/3/15 21/2/15 26/3/15
f 20/2/16 25/3/16 21/2/16
f 26/3/16 21/2/16 25/3/16
f 21/2/17 27/3/17 26/3/17
f 27/3/17 21/2/17 23/2/17
f 26/3/18 27/3/18 21/2/18
f 23/2/18 21/2/18 27/3/18
f 27/3/20 24/2/19 28/3/19
f 24/2/19 27/3/20 23/2/20
f 28/3/22 24/2/22 27/3/21
f 23/2/21 27/3/21 24/2/22
f 28/3/19 22/2/23 29/3/23
f 22/2/23 28/3/19 24/2/19
f 29/3/24 22/2/24 28/3/22
f 24/2/22 28/3/22 22/2/24
f 29/3/23 20/2/25 25/3/25
f 20/2/25 29/3/23 22/2/23
f 25/3/26 20/2/26 29/3/24
f 22/2/24 29/3/24 20/2/26
f 32/2/1 31/2/1 30/2/1
f 31/2/1 32/2/1 33/2/1
f 33/2/1 32/2/1 34/2/1
f 30/2/2 31/2/2 32/2/2
f 33/2/2 32/2/2 31/2/2
f 34/2/2 32/2/2 33/2/2
f 31/2/27 35/3/27 30/2/27
f 35/3/27 31/2/27 36/3/27
f 30/2/28 35/3/28 31/2/28
f 36/3/28 31/2/28 35/3/28
f 31/2/29 37/3/29 36/3/29
f 37/3/29 31/2/29 33/2/29
f 36/3/30 37/3/30 31/2/30
f 33/2/30 31/2/30 37/3/30
f 37/3/9 34/2/10 38/3/10
f 34/2/10 37/3/9 33/2/9
f 38/3/7 34/2/7 37/3/8
f 33/2/8 37/3/8 34/2/7
f 38/3/10 32/2/12 39/3/12
f 32/2/12 38/3/10 34/2/10
f 39/3/11 32/2/11 38/3/7
f 34/2/7 38/3/7 32/2/11
f 39/3/12 30/2/14 35/3/14
f 30/2/14 39/3/12 32/2/12
f 35/3/13 30/2/13 39/3/11
f 32/2/11 39/3/11 30/2/13
f 42/2/1 41/2/1 40/2/1
f 41/2/1 42/2/1 43/2/1
f 43/2/1 42/2/1 44/2/1
f 40/2/2 41/2/2 42/2/2
f 43/2/2 42/2/2 41/2/2
f 44/2/2 42/2/2 43/2/2
f 41/2/31 45/3/31 40/2/31
f 45/3/31 41/2/31 46/3/31
f 40/2/32 45/3/32 41/2/32
f 46/3/32 41/2/32 45/3/32
f 41/2/33 47/3/33 46/3/33
f 47/3/33 41/2/33 43/2/33
f 46/3/34 47/3/34 41/2/34
f 43/2/34 41/2/34 47/3/34
f 47/3/36 44/2/35 48/3/35
f 44/2/35 47/3/36 43/2/36
f 48/3/38 44/2/38 47/3/37
f 43/2/37 47/3/37 44/2/38
f 48/3/35 42/2/39 49/3/39
f 42/2/39 48/3/35 44/2/35
f 49/3/40 42/2/40 48/3/38
f 44/2/38 48/3/38 42/2/40
f 49/3/39 40/2/41 45/3/41
f 40/2/41 49/3/39 42/2/39
f 45/3/42 40/2/42 49/3/40
f 42/2/40 49/3/40 40/2/42
f 52/4/3 51/5/3 50/4/3
f 51/5/3 52/4/3 53/5/3
f 50/4/4 51/5/4 52/4/4
f 53/5/4 52/4/4 51/5/4
f 52/4/5 54/5/5 53/5/5
f 54/5/5 52/4/5 55/4/5
f 53/5/6 54/5/6 52/4/6
f 55/4/6 52/4/6 54/5/6
f 56/5/11 50/4/13 51/5/13
f 50/4/13 56/5/11 57/4/11
f 51/5/14 50/4/14 56/5/12
f 57/4/12 56/5/12 50/4/14
f 54/5/8 59/4/7 58/5/7
f 59/4/7 54/5/8 55/4/8
f 58/5/10 59/4/10 54/5/9
f 55/4/9 54/5/9 59/4/10
f 57/4/1 52/4/1 50/4/1
f 52/4/1 57/4/1 55/4/1
f 55/4/1 57/4/1 59/4/1
f 50/4/2 52/4/2 57/4/2
f 55/4/2 57/4/2 52/4/2
f 59/4/2 57/4/2 55/4/2
f 59/4/7 56/5/11 58/5/7
f 56/5/11 59/4/7 57/4/11
f 58/5/10 56/5/12 59/4/10
f 57/4/12 59/4/10 56/5/12
f 62/6/5 61/5/5 60/5/5
f 61/5/5 62/6/5 63/6/5
f 60/5/6 61/5/6 62/6/6
f 63/6/6 62/6/6 61/5/6
f 62/6/3 65/5/3 64/6/3
f 65/5/3 62/6/3 60/5/3
f 64/6/4 65/5/4 62/6/4
f 60/5/4 62/6/4 65/5/4
f 66/6/1 62/6/1 64/6/1
f 62/6/1 66/6/1 63/6/1
f 63/6/1 66/6/1 67/6/1
f 64/6/2 62/6/2 66/6/2
f 63/6/2 66/6/2 62/6/2
f 67/6/2 66/6/2 63/6/2
f 61/5/2 65/5/2 60/5/2
f 65/5/2 61/5/2 68/5/2
f 68/5/2 61/5/2 69/5/2
f 60/5/1 65/5/1 61/5/1
f 68/5/1 61/5/1 65/5/1
f 69/5/1 61/5/1 68/5/1
f 61/5/8 67/6/7 69/5/7
f 67/6/7 61/5/8 63/6/8
f 69/5/10 67/6/10 61/5/9
f 63/6/9 61/5/9 67/6/10
f 67/6/7 68/5/43 69/5/7
f 68/5/43 67/6/7 66/6/43
f 69/5/10 68/5/44 67/6/10
f 66/6/44 67/6/10 68/5/44
f 68/5/43 64/6/13 65/5/13
f 64/6/13 68/5/43 66/6/43
f 65/5/14 64/6/14 68/5/44
f 66/6/44 68/5/44 64/6/14
f 72/4/15 71/5/15 70/4/15
f 71/5/15 72/4/15 73/5/15
f 70/4/16 71/5/16 72/4/16
f 73/5/16 72/4/16 71/5/16
f 72/4/17 74/5/17 73/5/17
f 74/5/17 72/4/17 75/4/17
f 73/5/18 74/5/18 72/4/18
f 75/4/18 72/4/18 74/5/18
f 76/5/23 70/4/25 71/5/25
f 70/4/25 76/5/23 77/4/23
f 71/5/26 70/4/26 76/5/24
f 77/4/24 76/5/24 70/4/26
f 74/5/20 79/4/19 78/5/19
f 79/4/19 74/5/20 75/4/20
f 78/5/22 79/4/22 74/5/21
f 75/4/21 74/5/21 79/4/22
f 77/4/1 72/4/1 70/4/1
f 72/4/1 77/4/1 75/4/1
f 75/4/1 77/4/1 79/4/1
f 70/4/2 72/4/2 77/4/2
f 75/4/2 77/4/2 72/4/2
f 79/4/2 77/4/2 75/4/2
f 79/4/19 76/5/23 78/5/19
f 76/5/23 79/4/19 77/4/23
f 78/5/22 76/5/24 79/4/22
f 77/4/24 79/4/22 76/5/24
f 82/6/17 81/5/17 80/5/17
f 81/5/17 82/6/17 83/6/17
f 80/5/18 81/5/18 82/6/18
f 83/6/18 82/6/18 81/5/18
f 82/6/15 85/5/15 84/6/15
f 85/5/15 82/6/15 80/5/15
f 84/6/16 85/5/16 82/6/16
f 80/5/16 82/6/16 85/5/16
f 86/6/1 82/6/1 84/6/1
f 82/6/1 86/6/1 83/6/1
f 83/6/1 86/6/1 87/6/1
f 84/6/2 82/6/2 86/6/2
f 83/6/2 86/6/2 82/6/2
f 87/6/2 86/6/2 83/6/2
f 81/5/2 85/5/2 80/5/2
f 85/5/2 81/5/2 88/5/2
f 88/5/2 81/5/2 89/5/2
f 80/5/1 85/5/1 81/5/1
f 88/5/1 81/5/1 85/5/1
f 89/5/1 81/5/1 88/5/1
f 81/5/20 87/6/19 89/5/19
f 87/6/19 81/5/20 83/6/20
f 89/5/22 87/6/22 81/5/21
f 83/6/21 81/5/21 87/6/22
f 87/6/19 88/5/45 89/5/19
f 88/5/45 87/6/19 86/6/45
f 89/5/22 88/5/46 87/6/22
f 86/6/46 87/6/22 88/5/46
f 88/5/45 84/6/25 85/5/25
f 84/6/25 88/5/45 86/6/45
f 85/5/26 84/6/26 88/5/46
f 86/6/46 88/5/46 84/6/26
f 92/4/27 91/5/27 90/4/27
f 91/5/27 92/4/27 93/5/27
f 90/4/28 91/5/28 92/4/28
f 93/5/28 92/4/28 91/5/28
f 92/4/29 94/5/29 93/5/29
f 94/5/29 92/4/29 95/4/29
f 93/5/30 94/5/30 92/4/30
f 95/4/30 92/4/30 94/5/30
f 96/5/12 90/4/14 91/5/14
f 90/4/14 96/5/12 97/4/12
f 91/5/13 90/4/13 96/5/11
f 97/4/11 96/5/11 90/4/13
f 94/5/9 99/4/10 98/5/10
f 99/4/10 94/5/9 95/4/9
f 98/5/7 99/4/7 94/5/8
f 95/4/8 94/5/8 99/4/7
f 97/4/1 92/4/1 90/4/1
f 92/4/1 97/4/1 95/4/1
f 95/4/1 97/4/1 99/4/1
f 90/4/2 92/4/2 97/4/2
f 95/4/2 97/4/2 92/4/2
f 99/4/2 97/4/2 95/4/2
f 99/4/10 96/5/12 98/5/10
f 96/5/12 99/4/10 97/4/12
f 98/5/7 96/5/11 99/4/7
f 97/4/11 99/4/7 96/5/11
f 102/6/29 101/5/29 100/5/29
f 101/5/29 102/6/29 103/6/29
f 100/5/30 101/5/30 102/6/30
f 103/6/30 102/6/30 101/5/30
f 102/6/27 105/5/27 104/6/27
f 105/5/27 102/6/27 100/5/27
f 104/6/28 105/5/28 102/6/28
f 100/5/28 102/6/28 105/5/28
f 106/6/1 102/6/1 104/6/1
f 102/6/1 106/6/1 103/6/1
f 103/6/1 106/6/1 107/6/1
f 104/6/2 102/6/2 106/6/2
f 103/6/2 106/6/2 102/6/2
f 107/6/2 106/6/2 103/6/2
f 101/5/2 105/5/2 100/5/2
f 105/5/2 101/5/2 108/5/2
f 108/5/2 101/5/2 109/5/2
f 100/5/1 105/5/1 101/5/1
f 108/5/1 101/5/1 105/5/1
f 109/5/1 101/5/1 108/5/1
f 101/5/9 107/6/10 109/5/10
f 107/6/10 101/5/9 103/6/9
f 109/5/7 107/6/7 101/5/8
f 103/6/8 101/5/8 107/6/7
f 107/6/10 108/5/44 109/5/10
f 108/5/44 107/6/10 106/6/44
f 109/5/7 108/5/43 107/6/7
f 106/6/43 107/6/7 108/5/43
f 108/5/44 104/6/14 105/5/14
f 104/6/14 108/5/44 106/6/44
f 105/5/13 104/6/13 108/5/43
f 106/6/43 108/5/43 104/6/13
f 112/4/31 111/5/31 110/4/31
f 111/5/31 112/4/31 113/5/31
f 110/4/32 111/5/32 112/4/32
f 113/5/32 112/4/32 111/5/32
f 112/4/33 114/5/33 113/5/33
f 114/5/33 112/4/33 115/4/33
f 113/5/34 114/5/34 112/4/34
f 115/4/34 112/4/34 114/5/34
f 116/5/39 110/4/41 111/5/41
f 110/4/41 116/5/39 117/4/39
f 111/5/42 110/4/42 116/5/40
f 117/4/40 116/5/40 110/4/42
f 114/5/36 119/4/35 118/5/35
f 119/4/35 114/5/36 115/4/36
f 118/5/38 119/4/38 114/5/37
f 115/4/37 114/5/37 119/4/38
f 117/4/1 112/4/1 110/4/1
f 112/4/1 117/4/1 115/4/1
f 115/4/1 117/4/1 119/4/1
f 110/4/2 112/4/2 117/4/2
f 115/4/2 117/4/2 112/4/2
f 119/4/2 117/4/2 115/4/2
f 119/4/35 116/5/39 118/5/35
f 116/5/39 119/4/35 117/4/39
f 118/5/38 116/5/40 119/4/38
f 117/4/40 119/4/38 116/5/40
f 122/6/33 121/5/33 120/5/33
f 121/5/33 122/6/33 123/6/33
f 120/5/34 121/5/34 122/6/34
f 123/6/34 122/6/34 121/5/34
f 122/6/31 125/5/31 124/6/31
f 125/5/31 122/6/31 120/5/31
f 124/6/32 125/5/32 122/6/32
f 120/5/32 122/6/32 125/5/32
f 126/6/1 122/6/1 124/6/1
f 122/6/1 126/6/1 123/6/1
f 123/6/1 126/6/1 127/6/1
f 124/6/2 122/6/2 126/6/2
f 123/6/2 126/6/2 122/6/2
f 127/6/2 126/6/2 123/6/2
f 121/5/2 125/5/2 120/5/2
f 125/5/2 121/5/2 128/5/2
f 128/5/2 121/5/2 129/5/2
f 120/5/1 125/5/1 121/5/1
f 128/5/1 121/5/1 125/5/1
f 129/5/1 121/5/1 128/5/1
f 121/5/36 127/6/35 129/5/35
f 127/6/35 121/5/36 123/6/36
f 129/5/38 127/6/38 121/5/37
f 123/6/37 121/5/37 127/6/38
f 127/6/35 128/5/47 129/5/35
f 128/5/47 127/6/35 126/6/47
f 129/5/38 128/5/48 127/6/38
f 126/6/48 127/6/38 128/5/48
f 128/5/47 124/6/41 125/5/41
f 124/6/41 128/5/47 126/6/47
f 125/5/42 124/6/42 128/5/48
f 126/6/48 128/5/48 124/6/42

