# Created by Kenney (www.kenney.nl)

mtllib template-wall.mtl

g template-wall

v -1.296845 0 -1.567808 1 1 1
v -1.266227 0.05 -1.55013 1 1 1
v -1.245081 0 -1.374623 1 1 1
v -1.227404 0.05 -1.405241 1 1 1
v -1.051896 0 -1.426387 1 1 1
v -1.082515 0.05 -1.444064 1 1 1
v -1.547956 0 -1.285347 1 1 1
v -1.934326 0 -1.388874 1 1 1
v -1.583311 0.1 -1.346584 1 1 1
v -1.873089 0.1 -1.42423 1 1 1
v -1.830798 0 -1.775245 1 1 1
v -1.795443 0.1 -1.714007 1 1 1
v 1.071888 0 -1.993567 1 1 1
v 1.096888 0.1 -1.968567 1 1 1
v 1.071888 0 -1.793567 1 1 1
v 1.096888 0.1 -1.818567 1 1 1
v 1.246888 0.1 -1.968567 1 1 1
v 1.246888 0.1 -1.818567 1 1 1
v 1.271888 0 -1.793567 1 1 1
v 1.271888 0 -1.993567 1 1 1
v -1.444428 0 -1.671717 1 1 1
v -1.505665 0.1 -1.636362 1 1 1
v -1.10366 0 -1.619572 1 1 1
v -1.121338 0.05 -1.588953 1 1 1
v 1.74957 0.05 -1.501779 1 1 1
v 1.537438 0.05 -1.289647 1 1 1
v 1.537438 0.05 -1.713911 1 1 1
v 1.325306 0.05 -1.501779 1 1 1
v 1.537438 0 -1.784622 1 1 1
v 1.254595 0 -1.501779 1 1 1
v 0.8904099 -2.887646E-15 -1.902406 1 1 1
v 0.8550546 0.05 -1.841169 1 1 1
v 0.5040396 -2.887646E-15 -1.798878 1 1 1
v 0.5652769 0.05 -1.763523 1 1 1
v 1.82028 0 -1.501779 1 1 1
v 1.537438 0 -1.218937 1 1 1
v 0.9939375 -2.887646E-15 -1.516036 1 1 1
v 0.6075672 -2.887646E-15 -1.412508 1 1 1
v 0.9327003 0.05 -1.551391 1 1 1
v 0.6429225 0.05 -1.473745 1 1 1
v -2 0.2 -0.6009976 1 1 1
v -1.848093E-13 0.2 -0.8009976 1 1 1
v -2 0.9 -0.6009976 1 1 1
v -1.848093E-13 0.9 -0.8009976 1 1 1
v 2 0.9 -5.960464E-08 1 1 1
v -2 0.9 -5.960464E-08 1 1 1
v 2 0.9 -0.6009976 1 1 1
v 2 0.2 -5.960464E-08 1 1 1
v -2 0.2 -5.960464E-08 1 1 1
v 2 0.2 -0.6009976 1 1 1
v 2 0.2 -1.001995 1 1 1
v 2 0 -1.001995 1 1 1
v 2 0 -5.960464E-08 1 1 1
v -2 0 -1.001995 1 1 1
v -1.492932E-08 0 -1.201995 1 1 1
v -2 0.2 -1.001995 1 1 1
v -1.492932E-08 0.2 -1.201995 1 1 1
v -2 0 0 1 1 1
v -2 0.2 0 1 1 1
v -2 0.9 -0.4 1 1 1
v -4.042704E-14 0.9 -0.6 1 1 1
v -2 4.05 -0.4 1 1 1
v -4.042704E-14 4.05 -0.6 1 1 1
v 2 0.9 -0.4 1 1 1
v 2 4.05 -0.4 1 1 1
v 2 4.05 0 1 1 1
v 2 0.9 0 1 1 1
v -2 4.05 0 1 1 1
v -2 0.9 0 1 1 1
v 0.9278579 1.285278 -0.5574636 1 1 1
v 0.5443605 1.285278 -0.5958134 1 1 1
v 0.9228827 1.285278 -0.5077118 1 1 1
v 0.5393853 1.285278 -0.5460616 1 1 1
v 0.9278579 1.585278 -0.5574636 1 1 1
v 0.9228827 1.585278 -0.5077118 1 1 1
v 0.5443605 1.585278 -0.5958134 1 1 1
v 0.5393853 1.585278 -0.5460616 1 1 1
v 0.9776098 1.535278 -0.5524884 1 1 1
v 0.9776098 1.335278 -0.5524884 1 1 1
v 0.9726346 1.535278 -0.5027366 1 1 1
v 0.9726346 1.335278 -0.5027366 1 1 1
v 0.4946086 1.335278 -0.6007886 1 1 1
v 0.4946086 1.535278 -0.6007886 1 1 1
v 0.4896334 1.335278 -0.5510367 1 1 1
v 0.4896334 1.535278 -0.5510367 1 1 1
v -1.132622 3.191752 -0.4867378 1 1 1
v -1.51612 3.191752 -0.4483881 1 1 1
v -1.137597 3.191752 -0.5364897 1 1 1
v -1.521095 3.191752 -0.49814 1 1 1
v -1.132622 2.891752 -0.4867378 1 1 1
v -1.137597 2.891752 -0.5364897 1 1 1
v -1.51612 2.891752 -0.4483881 1 1 1
v -1.521095 2.891752 -0.49814 1 1 1
v -1.08287 3.141752 -0.491713 1 1 1
v -1.087846 3.141752 -0.5414649 1 1 1
v -1.565871 3.141752 -0.4434129 1 1 1
v -1.570847 3.141752 -0.4931648 1 1 1
v -1.087846 2.941752 -0.5414649 1 1 1
v -1.08287 2.941752 -0.491713 1 1 1
v -1.565871 2.941752 -0.4434129 1 1 1
v -1.570847 2.941752 -0.4931648 1 1 1
v 1.637037 1.633671 -0.4865457 1 1 1
v 1.253539 1.633671 -0.5248955 1 1 1
v 1.632062 1.633671 -0.4367939 1 1 1
v 1.248564 1.633671 -0.4751436 1 1 1
v 1.637037 1.933671 -0.4865457 1 1 1
v 1.632062 1.933671 -0.4367939 1 1 1
v 1.253539 1.933671 -0.5248955 1 1 1
v 1.248564 1.933671 -0.4751436 1 1 1
v 1.686789 1.883671 -0.4815705 1 1 1
v 1.681813 1.883671 -0.4318187 1 1 1
v 1.686789 1.683671 -0.4815705 1 1 1
v 1.681813 1.683671 -0.4318187 1 1 1
v 1.203788 1.683671 -0.5298706 1 1 1
v 1.203788 1.883671 -0.5298706 1 1 1
v 1.198812 1.683671 -0.4801188 1 1 1
v 1.198812 1.883671 -0.4801188 1 1 1

vn -0.7071068 0.5773503 -0.4082483
vn -0.5202672 0.7994348 -0.3003764
vn -0.4082483 0.5773503 0.7071068
vn -0.3003764 0.7994348 0.5202672
vn 0.4082483 -0.5773503 -0.7071068
vn 0.5202672 -0.7994348 0.3003764
vn 0.7071068 -0.5773503 0.4082483
vn 0.3003764 -0.7994348 -0.5202672
vn 0.7071068 0.5773503 0.4082483
vn 0.5202672 0.7994348 0.3003764
vn -0.5202672 -0.7994348 -0.3003764
vn -0.7071068 -0.5773503 -0.4082483
vn 0.4082483 0.5773503 0.7071068
vn -0.7071068 0.5773503 0.4082483
vn 0.3003764 0.7994348 0.5202672
vn -0.5202672 0.7994348 0.3003764
vn -0.3003764 -0.7994348 -0.5202672
vn 0.7071068 -0.5773503 -0.4082483
vn -0.4082483 -0.5773503 -0.7071068
vn 0.5202672 -0.7994348 -0.3003764
vn -0.4082483 0.5773503 -0.7071068
vn -0.3003764 0.7994348 -0.5202672
vn 0.3003764 -0.7994348 0.5202672
vn 0.4082483 -0.5773503 0.7071068
vn -0.6666667 0.3333333 -0.6666667
vn -0.5033765 0.7022992 -0.5033765
vn -0.6666667 0.3333333 0.6666667
vn -0.5033765 0.7022992 0.5033765
vn 0.6666667 -0.3333333 -0.6666667
vn 0.5033765 -0.7022992 0.5033765
vn 0.6666667 -0.3333333 0.6666667
vn 0.5033765 -0.7022992 -0.5033765
vn 0.5033765 0.7022992 -0.5033765
vn 0.5033765 0.7022992 0.5033765
vn -0.5033765 -0.7022992 -0.5033765
vn -0.5033765 -0.7022992 0.5033765
vn 0.6666667 0.3333333 0.6666667
vn -0.6666667 -0.3333333 -0.6666667
vn 0.6666667 0.3333333 -0.6666667
vn -0.6666667 -0.3333333 0.6666667
vn 0.7071068 0.5773503 -0.4082483
vn 0.5202672 0.7994348 -0.3003764
vn -0.5202672 -0.7994348 0.3003764
vn -0.7071068 -0.5773503 0.4082483
vn 0.4082483 0.5773503 -0.7071068
vn 0.3003764 0.7994348 -0.5202672
vn -0.4082483 -0.5773503 0.7071068
vn -0.3003764 -0.7994348 0.5202672
vn 0.4245382 0.9054101 0
vn 0 0.9054101 0.4245382
vn 0 0.9054101 -0.4245382
vn -0.4245382 0.9054101 0
vn 0 -0.9054101 0.4245382
vn 0 -0.9054101 -0.4245382
vn -0.4245382 -0.9054101 0
vn 0.4245382 -0.9054101 0
vn 0 0.8164966 -0.5773503
vn -0.5773503 0.8164966 0
vn 0 -0.8164966 0.5773503
vn 0.5773503 -0.8164966 0
vn 0.2886751 0.8164966 -0.5
vn 0.2122691 0.90541 -0.3676609
vn -0.5 0.8164966 -0.2886751
vn -0.3676609 0.90541 -0.2122691
vn 0.5 -0.8164966 0.2886751
vn -0.2122691 -0.90541 0.3676609
vn -0.2886751 -0.8164966 0.5
vn 0.3676609 -0.90541 0.2122691
vn 0.5773503 0.8164966 0
vn -0.5773503 -0.8164966 0
vn 0 0.8164966 0.5773503
vn 0 -0.8164966 -0.5773503
vn 0.5 0.8164966 0.2886751
vn -0.2886751 0.8164966 0.5
vn 0.3676609 0.90541 0.2122691
vn -0.2122691 0.90541 0.3676609
vn -0.3676609 -0.90541 -0.2122691
vn 0.2886751 -0.8164966 -0.5
vn -0.5 -0.8164966 -0.2886751
vn 0.2122691 -0.90541 -0.3676609
vn -0.09950371 0 -0.9950371
vn 0 0 -1
vn 0.09950371 0 0.9950371
vn 0 0 1
vn 0 1 0
vn 0 -1 0
vn 0.09950371 0 -0.9950371
vn -0.09950371 0 0.9950371
vn 1 0 0
vn -1 0 0
vn -0.09950373 0 -0.9950371
vn 0.09950373 0 0.9950371
vn 0.0995037 0 -0.9950371
vn -0.0995037 0 0.9950371
vn 0.3807842 -0.9238795 0.03807842
vn -0.3807842 -0.9238795 -0.03807842
vn -0.3807842 0.9238795 -0.03807842
vn 0.3807842 0.9238795 0.03807842
vn 0.9192945 0.3826834 0.09192945
vn 0.9192945 -0.3826834 0.09192945
vn -0.9192945 -0.3826834 -0.09192945
vn -0.9192945 0.3826834 -0.09192945
vn 0.3807842 0.9238795 -0.03807842
vn -0.3807842 0.9238795 0.03807842
vn -0.3807842 -0.9238795 0.03807842
vn 0.3807842 -0.9238795 -0.03807842
vn 0.9192945 0.3826834 -0.09192945
vn -0.9192945 -0.3826834 0.09192945
vn -0.9192945 0.3826834 0.09192945
vn 0.9192945 -0.3826834 -0.09192945

vt 0.46875 0.025
vt 0.46875 0.065
vt 0.46875 0.105
vt 0.09375 0.025
vt 0.09375 0.225
vt 0.34375 0.105
vt 0.34375 0.025
vt 0.34375 0.225
vt 0.34375 0.07946212
vt 0.34375 0.09850974
vt 0.34375 0.09533513
vt 0.34375 0.08263672
vt 0.34375 0.2005081
vt 0.34375 0.1814605
vt 0.34375 0.1973335
vt 0.34375 0.1846351
vt 0.34375 0.1015823
vt 0.34375 0.1206299
vt 0.34375 0.1174553
vt 0.34375 0.1047569

usemtl colormap

f 3/1/3 2/2/2 1/1/1
f 2/2/2 3/1/3 4/2/4
f 1/1/7 2/2/6 3/1/5
f 4/2/8 3/1/5 2/2/6
f 6/2/10 3/1/3 5/1/9
f 3/1/3 6/2/10 4/2/4
f 5/1/12 3/1/5 6/2/11
f 4/2/8 6/2/11 3/1/5
f 9/3/15 8/1/14 7/1/13
f 8/1/14 9/3/15 10/3/16
f 7/1/19 8/1/18 9/3/17
f 10/3/20 9/3/17 8/1/18
f 8/1/14 12/3/22 11/1/21
f 12/3/22 8/1/14 10/3/16
f 11/1/24 12/3/23 8/1/18
f 10/3/20 8/1/18 12/3/23
f 15/1/27 14/3/26 13/1/25
f 14/3/26 15/1/27 16/3/28
f 13/1/31 14/3/30 15/1/29
f 16/3/32 15/1/29 14/3/30
f 14/3/26 18/3/34 17/3/33
f 18/3/34 14/3/26 16/3/28
f 17/3/36 18/3/35 14/3/30
f 16/3/32 14/3/30 18/3/35
f 18/3/34 15/1/27 19/1/37
f 15/1/27 18/3/34 16/3/28
f 19/1/38 15/1/29 18/3/35
f 16/3/32 18/3/35 15/1/29
f 14/3/26 20/1/39 13/1/25
f 20/1/39 14/3/26 17/3/33
f 13/1/31 20/1/40 14/3/30
f 17/3/36 14/3/30 20/1/40
f 17/3/33 19/1/37 20/1/39
f 19/1/37 17/3/33 18/3/34
f 20/1/40 19/1/38 17/3/36
f 18/3/35 17/3/36 19/1/38
f 22/3/42 7/1/13 21/1/41
f 7/1/13 22/3/42 9/3/15
f 21/1/44 7/1/19 22/3/43
f 9/3/17 22/3/43 7/1/19
f 2/2/2 23/1/45 1/1/1
f 23/1/45 2/2/2 24/2/46
f 1/1/7 23/1/47 2/2/6
f 24/2/48 2/2/6 23/1/47
f 12/3/22 21/1/41 11/1/21
f 21/1/41 12/3/22 22/3/42
f 11/1/24 21/1/44 12/3/23
f 22/3/43 12/3/23 21/1/44
f 12/3/22 9/3/15 22/3/42
f 9/3/15 12/3/22 10/3/16
f 22/3/43 9/3/17 12/3/23
f 10/3/20 12/3/23 9/3/17
f 27/2/51 26/2/50 25/2/49
f 26/2/50 27/2/51 28/2/52
f 25/2/55 26/2/54 27/2/53
f 28/2/56 27/2/53 26/2/54
f 24/2/46 4/2/4 6/2/10
f 4/2/4 24/2/46 2/2/2
f 6/2/11 4/2/8 24/2/48
f 2/2/6 24/2/48 4/2/8
f 29/1/57 28/2/52 27/2/51
f 28/2/52 29/1/57 30/1/58
f 27/2/53 28/2/56 29/1/59
f 30/1/60 29/1/59 28/2/56
f 33/1/63 32/2/62 31/1/61
f 32/2/62 33/1/63 34/2/64
f 31/1/67 32/2/66 33/1/65
f 34/2/68 33/1/65 32/2/66
f 29/1/57 25/2/49 35/1/69
f 25/2/49 29/1/57 27/2/51
f 35/1/70 25/2/55 29/1/59
f 27/2/53 29/1/59 25/2/55
f 28/2/52 36/1/71 26/2/50
f 36/1/71 28/2/52 30/1/58
f 26/2/54 36/1/72 28/2/56
f 30/1/60 28/2/56 36/1/72
f 39/2/75 38/1/74 37/1/73
f 38/1/74 39/2/75 40/2/76
f 37/1/79 38/1/78 39/2/77
f 40/2/80 39/2/77 38/1/78
f 25/2/49 36/1/71 35/1/69
f 36/1/71 25/2/49 26/2/50
f 35/1/70 36/1/72 25/2/55
f 26/2/54 25/2/55 36/1/72
f 31/1/61 39/2/75 37/1/73
f 39/2/75 31/1/61 32/2/62
f 37/1/79 39/2/77 31/1/67
f 32/2/66 31/1/67 39/2/77
f 34/2/64 38/1/74 40/2/76
f 38/1/74 34/2/64 33/1/63
f 40/2/80 38/1/78 34/2/68
f 33/1/65 34/2/68 38/1/78
f 32/2/62 40/2/76 39/2/75
f 40/2/76 32/2/62 34/2/64
f 39/2/77 40/2/80 32/2/66
f 34/2/68 32/2/66 40/2/80
f 24/2/46 5/1/9 23/1/45
f 5/1/9 24/2/46 6/2/10
f 23/1/47 5/1/12 24/2/48
f 6/2/11 24/2/48 5/1/12
f 43/5/81 42/4/82 41/4/81
f 42/4/82 43/5/81 44/5/82
f 41/4/83 42/4/84 43/5/83
f 44/5/84 43/5/83 42/4/84
f 47/5/85 46/5/85 45/5/85
f 46/5/85 47/5/85 44/5/85
f 46/5/85 44/5/85 43/5/85
f 45/5/86 46/5/86 47/5/86
f 44/5/86 47/5/86 46/5/86
f 43/5/86 44/5/86 46/5/86
f 45/5/84 49/4/84 48/4/84
f 49/4/84 45/5/84 46/5/84
f 48/4/82 49/4/82 45/5/82
f 46/5/82 45/5/82 49/4/82
f 44/5/82 50/4/87 42/4/82
f 50/4/87 44/5/82 47/5/87
f 42/4/84 50/4/88 44/5/84
f 47/5/88 44/5/84 50/4/88
f 45/5/89 50/4/89 47/5/89
f 50/4/89 45/5/89 48/4/89
f 47/5/90 50/4/90 45/5/90
f 48/4/90 45/5/90 50/4/90
f 49/4/90 43/5/90 41/4/90
f 43/5/90 49/4/90 46/5/90
f 41/4/89 43/5/89 49/4/89
f 46/5/89 49/4/89 43/5/89
f 48/6/89 52/7/89 51/6/89
f 52/7/89 48/6/89 53/7/89
f 51/6/90 52/7/90 48/6/90
f 53/7/90 48/6/90 52/7/90
f 56/6/91 55/7/82 54/7/91
f 55/7/82 56/6/91 57/6/82
f 54/7/92 55/7/84 56/6/92
f 57/6/84 56/6/92 55/7/84
f 48/6/84 58/7/84 53/7/84
f 58/7/84 48/6/84 59/6/84
f 53/7/82 58/7/82 48/6/82
f 59/6/82 48/6/82 58/7/82
f 57/6/82 52/7/93 55/7/82
f 52/7/93 57/6/82 51/6/93
f 55/7/84 52/7/94 57/6/84
f 51/6/94 57/6/84 52/7/94
f 58/7/86 52/7/86 53/7/86
f 52/7/86 58/7/86 55/7/86
f 55/7/86 58/7/86 54/7/86
f 53/7/85 52/7/85 58/7/85
f 55/7/85 58/7/85 52/7/85
f 54/7/85 58/7/85 55/7/85
f 51/6/85 59/6/85 48/6/85
f 59/6/85 51/6/85 57/6/85
f 59/6/85 57/6/85 56/6/85
f 48/6/86 59/6/86 51/6/86
f 57/6/86 51/6/86 59/6/86
f 56/6/86 57/6/86 59/6/86
f 58/7/90 56/6/90 54/7/90
f 56/6/90 58/7/90 59/6/90
f 54/7/89 56/6/89 58/7/89
f 59/6/89 58/7/89 56/6/89
f 62/8/81 61/7/82 60/7/81
f 61/7/82 62/8/81 63/8/82
f 60/7/83 61/7/84 62/8/83
f 63/8/84 62/8/83 61/7/84
f 63/8/82 64/7/87 61/7/82
f 64/7/87 63/8/82 65/8/87
f 61/7/84 64/7/88 63/8/84
f 65/8/88 63/8/84 64/7/88
f 66/8/89 64/7/89 65/8/89
f 64/7/89 66/8/89 67/7/89
f 65/8/90 64/7/90 66/8/90
f 67/7/90 66/8/90 64/7/90
f 65/8/85 68/8/85 66/8/85
f 68/8/85 65/8/85 63/8/85
f 68/8/85 63/8/85 62/8/85
f 66/8/86 68/8/86 65/8/86
f 63/8/86 65/8/86 68/8/86
f 62/8/86 63/8/86 68/8/86
f 66/8/84 69/7/84 67/7/84
f 69/7/84 66/8/84 68/8/84
f 67/7/82 69/7/82 66/8/82
f 68/8/82 66/8/82 69/7/82
f 69/7/90 62/8/90 60/7/90
f 62/8/90 69/7/90 68/8/90
f 60/7/89 62/8/89 69/7/89
f 68/8/89 69/7/89 62/8/89
f 72/9/95 71/9/96 70/9/95
f 71/9/96 72/9/95 73/9/96
f 70/9/97 71/9/98 72/9/97
f 73/9/98 72/9/97 71/9/98
f 76/10/97 75/10/98 74/10/98
f 75/10/98 76/10/97 77/10/97
f 74/10/96 75/10/96 76/10/95
f 77/10/95 76/10/95 75/10/96
f 80/11/99 79/12/100 78/11/99
f 79/12/100 80/11/99 81/12/100
f 78/11/101 79/12/102 80/11/101
f 81/12/102 80/11/101 79/12/102
f 84/12/101 83/11/102 82/12/101
f 83/11/102 84/12/101 85/11/102
f 82/12/99 83/11/100 84/12/99
f 85/11/100 84/12/99 83/11/100
f 74/10/98 80/11/99 78/11/99
f 80/11/99 74/10/98 75/10/98
f 78/11/101 80/11/101 74/10/96
f 75/10/96 74/10/96 80/11/101
f 81/12/100 70/9/95 79/12/100
f 70/9/95 81/12/100 72/9/95
f 79/12/102 70/9/97 81/12/102
f 72/9/97 81/12/102 70/9/97
f 82/12/87 70/9/87 71/9/87
f 70/9/87 82/12/87 79/12/87
f 79/12/87 82/12/87 83/11/87
f 79/12/87 83/11/87 78/11/87
f 78/11/87 83/11/87 76/10/87
f 78/11/87 76/10/87 74/10/87
f 71/9/88 70/9/88 82/12/88
f 79/12/88 82/12/88 70/9/88
f 83/11/88 82/12/88 79/12/88
f 78/11/88 83/11/88 79/12/88
f 76/10/88 83/11/88 78/11/88
f 74/10/88 76/10/88 78/11/88
f 81/12/88 73/9/88 72/9/88
f 73/9/88 81/12/88 84/12/88
f 84/12/88 81/12/88 80/11/88
f 84/12/88 80/11/88 85/11/88
f 85/11/88 80/11/88 75/10/88
f 85/11/88 75/10/88 77/10/88
f 72/9/87 73/9/87 81/12/87
f 84/12/87 81/12/87 73/9/87
f 80/11/87 81/12/87 84/12/87
f 85/11/87 80/11/87 84/12/87
f 75/10/87 80/11/87 85/11/87
f 77/10/87 75/10/87 85/11/87
f 73/9/96 82/12/101 71/9/96
f 82/12/101 73/9/96 84/12/101
f 71/9/98 82/12/99 73/9/98
f 84/12/99 73/9/98 82/12/99
f 83/11/102 77/10/97 76/10/97
f 77/10/97 83/11/102 85/11/102
f 76/10/95 77/10/95 83/11/100
f 85/11/100 83/11/100 77/10/95
f 88/13/103 87/13/104 86/13/103
f 87/13/104 88/13/103 89/13/104
f 86/13/105 87/13/106 88/13/105
f 89/13/106 88/13/105 87/13/106
f 92/14/105 91/14/106 90/14/106
f 91/14/106 92/14/105 93/14/105
f 90/14/104 91/14/104 92/14/103
f 93/14/103 92/14/103 91/14/104
f 95/15/107 86/13/103 94/15/107
f 86/13/103 95/15/107 88/13/103
f 94/15/108 86/13/105 95/15/108
f 88/13/105 95/15/108 86/13/105
f 89/13/104 96/15/109 87/13/104
f 96/15/109 89/13/104 97/15/109
f 87/13/106 96/15/110 89/13/106
f 97/15/110 89/13/106 96/15/110
f 94/15/107 98/16/110 95/15/107
f 98/16/110 94/15/107 99/16/110
f 95/15/108 98/16/109 94/15/108
f 99/16/109 94/15/108 98/16/109
f 90/14/106 98/16/110 99/16/110
f 98/16/110 90/14/106 91/14/106
f 99/16/109 98/16/109 90/14/104
f 91/14/104 90/14/104 98/16/109
f 99/16/83 92/14/83 90/14/83
f 92/14/83 99/16/83 100/16/83
f 100/16/83 99/16/83 94/15/83
f 100/16/83 94/15/83 96/15/83
f 96/15/83 94/15/83 86/13/83
f 96/15/83 86/13/83 87/13/83
f 90/14/81 92/14/81 99/16/81
f 100/16/81 99/16/81 92/14/81
f 94/15/81 99/16/81 100/16/81
f 96/15/81 94/15/81 100/16/81
f 86/13/81 94/15/81 96/15/81
f 87/13/81 86/13/81 96/15/81
f 101/16/81 91/14/81 93/14/81
f 91/14/81 101/16/81 98/16/81
f 98/16/81 101/16/81 97/15/81
f 98/16/81 97/15/81 95/15/81
f 95/15/81 97/15/81 89/13/81
f 95/15/81 89/13/81 88/13/81
f 93/14/83 91/14/83 101/16/83
f 98/16/83 101/16/83 91/14/83
f 97/15/83 101/16/83 98/16/83
f 95/15/83 97/15/83 98/16/83
f 89/13/83 97/15/83 95/15/83
f 88/13/83 89/13/83 95/15/83
f 100/16/108 93/14/105 92/14/105
f 93/14/105 100/16/108 101/16/108
f 92/14/103 93/14/103 100/16/107
f 101/16/107 100/16/107 93/14/103
f 100/16/108 97/15/109 101/16/108
f 97/15/109 100/16/108 96/15/109
f 101/16/107 97/15/110 100/16/107
f 96/15/110 100/16/107 97/15/110
f 104/17/95 103/17/96 102/17/95
f 103/17/96 104/17/95 105/17/96
f 102/17/97 103/17/98 104/17/97
f 105/17/98 104/17/97 103/17/98
f 108/18/97 107/18/98 106/18/98
f 107/18/98 108/18/97 109/18/97
f 106/18/96 107/18/96 108/18/95
f 109/18/95 108/18/95 107/18/96
f 106/18/98 111/19/99 110/19/99
f 111/19/99 106/18/98 107/18/98
f 110/19/101 111/19/101 106/18/96
f 107/18/96 106/18/96 111/19/101
f 113/20/100 102/17/95 112/20/100
f 102/17/95 113/20/100 104/17/95
f 112/20/102 102/17/97 113/20/102
f 104/17/97 113/20/102 102/17/97
f 116/20/101 115/19/102 114/20/101
f 115/19/102 116/20/101 117/19/102
f 114/20/99 115/19/100 116/20/99
f 117/19/100 116/20/99 115/19/100
f 111/19/99 112/20/100 110/19/99
f 112/20/100 111/19/99 113/20/100
f 110/19/101 112/20/102 111/19/101
f 113/20/102 111/19/101 112/20/102
f 114/20/87 102/17/87 103/17/87
f 102/17/87 114/20/87 112/20/87
f 112/20/87 114/20/87 115/19/87
f 112/20/87 115/19/87 110/19/87
f 110/19/87 115/19/87 108/18/87
f 110/19/87 108/18/87 106/18/87
f 103/17/88 102/17/88 114/20/88
f 112/20/88 114/20/88 102/17/88
f 115/19/88 114/20/88 112/20/88
f 110/19/88 115/19/88 112/20/88
f 108/18/88 115/19/88 110/19/88
f 106/18/88 108/18/88 110/19/88
f 105/17/96 114/20/101 103/17/96
f 114/20/101 105/17/96 116/20/101
f 103/17/98 114/20/99 105/17/98
f 116/20/99 105/17/98 114/20/99
f 113/20/88 105/17/88 104/17/88
f 105/17/88 113/20/88 116/20/88
f 116/20/88 113/20/88 111/19/88
f 116/20/88 111/19/88 117/19/88
f 117/19/88 111/19/88 107/18/88
f 117/19/88 107/18/88 109/18/88
f 104/17/87 105/17/87 113/20/87
f 116/20/87 113/20/87 105/17/87
f 111/19/87 113/20/87 116/20/87
f 117/19/87 111/19/87 116/20/87
f 107/18/87 111/19/87 117/19/87
f 109/18/87 107/18/87 117/19/87
f 115/19/102 109/18/97 108/18/97
f 109/18/97 115/19/102 117/19/102
f 108/18/95 109/18/95 115/19/100
f 117/19/100 115/19/100 109/18/95

g template-wall




usemtl colormap

f 3/1/3 2/2/2 1/1/1
f 2/2/2 3/1/3 4/2/4
f 1/1/7 2/2/6 3/1/5
f 4/2/8 3/1/5 2/2/6
f 6/2/10 3/1/3 5/1/9
f 3/1/3 6/2/10 4/2/4
f 5/1/12 3/1/5 6/2/11
f 4/2/8 6/2/11 3/1/5
f 9/3/15 8/1/14 7/1/13
f 8/1/14 9/3/15 10/3/16
f 7/1/19 8/1/18 9/3/17
f 10/3/20 9/3/17 8/1/18
f 8/1/14 12/3/22 11/1/21
f 12/3/22 8/1/14 10/3/16
f 11/1/24 12/3/23 8/1/18
f 10/3/20 8/1/18 12/3/23
f 15/1/27 14/3/26 13/1/25
f 14/3/26 15/1/27 16/3/28
f 13/1/31 14/3/30 15/1/29
f 16/3/32 15/1/29 14/3/30
f 14/3/26 18/3/34 17/3/33
f 18/3/34 14/3/26 16/3/28
f 17/3/36 18/3/35 14/3/30
f 16/3/32 14/3/30 18/3/35
f 18/3/34 15/1/27 19/1/37
f 15/1/27 18/3/34 16/3/28
f 19/1/38 15/1/29 18/3/35
f 16/3/32 18/3/35 15/1/29
f 14/3/26 20/1/39 13/1/25
f 20/1/39 14/3/26 17/3/33
f 13/1/31 20/1/40 14/3/30
f 17/3/36 14/3/30 20/1/40
f 17/3/33 19/1/37 20/1/39
f 19/1/37 17/3/33 18/3/34
f 20/1/40 19/1/38 17/3/36
f 18/3/35 17/3/36 19/1/38
f 22/3/42 7/1/13 21/1/41
f 7/1/13 22/3/42 9/3/15
f 21/1/44 7/1/19 22/3/43
f 9/3/17 22/3/43 7/1/19
f 2/2/2 23/1/45 1/1/1
f 23/1/45 2/2/2 24/2/46
f 1/1/7 23/1/47 2/2/6
f 24/2/48 2/2/6 23/1/47
f 12/3/22 21/1/41 11/1/21
f 21/1/41 12/3/22 22/3/42
f 11/1/24 21/1/44 12/3/23
f 22/3/43 12/3/23 21/1/44
f 12/3/22 9/3/15 22/3/42
f 9/3/15 12/3/22 10/3/16
f 22/3/43 9/3/17 12/3/23
f 10/3/20 12/3/23 9/3/17
f 27/2/51 26/2/50 25/2/49
f 26/2/50 27/2/51 28/2/52
f 25/2/55 26/2/54 27/2/53
f 28/2/56 27/2/53 26/2/54
f 24/2/46 4/2/4 6/2/10
f 4/2/4 24/2/46 2/2/2
f 6/2/11 4/2/8 24/2/48
f 2/2/6 24/2/48 4/2/8
f 29/1/57 28/2/52 27/2/51
f 28/2/52 29/1/57 30/1/58
f 27/2/53 28/2/56 29/1/59
f 30/1/60 29/1/59 28/2/56
f 33/1/63 32/2/62 31/1/61
f 32/2/62 33/1/63 34/2/64
f 31/1/67 32/2/66 33/1/65
f 34/2/68 33/1/65 32/2/66
f 29/1/57 25/2/49 35/1/69
f 25/2/49 29/1/57 27/2/51
f 35/1/70 25/2/55 29/1/59
f 27/2/53 29/1/59 25/2/55
f 28/2/52 36/1/71 26/2/50
f 36/1/71 28/2/52 30/1/58
f 26/2/54 36/1/72 28/2/56
f 30/1/60 28/2/56 36/1/72
f 39/2/75 38/1/74 37/1/73
f 38/1/74 39/2/75 40/2/76
f 37/1/79 38/1/78 39/2/77
f 40/2/80 39/2/77 38/1/78
f 25/2/49 36/1/71 35/1/69
f 36/1/71 25/2/49 26/2/50
f 35/1/70 36/1/72 25/2/55
f 26/2/54 25/2/55 36/1/72
f 31/1/61 39/2/75 37/1/73
f 39/2/75 31/1/61 32/2/62
f 37/1/79 39/2/77 31/1/67
f 32/2/66 31/1/67 39/2/77
f 34/2/64 38/1/74 40/2/76
f 38/1/74 34/2/64 33/1/63
f 40/2/80 38/1/78 34/2/68
f 33/1/65 34/2/68 38/1/78
f 32/2/62 40/2/76 39/2/75
f 40/2/76 32/2/62 34/2/64
f 39/2/77 40/2/80 32/2/66
f 34/2/68 32/2/66 40/2/80
f 24/2/46 5/1/9 23/1/45
f 5/1/9 24/2/46 6/2/10
f 23/1/47 5/1/12 24/2/48
f 6/2/11 24/2/48 5/1/12
f 43/5/81 42/4/82 41/4/81
f 42/4/82 43/5/81 44/5/82
f 41/4/83 42/4/84 43/5/83
f 44/5/84 43/5/83 42/4/84
f 47/5/85 46/5/85 45/5/85
f 46/5/85 47/5/85 44/5/85
f 46/5/85 44/5/85 43/5/85
f 45/5/86 46/5/86 47/5/86
f 44/5/86 47/5/86 46/5/86
f 43/5/86 44/5/86 46/5/86
f 45/5/84 49/4/84 48/4/84
f 49/4/84 45/5/84 46/5/84
f 48/4/82 49/4/82 45/5/82
f 46/5/82 45/5/82 49/4/82
f 44/5/82 50/4/87 42/4/82
f 50/4/87 44/5/82 47/5/87
f 42/4/84 50/4/88 44/5/84
f 47/5/88 44/5/84 50/4/88
f 45/5/89 50/4/89 47/5/89
f 50/4/89 45/5/89 48/4/89
f 47/5/90 50/4/90 45/5/90
f 48/4/90 45/5/90 50/4/90
f 49/4/90 43/5/90 41/4/90
f 43/5/90 49/4/90 46/5/90
f 41/4/89 43/5/89 49/4/89
f 46/5/89 49/4/89 43/5/89
f 48/6/89 52/7/89 51/6/89
f 52/7/89 48/6/89 53/7/89
f 51/6/90 52/7/90 48/6/90
f 53/7/90 48/6/90 52/7/90
f 56/6/91 55/7/82 54/7/91
f 55/7/82 56/6/91 57/6/82
f 54/7/92 55/7/84 56/6/92
f 57/6/84 56/6/92 55/7/84
f 48/6/84 58/7/84 53/7/84
f 58/7/84 48/6/84 59/6/84
f 53/7/82 58/7/82 48/6/82
f 59/6/82 48/6/82 58/7/82
f 57/6/82 52/7/93 55/7/82
f 52/7/93 57/6/82 51/6/93
f 55/7/84 52/7/94 57/6/84
f 51/6/94 57/6/84 52/7/94
f 58/7/86 52/7/86 53/7/86
f 52/7/86 58/7/86 55/7/86
f 55/7/86 58/7/86 54/7/86
f 53/7/85 52/7/85 58/7/85
f 55/7/85 58/7/85 52/7/85
f 54/7/85 58/7/85 55/7/85
f 51/6/85 59/6/85 48/6/85
f 59/6/85 51/6/85 57/6/85
f 59/6/85 57/6/85 56/6/85
f 48/6/86 59/6/86 51/6/86
f 57/6/86 51/6/86 59/6/86
f 56/6/86 57/6/86 59/6/86
f 58/7/90 56/6/90 54/7/90
f 56/6/90 58/7/90 59/6/90
f 54/7/89 56/6/89 58/7/89
f 59/6/89 58/7/89 56/6/89
f 62/8/81 61/7/82 60/7/81
f 61/7/82 62/8/81 63/8/82
f 60/7/83 61/7/84 62/8/83
f 63/8/84 62/8/83 61/7/84
f 63/8/82 64/7/87 61/7/82
f 64/7/87 63/8/82 65/8/87
f 61/7/84 64/7/88 63/8/84
f 65/8/88 63/8/84 64/7/88
f 66/8/89 64/7/89 65/8/89
f 64/7/89 66/8/89 67/7/89
f 65/8/90 64/7/90 66/8/90
f 67/7/90 66/8/90 64/7/90
f 65/8/85 68/8/85 66/8/85
f 68/8/85 65/8/85 63/8/85
f 68/8/85 63/8/85 62/8/85
f 66/8/86 68/8/86 65/8/86
f 63/8/86 65/8/86 68/8/86
f 62/8/86 63/8/86 68/8/86
f 66/8/84 69/7/84 67/7/84
f 69/7/84 66/8/84 68/8/84
f 67/7/82 69/7/82 66/8/82
f 68/8/82 66/8/82 69/7/82
f 69/7/90 62/8/90 60/7/90
f 62/8/90 69/7/90 68/8/90
f 60/7/89 62/8/89 69/7/89
f 68/8/89 69/7/89 62/8/89
f 72/9/95 71/9/96 70/9/95
f 71/9/96 72/9/95 73/9/96
f 70/9/97 71/9/98 72/9/97
f 73/9/98 72/9/97 71/9/98
f 76/10/97 75/10/98 74/10/98
f 75/10/98 76/10/97 77/10/97
f 74/10/96 75/10/96 76/10/95
f 77/10/95 76/10/95 75/10/96
f 80/11/99 79/12/100 78/11/99
f 79/12/100 80/11/99 81/12/100
f 78/11/101 79/12/102 80/11/101
f 81/12/102 80/11/101 79/12/102
f 84/12/101 83/11/102 82/12/101
f 83/11/102 84/12/101 85/11/102
f 82/12/99 83/11/100 84/12/99
f 85/11/100 84/12/99 83/11/100
f 74/10/98 80/11/99 78/11/99
f 80/11/99 74/10/98 75/10/98
f 78/11/101 80/11/101 74/10/96
f 75/10/96 74/10/96 80/11/101
f 81/12/100 70/9/95 79/12/100
f 70/9/95 81/12/100 72/9/95
f 79/12/102 70/9/97 81/12/102
f 72/9/97 81/12/102 70/9/97
f 82/12/87 70/9/87 71/9/87
f 70/9/87 82/12/87 79/12/87
f 79/12/87 82/12/87 83/11/87
f 79/12/87 83/11/87 78/11/87
f 78/11/87 83/11/87 76/10/87
f 78/11/87 76/10/87 74/10/87
f 71/9/88 70/9/88 82/12/88
f 79/12/88 82/12/88 70/9/88
f 83/11/88 82/12/88 79/12/88
f 78/11/88 83/11/88 79/12/88
f 76/10/88 83/11/88 78/11/88
f 74/10/88 76/10/88 78/11/88
f 81/12/88 73/9/88 72/9/88
f 73/9/88 81/12/88 84/12/88
f 84/12/88 81/12/88 80/11/88
f 84/12/88 80/11/88 85/11/88
f 85/11/88 80/11/88 75/10/88
f 85/11/88 75/10/88 77/10/88
f 72/9/87 73/9/87 81/12/87
f 84/12/87 81/12/87 73/9/87
f 80/11/87 81/12/87 84/12/87
f 85/11/87 80/11/87 84/12/87
f 75/10/87 80/11/87 85/11/87
f 77/10/87 75/10/87 85/11/87
f 73/9/96 82/12/101 71/9/96
f 82/12/101 73/9/96 84/12/101
f 71/9/98 82/12/99 73/9/98
f 84/12/99 73/9/98 82/12/99
f 83/11/102 77/10/97 76/10/97
f 77/10/97 83/11/102 85/11/102
f 76/10/95 77/10/95 83/11/100
f 85/11/100 83/11/100 77/10/95
f 88/13/103 87/13/104 86/13/103
f 87/13/104 88/13/103 89/13/104
f 86/13/105 87/13/106 88/13/105
f 89/13/106 88/13/105 87/13/106
f 92/14/105 91/14/106 90/14/106
f 91/14/106 92/14/105 93/14/105
f 90/14/104 91/14/104 92/14/103
f 93/14/103 92/14/103 91/14/104
f 95/15/107 86/13/103 94/15/107
f 86/13/103 95/15/107 88/13/103
f 94/15/108 86/13/105 95/15/108
f 88/13/105 95/15/108 86/13/105
f 89/13/104 96/15/109 87/13/104
f 96/15/109 89/13/104 97/15/109
f 87/13/106 96/15/110 89/13/106
f 97/15/110 89/13/106 96/15/110
f 94/15/107 98/16/110 95/15/107
f 98/16/110 94/15/107 99/16/110
f 95/15/108 98/16/109 94/15/108
f 99/16/109 94/15/108 98/16/109
f 90/14/106 98/16/110 99/16/110
f 98/16/110 90/14/106 91/14/106
f 99/16/109 98/16/109 90/14/104
f 91/14/104 90/14/104 98/16/109
f 99/16/83 92/14/83 90/14/83
f 92/14/83 99/16/83 100/16/83
f 100/16/83 99/16/83 94/15/83
f 100/16/83 94/15/83 96/15/83
f 96/15/83 94/15/83 86/13/83
f 96/15/83 86/13/83 87/13/83
f 90/14/81 92/14/81 99/16/81
f 100/16/81 99/16/81 92/14/81
f 94/15/81 99/16/81 100/16/81
f 96/15/81 94/15/81 100/16/81
f 86/13/81 94/15/81 96/15/81
f 87/13/81 86/13/81 96/15/81
f 101/16/81 91/14/81 93/14/81
f 91/14/81 101/16/81 98/16/81
f 98/16/81 101/16/81 97/15/81
f 98/16/81 97/15/81 95/15/81
f 95/15/81 97/15/81 89/13/81
f 95/15/81 89/13/81 88/13/81
f 93/14/83 91/14/83 101/16/83
f 98/16/83 101/16/83 91/14/83
f 97/15/83 101/16/83 98/16/83
f 95/15/83 97/15/83 98/16/83
f 89/13/83 97/15/83 95/15/83
f 88/13/83 89/13/83 95/15/83
f 100/16/108 93/14/105 92/14/105
f 93/14/105 100/16/108 101/16/108
f 92/14/103 93/14/103 100/16/107
f 101/16/107 100/16/107 93/14/103
f 100/16/108 97/15/109 101/16/108
f 97/15/109 100/16/108 96/15/109
f 101/16/107 97/15/110 100/16/107
f 96/15/110 100/16/107 97/15/110
f 104/17/95 103/17/96 102/17/95
f 103/17/96 104/17/95 105/17/96
f 102/17/97 103/17/98 104/17/97
f 105/17/98 104/17/97 103/17/98
f 108/18/97 107/18/98 106/18/98
f 107/18/98 108/18/97 109/18/97
f 106/18/96 107/18/96 108/18/95
f 109/18/95 108/18/95 107/18/96
f 106/18/98 111/19/99 110/19/99
f 111/19/99 106/18/98 107/18/98
f 110/19/101 111/19/101 106/18/96
f 107/18/96 106/18/96 111/19/101
f 113/20/100 102/17/95 112/20/100
f 102/17/95 113/20/100 104/17/95
f 112/20/102 102/17/97 113/20/102
f 104/17/97 113/20/102 102/17/97
f 116/20/101 115/19/102 114/20/101
f 115/19/102 116/20/101 117/19/102
f 114/20/99 115/19/100 116/20/99
f 117/19/100 116/20/99 115/19/100
f 111/19/99 112/20/100 110/19/99
f 112/20/100 111/19/99 113/20/100
f 110/19/101 112/20/102 111/19/101
f 113/20/102 111/19/101 112/20/102
f 114/20/87 102/17/87 103/17/87
f 102/17/87 114/20/87 112/20/87
f 112/20/87 114/20/87 115/19/87
f 112/20/87 115/19/87 110/19/87
f 110/19/87 115/19/87 108/18/87
f 110/19/87 108/18/87 106/18/87
f 103/17/88 102/17/88 114/20/88
f 112/20/88 114/20/88 102/17/88
f 115/19/88 114/20/88 112/20/88
f 110/19/88 115/19/88 112/20/88
f 108/18/88 115/19/88 110/19/88
f 106/18/88 108/18/88 110/19/88
f 105/17/96 114/20/101 103/17/96
f 114/20/101 105/17/96 116/20/101
f 103/17/98 114/20/99 105/17/98
f 116/20/99 105/17/98 114/20/99
f 113/20/88 105/17/88 104/17/88
f 105/17/88 113/20/88 116/20/88
f 116/20/88 113/20/88 111/19/88
f 116/20/88 111/19/88 117/19/88
f 117/19/88 111/19/88 107/18/88
f 117/19/88 107/18/88 109/18/88
f 104/17/87 105/17/87 113/20/87
f 116/20/87 113/20/87 105/17/87
f 111/19/87 113/20/87 116/20/87
f 117/19/87 111/19/87 116/20/87
f 107/18/87 111/19/87 117/19/87
f 109/18/87 107/18/87 117/19/87
f 115/19/102 109/18/97 108/18/97
f 109/18/97 115/19/102 117/19/102
f 108/18/95 109/18/95 115/19/100
f 117/19/100 115/19/100 109/18/95

