# Created by Kenney (www.kenney.nl)

mtllib template-wall-half.mtl

g template-wall-half

v -0.1379219 0.05 -1.476216 1 1 1
v -0.2828108 0.05 -1.437394 1 1 1
v -0.1767448 0.05 -1.621105 1 1 1
v -0.3216337 0.05 -1.582282 1 1 1
v -0.8862056 0 -1.807397 1 1 1
v -0.4998353 0 -1.703869 1 1 1
v -0.8508502 0.1 -1.746159 1 1 1
v -0.5610725 0.1 -1.668514 1 1 1
v -0.3522523 0 -1.59996 1 1 1
v -0.1590671 0 -1.651724 1 1 1
v -0.1073033 0 -1.458539 1 1 1
v -0.6033629 0 -1.317499 1 1 1
v -0.6387182 0.1 -1.378736 1 1 1
v -0.9897332 0 -1.421026 1 1 1
v -0.9284959 0.1 -1.456382 1 1 1
v -0.3004885 0 -1.406775 1 1 1
v -1.193593E-08 0.2 -0.8009975 1 1 1
v 1 0.2 -0.6009976 1 1 1
v -1.193593E-08 0.9 -0.8009975 1 1 1
v 1 0.9 -0.6009976 1 1 1
v 1 0.9 -5.960464E-08 1 1 1
v -1 0.9 -2.980232E-08 1 1 1
v -1 0.9 -0.6009975 1 1 1
v -1 0.2 -0.6009975 1 1 1
v -1 0.2 -2.980232E-08 1 1 1
v 1 0.2 -5.960464E-08 1 1 1
v 1 4.05 2.980232E-08 1 1 1
v -1 4.05 5.960464E-08 1 1 1
v 1 4.05 -0.4 1 1 1
v -8.940743E-09 4.05 -0.6 1 1 1
v -1 4.05 -0.3999999 1 1 1
v -1 0.9 -0.3999999 1 1 1
v -1 0.9 5.960464E-08 1 1 1
v -8.940743E-09 0.9 -0.6 1 1 1
v 1 0.9 2.980232E-08 1 1 1
v 1 0.9 -0.4 1 1 1
v 1 0 -5.960464E-08 1 1 1
v -1 0 5.960464E-08 1 1 1
v -1 0.2 5.960464E-08 1 1 1
v 1 0.2 -1.001995 1 1 1
v -2.537581E-08 0.2 -1.201995 1 1 1
v -1 0.2 -1.001995 1 1 1
v -2.537581E-08 0 -1.201995 1 1 1
v 1 0 -1.001995 1 1 1
v -1 0 -1.001995 1 1 1
v -0.3318489 1.332707 -0.5336302 1 1 1
v -0.3416547 1.332707 -0.5826592 1 1 1
v -0.7097746 1.332707 -0.458045 1 1 1
v -0.7195804 1.332707 -0.5070741 1 1 1
v -0.2828198 1.582707 -0.543436 1 1 1
v -0.3318489 1.632707 -0.5336302 1 1 1
v -0.2926256 1.582707 -0.592465 1 1 1
v -0.3416547 1.632707 -0.5826592 1 1 1
v -0.2926256 1.382707 -0.592465 1 1 1
v -0.2828198 1.382707 -0.543436 1 1 1
v -0.7588037 1.382707 -0.4482392 1 1 1
v -0.7686095 1.382707 -0.4972683 1 1 1
v -0.7097746 1.632707 -0.458045 1 1 1
v -0.7195804 1.632707 -0.5070741 1 1 1
v -0.7686095 1.582707 -0.4972683 1 1 1
v -0.7588037 1.582707 -0.4482392 1 1 1

vn 0.5202672 0.7994348 0.3003764
vn -0.3003764 0.7994348 0.5202672
vn 0.3003764 0.7994348 -0.5202672
vn -0.5202672 0.7994348 -0.3003764
vn -0.3003764 -0.7994348 0.5202672
vn 0.3003764 -0.7994348 -0.5202672
vn -0.5202672 -0.7994348 -0.3003764
vn 0.5202672 -0.7994348 0.3003764
vn -0.4082483 0.5773503 -0.7071068
vn 0.7071068 0.5773503 -0.4082483
vn -0.3003764 0.7994348 -0.5202672
vn 0.5202672 0.7994348 -0.3003764
vn 0.3003764 -0.7994348 0.5202672
vn -0.7071068 -0.5773503 0.4082483
vn 0.4082483 -0.5773503 0.7071068
vn -0.5202672 -0.7994348 0.3003764
vn -0.7071068 0.5773503 -0.4082482
vn 0.4082482 0.5773503 -0.7071068
vn -0.4082482 -0.5773503 0.7071068
vn 0.7071068 -0.5773503 0.4082482
vn 0.7071068 0.5773503 0.4082482
vn -0.7071068 -0.5773503 -0.4082482
vn 0.4082483 0.5773503 0.7071068
vn 0.3003764 0.7994348 0.5202672
vn -0.4082483 -0.5773503 -0.7071068
vn -0.3003764 -0.7994348 -0.5202672
vn -0.7071068 0.5773503 0.4082483
vn -0.5202672 0.7994348 0.3003764
vn 0.7071068 -0.5773503 -0.4082483
vn 0.5202672 -0.7994348 -0.3003764
vn -0.4082482 0.5773503 0.7071068
vn 0.4082482 -0.5773503 -0.7071068
vn 0 0 -1
vn 0.1961161 0 -0.9805807
vn 0 0 1
vn -0.1961161 0 0.9805807
vn 0 1 0
vn 0 -1 0
vn -1 0 0
vn 1 0 0
vn -0.1961161 0 -0.9805807
vn 0.1961161 0 0.9805807
vn 0.1961161 0 -0.9805807
vn -0.1961161 0 0.9805807
vn -0.1961162 0 -0.9805807
vn 0.1961162 0 0.9805807
vn 0.3752519 -0.9238795 -0.07505039
vn -0.3752519 -0.9238795 0.07505039
vn 0.3752519 0.9238795 -0.07505039
vn -0.3752519 0.9238795 0.07505039
vn 0.9059384 0.3826834 -0.1811877
vn -0.9059384 -0.3826834 0.1811877
vn 0.9059384 -0.3826834 -0.1811877
vn -0.9059384 0.3826834 0.1811877

vt 0.46875 0.065
vt 0.46875 0.025
vt 0.46875 0.105
vt 0.09375 0.025
vt 0.09375 0.225
vt 0.34375 0.225
vt 0.34375 0.025
vt 0.34375 0.105
vt 0.34375 0.1208127
vt 0.34375 0.1331584
vt 0.34375 0.1356275
vt 0.34375 0.1232818

usemtl colormap

f 3/1/3 2/1/2 1/1/1
f 2/1/2 3/1/3 4/1/4
f 1/1/7 2/1/6 3/1/5
f 4/1/8 3/1/5 2/1/6
f 7/3/11 6/2/10 5/2/9
f 6/2/10 7/3/11 8/3/12
f 5/2/15 6/2/14 7/3/13
f 8/3/16 7/3/13 6/2/14
f 4/1/4 10/2/18 9/2/17
f 10/2/18 4/1/4 3/1/3
f 9/2/20 10/2/19 4/1/8
f 3/1/5 4/1/8 10/2/19
f 3/1/3 11/2/21 10/2/18
f 11/2/21 3/1/3 1/1/1
f 10/2/19 11/2/22 3/1/5
f 1/1/7 3/1/5 11/2/22
f 8/3/12 12/2/23 6/2/10
f 12/2/23 8/3/12 13/3/24
f 6/2/14 12/2/25 8/3/16
f 13/3/26 8/3/16 12/2/25
f 14/2/27 7/3/11 5/2/9
f 7/3/11 14/2/27 15/3/28
f 5/2/15 7/3/13 14/2/29
f 15/3/30 14/2/29 7/3/13
f 16/2/31 4/1/4 9/2/17
f 4/1/4 16/2/31 2/1/2
f 9/2/20 4/1/8 16/2/32
f 2/1/6 16/2/32 4/1/8
f 1/1/1 16/2/31 11/2/21
f 16/2/31 1/1/1 2/1/2
f 11/2/22 16/2/32 1/1/7
f 2/1/6 1/1/7 16/2/32
f 7/3/11 13/3/24 8/3/12
f 13/3/24 7/3/11 15/3/28
f 8/3/16 13/3/26 7/3/13
f 15/3/30 7/3/13 13/3/26
f 13/3/24 14/2/27 12/2/23
f 14/2/27 13/3/24 15/3/28
f 12/2/25 14/2/29 13/3/26
f 15/3/30 13/3/26 14/2/29
f 19/5/33 18/4/34 17/4/33
f 18/4/34 19/5/33 20/5/34
f 17/4/35 18/4/36 19/5/35
f 20/5/36 19/5/35 18/4/36
f 20/5/37 22/5/37 21/5/37
f 22/5/37 20/5/37 19/5/37
f 22/5/37 19/5/37 23/5/37
f 21/5/38 22/5/38 20/5/38
f 19/5/38 20/5/38 22/5/38
f 23/5/38 19/5/38 22/5/38
f 25/4/39 23/5/39 24/4/39
f 23/5/39 25/4/39 22/5/39
f 24/4/40 23/5/40 25/4/40
f 22/5/40 25/4/40 23/5/40
f 21/5/35 25/4/35 26/4/35
f 25/4/35 21/5/35 22/5/35
f 26/4/33 25/4/33 21/5/33
f 22/5/33 21/5/33 25/4/33
f 21/5/40 18/4/40 20/5/40
f 18/4/40 21/5/40 26/4/40
f 20/5/39 18/4/39 21/5/39
f 26/4/39 21/5/39 18/4/39
f 23/5/41 17/4/33 24/4/41
f 17/4/33 23/5/41 19/5/33
f 24/4/42 17/4/35 23/5/42
f 19/5/35 23/5/42 17/4/35
f 29/6/37 28/6/37 27/6/37
f 28/6/37 29/6/37 30/6/37
f 28/6/37 30/6/37 31/6/37
f 27/6/38 28/6/38 29/6/38
f 30/6/38 29/6/38 28/6/38
f 31/6/38 30/6/38 28/6/38
f 33/7/39 31/6/39 32/7/39
f 31/6/39 33/7/39 28/6/39
f 32/7/40 31/6/40 33/7/40
f 28/6/40 33/7/40 31/6/40
f 31/6/41 34/7/33 32/7/41
f 34/7/33 31/6/41 30/6/33
f 32/7/42 34/7/35 31/6/42
f 30/6/35 31/6/42 34/7/35
f 27/6/35 33/7/35 35/7/35
f 33/7/35 27/6/35 28/6/35
f 35/7/33 33/7/33 27/6/33
f 28/6/33 27/6/33 33/7/33
f 27/6/40 36/7/40 29/6/40
f 36/7/40 27/6/40 35/7/40
f 29/6/39 36/7/39 27/6/39
f 35/7/39 27/6/39 36/7/39
f 30/6/33 36/7/34 34/7/33
f 36/7/34 30/6/33 29/6/34
f 34/7/35 36/7/36 30/6/35
f 29/6/36 30/6/35 36/7/36
f 26/8/35 38/7/35 37/7/35
f 38/7/35 26/8/35 39/8/35
f 37/7/33 38/7/33 26/8/33
f 39/8/33 26/8/33 38/7/33
f 40/8/37 39/8/37 26/8/37
f 39/8/37 40/8/37 41/8/37
f 39/8/37 41/8/37 42/8/37
f 26/8/38 39/8/38 40/8/38
f 41/8/38 40/8/38 39/8/38
f 42/8/38 41/8/38 39/8/38
f 41/8/33 44/7/43 43/7/33
f 44/7/43 41/8/33 40/8/43
f 43/7/35 44/7/44 41/8/35
f 40/8/44 41/8/35 44/7/44
f 26/8/40 44/7/40 40/8/40
f 44/7/40 26/8/40 37/7/40
f 40/8/39 44/7/39 26/8/39
f 37/7/39 26/8/39 44/7/39
f 38/7/39 42/8/39 45/7/39
f 42/8/39 38/7/39 39/8/39
f 45/7/40 42/8/40 38/7/40
f 39/8/40 38/7/40 42/8/40
f 38/7/38 44/7/38 37/7/38
f 44/7/38 38/7/38 43/7/38
f 43/7/38 38/7/38 45/7/38
f 37/7/37 44/7/37 38/7/37
f 43/7/37 38/7/37 44/7/37
f 45/7/37 38/7/37 43/7/37
f 42/8/45 43/7/33 45/7/45
f 43/7/33 42/8/45 41/8/33
f 45/7/46 43/7/35 42/8/46
f 41/8/35 42/8/46 43/7/35
f 48/9/48 47/9/47 46/9/47
f 47/9/47 48/9/48 49/9/48
f 46/9/50 47/9/50 48/9/49
f 49/9/49 48/9/49 47/9/50
f 52/10/51 51/11/49 50/10/51
f 51/11/49 52/10/51 53/11/49
f 50/10/52 51/11/48 52/10/52
f 53/11/48 52/10/52 51/11/48
f 50/10/51 54/12/53 52/10/51
f 54/12/53 50/10/51 55/12/53
f 52/10/52 54/12/54 50/10/52
f 55/12/54 50/10/52 54/12/54
f 56/12/52 49/9/48 48/9/48
f 49/9/48 56/12/52 57/12/52
f 48/9/49 49/9/49 56/12/51
f 57/12/51 56/12/51 49/9/49
f 53/11/49 58/11/50 51/11/49
f 58/11/50 53/11/49 59/11/50
f 51/11/48 58/11/47 53/11/48
f 59/11/47 53/11/48 58/11/47
f 57/12/41 47/9/41 49/9/41
f 47/9/41 57/12/41 54/12/41
f 54/12/41 57/12/41 60/10/41
f 54/12/41 60/10/41 52/10/41
f 52/10/41 60/10/41 59/11/41
f 52/10/41 59/11/41 53/11/41
f 49/9/42 47/9/42 57/12/42
f 54/12/42 57/12/42 47/9/42
f 60/10/42 57/12/42 54/12/42
f 52/10/42 60/10/42 54/12/42
f 59/11/42 60/10/42 52/10/42
f 53/11/42 59/11/42 52/10/42
f 55/12/42 48/9/42 46/9/42
f 48/9/42 55/12/42 56/12/42
f 56/12/42 55/12/42 50/10/42
f 56/12/42 50/10/42 61/10/42
f 61/10/42 50/10/42 51/11/42
f 61/10/42 51/11/42 58/11/42
f 46/9/41 48/9/41 55/12/41
f 56/12/41 55/12/41 48/9/41
f 50/10/41 55/12/41 56/12/41
f 61/10/41 50/10/41 56/12/41
f 51/11/41 50/10/41 61/10/41
f 58/11/41 51/11/41 61/10/41
f 56/12/52 60/10/54 57/12/52
f 60/10/54 56/12/52 61/10/54
f 57/12/51 60/10/53 56/12/51
f 61/10/53 56/12/51 60/10/53
f 59/11/50 61/10/54 58/11/50
f 61/10/54 59/11/50 60/10/54
f 58/11/47 61/10/53 59/11/47
f 60/10/53 59/11/47 61/10/53
f 46/9/47 54/12/53 55/12/53
f 54/12/53 46/9/47 47/9/47
f 55/12/54 54/12/54 46/9/50
f 47/9/50 46/9/50 54/12/54

g template-wall-half




usemtl colormap

f 3/1/3 2/1/2 1/1/1
f 2/1/2 3/1/3 4/1/4
f 1/1/7 2/1/6 3/1/5
f 4/1/8 3/1/5 2/1/6
f 7/3/11 6/2/10 5/2/9
f 6/2/10 7/3/11 8/3/12
f 5/2/15 6/2/14 7/3/13
f 8/3/16 7/3/13 6/2/14
f 4/1/4 10/2/18 9/2/17
f 10/2/18 4/1/4 3/1/3
f 9/2/20 10/2/19 4/1/8
f 3/1/5 4/1/8 10/2/19
f 3/1/3 11/2/21 10/2/18
f 11/2/21 3/1/3 1/1/1
f 10/2/19 11/2/22 3/1/5
f 1/1/7 3/1/5 11/2/22
f 8/3/12 12/2/23 6/2/10
f 12/2/23 8/3/12 13/3/24
f 6/2/14 12/2/25 8/3/16
f 13/3/26 8/3/16 12/2/25
f 14/2/27 7/3/11 5/2/9
f 7/3/11 14/2/27 15/3/28
f 5/2/15 7/3/13 14/2/29
f 15/3/30 14/2/29 7/3/13
f 16/2/31 4/1/4 9/2/17
f 4/1/4 16/2/31 2/1/2
f 9/2/20 4/1/8 16/2/32
f 2/1/6 16/2/32 4/1/8
f 1/1/1 16/2/31 11/2/21
f 16/2/31 1/1/1 2/1/2
f 11/2/22 16/2/32 1/1/7
f 2/1/6 1/1/7 16/2/32
f 7/3/11 13/3/24 8/3/12
f 13/3/24 7/3/11 15/3/28
f 8/3/16 13/3/26 7/3/13
f 15/3/30 7/3/13 13/3/26
f 13/3/24 14/2/27 12/2/23
f 14/2/27 13/3/24 15/3/28
f 12/2/25 14/2/29 13/3/26
f 15/3/30 13/3/26 14/2/29
f 19/5/33 18/4/34 17/4/33
f 18/4/34 19/5/33 20/5/34
f 17/4/35 18/4/36 19/5/35
f 20/5/36 19/5/35 18/4/36
f 20/5/37 22/5/37 21/5/37
f 22/5/37 20/5/37 19/5/37
f 22/5/37 19/5/37 23/5/37
f 21/5/38 22/5/38 20/5/38
f 19/5/38 20/5/38 22/5/38
f 23/5/38 19/5/38 22/5/38
f 25/4/39 23/5/39 24/4/39
f 23/5/39 25/4/39 22/5/39
f 24/4/40 23/5/40 25/4/40
f 22/5/40 25/4/40 23/5/40
f 21/5/35 25/4/35 26/4/35
f 25/4/35 21/5/35 22/5/35
f 26/4/33 25/4/33 21/5/33
f 22/5/33 21/5/33 25/4/33
f 21/5/40 18/4/40 20/5/40
f 18/4/40 21/5/40 26/4/40
f 20/5/39 18/4/39 21/5/39
f 26/4/39 21/5/39 18/4/39
f 23/5/41 17/4/33 24/4/41
f 17/4/33 23/5/41 19/5/33
f 24/4/42 17/4/35 23/5/42
f 19/5/35 23/5/42 17/4/35
f 29/6/37 28/6/37 27/6/37
f 28/6/37 29/6/37 30/6/37
f 28/6/37 30/6/37 31/6/37
f 27/6/38 28/6/38 29/6/38
f 30/6/38 29/6/38 28/6/38
f 31/6/38 30/6/38 28/6/38
f 33/7/39 31/6/39 32/7/39
f 31/6/39 33/7/39 28/6/39
f 32/7/40 31/6/40 33/7/40
f 28/6/40 33/7/40 31/6/40
f 31/6/41 34/7/33 32/7/41
f 34/7/33 31/6/41 30/6/33
f 32/7/42 34/7/35 31/6/42
f 30/6/35 31/6/42 34/7/35
f 27/6/35 33/7/35 35/7/35
f 33/7/35 27/6/35 28/6/35
f 35/7/33 33/7/33 27/6/33
f 28/6/33 27/6/33 33/7/33
f 27/6/40 36/7/40 29/6/40
f 36/7/40 27/6/40 35/7/40
f 29/6/39 36/7/39 27/6/39
f 35/7/39 27/6/39 36/7/39
f 30/6/33 36/7/34 34/7/33
f 36/7/34 30/6/33 29/6/34
f 34/7/35 36/7/36 30/6/35
f 29/6/36 30/6/35 36/7/36
f 26/8/35 38/7/35 37/7/35
f 38/7/35 26/8/35 39/8/35
f 37/7/33 38/7/33 26/8/33
f 39/8/33 26/8/33 38/7/33
f 40/8/37 39/8/37 26/8/37
f 39/8/37 40/8/37 41/8/37
f 39/8/37 41/8/37 42/8/37
f 26/8/38 39/8/38 40/8/38
f 41/8/38 40/8/38 39/8/38
f 42/8/38 41/8/38 39/8/38
f 41/8/33 44/7/43 43/7/33
f 44/7/43 41/8/33 40/8/43
f 43/7/35 44/7/44 41/8/35
f 40/8/44 41/8/35 44/7/44
f 26/8/40 44/7/40 40/8/40
f 44/7/40 26/8/40 37/7/40
f 40/8/39 44/7/39 26/8/39
f 37/7/39 26/8/39 44/7/39
f 38/7/39 42/8/39 45/7/39
f 42/8/39 38/7/39 39/8/39
f 45/7/40 42/8/40 38/7/40
f 39/8/40 38/7/40 42/8/40
f 38/7/38 44/7/38 37/7/38
f 44/7/38 38/7/38 43/7/38
f 43/7/38 38/7/38 45/7/38
f 37/7/37 44/7/37 38/7/37
f 43/7/37 38/7/37 44/7/37
f 45/7/37 38/7/37 43/7/37
f 42/8/45 43/7/33 45/7/45
f 43/7/33 42/8/45 41/8/33
f 45/7/46 43/7/35 42/8/46
f 41/8/35 42/8/46 43/7/35
f 48/9/48 47/9/47 46/9/47
f 47/9/47 48/9/48 49/9/48
f 46/9/50 47/9/50 48/9/49
f 49/9/49 48/9/49 47/9/50
f 52/10/51 51/11/49 50/10/51
f 51/11/49 52/10/51 53/11/49
f 50/10/52 51/11/48 52/10/52
f 53/11/48 52/10/52 51/11/48
f 50/10/51 54/12/53 52/10/51
f 54/12/53 50/10/51 55/12/53
f 52/10/52 54/12/54 50/10/52
f 55/12/54 50/10/52 54/12/54
f 56/12/52 49/9/48 48/9/48
f 49/9/48 56/12/52 57/12/52
f 48/9/49 49/9/49 56/12/51
f 57/12/51 56/12/51 49/9/49
f 53/11/49 58/11/50 51/11/49
f 58/11/50 53/11/49 59/11/50
f 51/11/48 58/11/47 53/11/48
f 59/11/47 53/11/48 58/11/47
f 57/12/41 47/9/41 49/9/41
f 47/9/41 57/12/41 54/12/41
f 54/12/41 57/12/41 60/10/41
f 54/12/41 60/10/41 52/10/41
f 52/10/41 60/10/41 59/11/41
f 52/10/41 59/11/41 53/11/41
f 49/9/42 47/9/42 57/12/42
f 54/12/42 57/12/42 47/9/42
f 60/10/42 57/12/42 54/12/42
f 52/10/42 60/10/42 54/12/42
f 59/11/42 60/10/42 52/10/42
f 53/11/42 59/11/42 52/10/42
f 55/12/42 48/9/42 46/9/42
f 48/9/42 55/12/42 56/12/42
f 56/12/42 55/12/42 50/10/42
f 56/12/42 50/10/42 61/10/42
f 61/10/42 50/10/42 51/11/42
f 61/10/42 51/11/42 58/11/42
f 46/9/41 48/9/41 55/12/41
f 56/12/41 55/12/41 48/9/41
f 50/10/41 55/12/41 56/12/41
f 61/10/41 50/10/41 56/12/41
f 51/11/41 50/10/41 61/10/41
f 58/11/41 51/11/41 61/10/41
f 56/12/52 60/10/54 57/12/52
f 60/10/54 56/12/52 61/10/54
f 57/12/51 60/10/53 56/12/51
f 61/10/53 56/12/51 60/10/53
f 59/11/50 61/10/54 58/11/50
f 61/10/54 59/11/50 60/10/54
f 58/11/47 61/10/53 59/11/47
f 60/10/53 59/11/47 61/10/53
f 46/9/47 54/12/53 55/12/53
f 54/12/53 46/9/47 47/9/47
f 55/12/54 54/12/54 46/9/50
f 47/9/50 46/9/50 54/12/54

