# Created by Kenney (www.kenney.nl)

mtllib template-wall-detail-a.mtl

g template-wall-detail-a

v -1.296845 0 -1.567808 1 1 1
v -1.266227 0.05 -1.55013 1 1 1
v -1.245081 0 -1.374623 1 1 1
v -1.227404 0.05 -1.405241 1 1 1
v -1.051896 0 -1.426387 1 1 1
v -1.082515 0.05 -1.444064 1 1 1
v -1.547956 0 -1.285347 1 1 1
v -1.934326 0 -1.388874 1 1 1
v -1.583311 0.1 -1.346584 1 1 1
v -1.873089 0.1 -1.42423 1 1 1
v -1.830798 0 -1.775245 1 1 1
v -1.795443 0.1 -1.714007 1 1 1
v 1.071888 0 -1.993567 1 1 1
v 1.096888 0.1 -1.968567 1 1 1
v 1.071888 0 -1.793567 1 1 1
v 1.096888 0.1 -1.818567 1 1 1
v 1.246888 0.1 -1.968567 1 1 1
v 1.246888 0.1 -1.818567 1 1 1
v 1.271888 0 -1.793567 1 1 1
v 1.271888 0 -1.993567 1 1 1
v -1.444428 0 -1.671717 1 1 1
v -1.505665 0.1 -1.636362 1 1 1
v -1.10366 0 -1.619572 1 1 1
v -1.121338 0.05 -1.588953 1 1 1
v 1.74957 0.05 -1.501779 1 1 1
v 1.537438 0.05 -1.289647 1 1 1
v 1.537438 0.05 -1.713911 1 1 1
v 1.325306 0.05 -1.501779 1 1 1
v 1.537438 0 -1.784622 1 1 1
v 1.254595 0 -1.501779 1 1 1
v 0.8904099 -2.887646E-15 -1.902406 1 1 1
v 0.8550546 0.05 -1.841169 1 1 1
v 0.5040396 -2.887646E-15 -1.798878 1 1 1
v 0.5652769 0.05 -1.763523 1 1 1
v 1.82028 0 -1.501779 1 1 1
v 1.537438 0 -1.218937 1 1 1
v 0.9939375 -2.887646E-15 -1.516036 1 1 1
v 0.6075672 -2.887646E-15 -1.412508 1 1 1
v 0.9327003 0.05 -1.551391 1 1 1
v 0.6429225 0.05 -1.473745 1 1 1
v -2 0.2 -0.6009976 1 1 1
v -1.848093E-13 0.2 -0.8009976 1 1 1
v -2 0.9 -0.6009976 1 1 1
v -1.848093E-13 0.9 -0.8009976 1 1 1
v 2 0.9 -5.960464E-08 1 1 1
v -2 0.9 -5.960464E-08 1 1 1
v 2 0.9 -0.6009976 1 1 1
v 2 0.2 -5.960464E-08 1 1 1
v -2 0.2 -5.960464E-08 1 1 1
v 2 0.2 -0.6009976 1 1 1
v 2 0.9 0 1 1 1
v -2 0.9 0 1 1 1
v 2 4.05 0 1 1 1
v -2 4.05 0 1 1 1
v 2 4.05 -0.4 1 1 1
v 2 0.9 -0.4 1 1 1
v -2 0.9 -0.4 1 1 1
v -2 4.05 -0.4 1 1 1
v -4.042704E-14 4.05 -0.6 1 1 1
v -4.042704E-14 0.9 -0.6 1 1 1
v -1.492924E-08 3.609557E-16 -1.451995 1 1 1
v 0.5459808 3.609557E-16 -1.360998 1 1 1
v -1.492924E-08 0.2 -1.451995 1 1 1
v 0.5459808 0.2 -1.360998 1 1 1
v 0.667636 0.2 -1.239343 1 1 1
v 0.667636 3.609557E-16 -1.239343 1 1 1
v 0.7586328 0.2 -0.6933621 1 1 1
v 0.7586328 3.609557E-16 -0.6933621 1 1 1
v -0.5459808 3.609557E-16 -1.360998 1 1 1
v -0.5459808 0.2 -1.360998 1 1 1
v -0.7586328 0.2 -0.6933621 1 1 1
v -0.6676361 0.2 -1.239343 1 1 1
v -0.6676361 3.609557E-16 -1.239343 1 1 1
v -0.7586328 3.609557E-16 -0.6933621 1 1 1
v 2 0.2 -1.001995 1 1 1
v 2 0 -1.001995 1 1 1
v 2 0 -5.960464E-08 1 1 1
v -2 0 -1.001995 1 1 1
v -1.492932E-08 0 -1.201995 1 1 1
v -2 0.2 -1.001995 1 1 1
v -1.492932E-08 0.2 -1.201995 1 1 1
v -2 0 0 1 1 1
v -2 0.2 0 1 1 1
v -1.072641 2.957801 -0.4927359 1 1 1
v -1.077616 2.957801 -0.5424878 1 1 1
v -1.122393 2.907801 -0.4877607 1 1 1
v -1.127368 2.907801 -0.5375126 1 1 1
v -1.072641 3.157801 -0.4927359 1 1 1
v -1.122393 3.207801 -0.4877607 1 1 1
v -1.077616 3.157801 -0.5424878 1 1 1
v -1.127368 3.207801 -0.5375126 1 1 1
v -1.510865 2.907801 -0.4991629 1 1 1
v -1.560617 2.957801 -0.4941877 1 1 1
v -1.560617 3.157801 -0.4941877 1 1 1
v -1.510865 3.207801 -0.4991629 1 1 1
v -1.50589 3.207801 -0.449411 1 1 1
v -1.50589 2.907801 -0.449411 1 1 1
v -1.555642 2.957801 -0.4444358 1 1 1
v -1.555642 3.157801 -0.4444358 1 1 1
v -1.128829 2.397031 -0.4871171 1 1 1
v -1.133805 2.397031 -0.5368689 1 1 1
v -1.178581 2.447031 -0.4821419 1 1 1
v -1.183556 2.447031 -0.5318937 1 1 1
v -0.7453319 2.397031 -0.5254668 1 1 1
v -0.69558 2.447031 -0.530442 1 1 1
v -0.69558 2.647031 -0.530442 1 1 1
v -1.178581 2.647031 -0.4821419 1 1 1
v -0.7453319 2.697031 -0.5254668 1 1 1
v -1.128829 2.697031 -0.4871171 1 1 1
v -0.7503071 2.397031 -0.5752187 1 1 1
v -0.7005552 2.447031 -0.5801939 1 1 1
v -0.7503071 2.697031 -0.5752187 1 1 1
v -1.133805 2.697031 -0.5368689 1 1 1
v -0.7005552 2.647031 -0.5801939 1 1 1
v -1.183556 2.647031 -0.5318937 1 1 1
v 1.471186 1.463198 -0.5031307 1 1 1
v 1.421434 1.413198 -0.5081059 1 1 1
v 1.466211 1.463198 -0.4533789 1 1 1
v 1.416459 1.413198 -0.4583541 1 1 1
v 0.9881846 1.463198 -0.5514309 1 1 1
v 0.9881846 1.663198 -0.5514309 1 1 1
v 0.9832095 1.463198 -0.501679 1 1 1
v 0.9832095 1.663198 -0.501679 1 1 1
v 1.037936 1.713198 -0.5464557 1 1 1
v 1.032961 1.713198 -0.4967038 1 1 1
v 1.037936 1.413198 -0.5464557 1 1 1
v 1.471186 1.663198 -0.5031307 1 1 1
v 1.421434 1.713198 -0.5081059 1 1 1
v 1.032961 1.413198 -0.4967038 1 1 1
v 1.466211 1.663198 -0.4533789 1 1 1
v 1.416459 1.713198 -0.4583541 1 1 1
v -2.021352E-13 0.2 -0.06254756 1 1 1
v -0.44505 0.2 -0.1367226 1 1 1
v -2.021352E-13 0.6 -0.06254756 1 1 1
v -0.44505 0.6 -0.1367226 1 1 1
v -0.44505 0.2 -1.026823 1 1 1
v -1.963599E-13 0.2 -1.100998 1 1 1
v -0.44505 0.6 -1.026823 1 1 1
v -1.963599E-13 0.6 -1.100998 1 1 1
v 0.44505 0.2 -0.1367226 1 1 1
v 0.44505 0.6 -0.1367226 1 1 1
v 0.519225 0.6 -0.5817726 1 1 1
v 0.519225 0.2 -0.5817726 1 1 1
v 0.44505 0.6 -1.026823 1 1 1
v -0.519225 0.6 -0.5817726 1 1 1
v -0.519225 0.2 -0.5817726 1 1 1
v 0.44505 0.2 -1.026823 1 1 1
v 0.48375 4.233286 -1.065523 1 1 1
v 0.48375 3.833286 -1.065523 1 1 1
v 0.564375 4.233286 -0.5817726 1 1 1
v 0.564375 3.833286 -0.5817726 1 1 1
v -2.021352E-13 3.833286 -0.01739758 1 1 1
v -0.48375 3.833286 -0.09802258 1 1 1
v -2.021352E-13 4.233286 -0.01739758 1 1 1
v -0.48375 4.233286 -0.09802258 1 1 1
v 0.48375 3.833286 -0.09802258 1 1 1
v 0.48375 4.233286 -0.09802258 1 1 1
v -2.136858E-13 3.833286 -1.146147 1 1 1
v -2.136858E-13 4.233286 -1.146147 1 1 1
v -0.48375 3.833286 -1.065523 1 1 1
v -0.48375 4.233286 -1.065523 1 1 1
v -0.564375 3.833286 -0.5817726 1 1 1
v -0.564375 4.233286 -0.5817726 1 1 1
v -0.4375 3.833286 -0.5817726 1 1 1
v -0.375 3.833286 -0.2067726 1 1 1
v -0.35 0.6 -0.5817726 1 1 1
v -0.3 0.6 -0.2817726 1 1 1
v -0.375 3.833286 -0.9567726 1 1 1
v -0.3 0.6 -0.8817726 1 1 1
v -1.963599E-13 0.6 -0.9317726 1 1 1
v 0.3 0.6 -0.8817726 1 1 1
v -1.963599E-13 3.833286 -1.019273 1 1 1
v 0.375 3.833286 -0.9567726 1 1 1
v 0.3 0.6 -0.2817726 1 1 1
v -1.848093E-13 0.6 -0.2317726 1 1 1
v 0.375 3.833286 -0.2067726 1 1 1
v -1.963599E-13 3.833286 -0.1442726 1 1 1
v 0.4375 3.833286 -0.5817726 1 1 1
v 0.35 0.6 -0.5817726 1 1 1

vn -0.7071068 0.5773503 -0.4082483
vn -0.5202672 0.7994348 -0.3003764
vn -0.4082483 0.5773503 0.7071068
vn -0.3003764 0.7994348 0.5202672
vn 0.4082483 -0.5773503 -0.7071068
vn 0.5202672 -0.7994348 0.3003764
vn 0.7071068 -0.5773503 0.4082483
vn 0.3003764 -0.7994348 -0.5202672
vn 0.7071068 0.5773503 0.4082483
vn 0.5202672 0.7994348 0.3003764
vn -0.5202672 -0.7994348 -0.3003764
vn -0.7071068 -0.5773503 -0.4082483
vn 0.4082483 0.5773503 0.7071068
vn -0.7071068 0.5773503 0.4082483
vn 0.3003764 0.7994348 0.5202672
vn -0.5202672 0.7994348 0.3003764
vn -0.3003764 -0.7994348 -0.5202672
vn 0.7071068 -0.5773503 -0.4082483
vn -0.4082483 -0.5773503 -0.7071068
vn 0.5202672 -0.7994348 -0.3003764
vn -0.4082483 0.5773503 -0.7071068
vn -0.3003764 0.7994348 -0.5202672
vn 0.3003764 -0.7994348 0.5202672
vn 0.4082483 -0.5773503 0.7071068
vn -0.6666667 0.3333333 -0.6666667
vn -0.5033765 0.7022992 -0.5033765
vn -0.6666667 0.3333333 0.6666667
vn -0.5033765 0.7022992 0.5033765
vn 0.6666667 -0.3333333 -0.6666667
vn 0.5033765 -0.7022992 0.5033765
vn 0.6666667 -0.3333333 0.6666667
vn 0.5033765 -0.7022992 -0.5033765
vn 0.5033765 0.7022992 -0.5033765
vn 0.5033765 0.7022992 0.5033765
vn -0.5033765 -0.7022992 -0.5033765
vn -0.5033765 -0.7022992 0.5033765
vn 0.6666667 0.3333333 0.6666667
vn -0.6666667 -0.3333333 -0.6666667
vn 0.6666667 0.3333333 -0.6666667
vn -0.6666667 -0.3333333 0.6666667
vn 0.7071068 0.5773503 -0.4082483
vn 0.5202672 0.7994348 -0.3003764
vn -0.5202672 -0.7994348 0.3003764
vn -0.7071068 -0.5773503 0.4082483
vn 0.4082483 0.5773503 -0.7071068
vn 0.3003764 0.7994348 -0.5202672
vn -0.4082483 -0.5773503 0.7071068
vn -0.3003764 -0.7994348 0.5202672
vn 0.4245382 0.9054101 0
vn 0 0.9054101 0.4245382
vn 0 0.9054101 -0.4245382
vn -0.4245382 0.9054101 0
vn 0 -0.9054101 0.4245382
vn 0 -0.9054101 -0.4245382
vn -0.4245382 -0.9054101 0
vn 0.4245382 -0.9054101 0
vn 0 0.8164966 -0.5773503
vn -0.5773503 0.8164966 0
vn 0 -0.8164966 0.5773503
vn 0.5773503 -0.8164966 0
vn 0.2886751 0.8164966 -0.5
vn 0.2122691 0.90541 -0.3676609
vn -0.5 0.8164966 -0.2886751
vn -0.3676609 0.90541 -0.2122691
vn 0.5 -0.8164966 0.2886751
vn -0.2122691 -0.90541 0.3676609
vn -0.2886751 -0.8164966 0.5
vn 0.3676609 -0.90541 0.2122691
vn 0.5773503 0.8164966 0
vn -0.5773503 -0.8164966 0
vn 0 0.8164966 0.5773503
vn 0 -0.8164966 -0.5773503
vn 0.5 0.8164966 0.2886751
vn -0.2886751 0.8164966 0.5
vn 0.3676609 0.90541 0.2122691
vn -0.2122691 0.90541 0.3676609
vn -0.3676609 -0.90541 -0.2122691
vn 0.2886751 -0.8164966 -0.5
vn -0.5 -0.8164966 -0.2886751
vn 0.2122691 -0.90541 -0.3676609
vn -0.09950371 0 -0.9950371
vn 0 0 -1
vn 0.09950371 0 0.9950371
vn 0 0 1
vn 0 1 0
vn 0 -1 0
vn 0.09950371 0 -0.9950371
vn -0.09950371 0 0.9950371
vn 1 0 0
vn -1 0 0
vn 0.4575815 0 -0.8891677
vn -0.4575815 0 0.8891677
vn 0.8891677 0 -0.4575816
vn 0.986394 0 -0.164399
vn -0.986394 0 0.164399
vn -0.8891677 0 0.4575816
vn -0.4575816 0 -0.8891677
vn 0.4575816 0 0.8891677
vn -0.8891677 0 -0.4575815
vn -0.986394 0 -0.164399
vn 0.986394 0 0.164399
vn 0.8891677 0 0.4575815
vn -0.09950373 0 -0.9950371
vn 0.09950373 0 0.9950371
vn 0.0995037 0 -0.9950371
vn -0.0995037 0 0.9950371
vn 0.9192945 -0.3826834 -0.09192945
vn 0.3807842 -0.9238795 -0.03807842
vn -0.3807842 0.9238795 0.03807842
vn -0.9192945 0.3826834 0.09192945
vn 0.9192945 0.3826834 -0.09192945
vn 0.3807842 0.9238795 -0.03807842
vn -0.9192945 -0.3826834 0.09192945
vn -0.3807842 -0.9238795 0.03807842
vn 0.9192945 -0.3826834 0.09192945
vn 0.3807842 -0.9238795 0.03807842
vn -0.9192945 0.3826834 -0.09192945
vn -0.3807842 0.9238795 -0.03807842
vn -0.9192945 -0.3826834 -0.09192945
vn 0.9192945 0.3826834 0.09192945
vn -0.3807842 -0.9238795 -0.03807842
vn 0.3807842 0.9238795 0.03807842
vn -0.164399 0 0.986394
vn 0.164399 0 -0.986394
vn -0.164399 0 -0.986394
vn 0.164399 0 0.986394
vn 0.986394 0 0.164399
vn -0.986394 0 -0.164399
vn -0.986394 0 0.164399
vn 0.986394 0 -0.164399
vn -0.999634 -0.02705235 0
vn -0.9860427 -0.02668454 0.1643405
vn 0.999634 0.02705235 0
vn 0.9860427 0.02668454 -0.1643405
vn -0.9860427 -0.02668454 -0.1643405
vn 0.9860427 0.02668454 0.1643405
vn 0 -0.02705235 -0.999634
vn 0.1643405 -0.02668453 -0.9860427
vn 0 0.02705235 0.999634
vn -0.1643405 0.02668453 0.9860427
vn 0.1643405 -0.02668453 0.9860427
vn 0 -0.02705235 0.999634
vn -0.1643405 0.02668453 -0.9860427
vn 0 0.02705235 -0.999634
vn 0.9860427 -0.02668454 -0.1643405
vn 0.999634 -0.02705235 0
vn -0.999634 0.02705235 0
vn -0.9860427 0.02668454 0.1643405
vn 0.9860427 -0.02668454 0.1643405
vn -0.9860427 0.02668454 -0.1643405
vn -0.1643405 -0.02668453 -0.9860427
vn 0.1643405 0.02668453 0.9860427
vn -0.1643405 -0.02668453 0.9860427
vn 0.1643405 0.02668453 -0.9860427

vt 0.46875 0.025
vt 0.46875 0.065
vt 0.46875 0.105
vt 0.09375 0.025
vt 0.09375 0.225
vt 0.34375 0.025
vt 0.34375 0.225
vt 0.34375 0.105
vt 0.34375 0.1947402
vt 0.34375 0.1923779
vt 0.34375 0.2041891
vt 0.34375 0.2065513
vt 0.34375 0.1682468
vt 0.34375 0.170609
vt 0.34375 0.1800579
vt 0.34375 0.1824202
vt 0.34375 0.1241282
vt 0.34375 0.121766
vt 0.34375 0.1335772
vt 0.34375 0.1359394
vt 0.21875 0.145
vt 0.21875 0.225
vt 0.21875 0.075
vt 0.21875 0.175

usemtl colormap

f 3/1/3 2/2/2 1/1/1
f 2/2/2 3/1/3 4/2/4
f 1/1/7 2/2/6 3/1/5
f 4/2/8 3/1/5 2/2/6
f 6/2/10 3/1/3 5/1/9
f 3/1/3 6/2/10 4/2/4
f 5/1/12 3/1/5 6/2/11
f 4/2/8 6/2/11 3/1/5
f 9/3/15 8/1/14 7/1/13
f 8/1/14 9/3/15 10/3/16
f 7/1/19 8/1/18 9/3/17
f 10/3/20 9/3/17 8/1/18
f 8/1/14 12/3/22 11/1/21
f 12/3/22 8/1/14 10/3/16
f 11/1/24 12/3/23 8/1/18
f 10/3/20 8/1/18 12/3/23
f 15/1/27 14/3/26 13/1/25
f 14/3/26 15/1/27 16/3/28
f 13/1/31 14/3/30 15/1/29
f 16/3/32 15/1/29 14/3/30
f 14/3/26 18/3/34 17/3/33
f 18/3/34 14/3/26 16/3/28
f 17/3/36 18/3/35 14/3/30
f 16/3/32 14/3/30 18/3/35
f 18/3/34 15/1/27 19/1/37
f 15/1/27 18/3/34 16/3/28
f 19/1/38 15/1/29 18/3/35
f 16/3/32 18/3/35 15/1/29
f 14/3/26 20/1/39 13/1/25
f 20/1/39 14/3/26 17/3/33
f 13/1/31 20/1/40 14/3/30
f 17/3/36 14/3/30 20/1/40
f 17/3/33 19/1/37 20/1/39
f 19/1/37 17/3/33 18/3/34
f 20/1/40 19/1/38 17/3/36
f 18/3/35 17/3/36 19/1/38
f 22/3/42 7/1/13 21/1/41
f 7/1/13 22/3/42 9/3/15
f 21/1/44 7/1/19 22/3/43
f 9/3/17 22/3/43 7/1/19
f 2/2/2 23/1/45 1/1/1
f 23/1/45 2/2/2 24/2/46
f 1/1/7 23/1/47 2/2/6
f 24/2/48 2/2/6 23/1/47
f 12/3/22 21/1/41 11/1/21
f 21/1/41 12/3/22 22/3/42
f 11/1/24 21/1/44 12/3/23
f 22/3/43 12/3/23 21/1/44
f 12/3/22 9/3/15 22/3/42
f 9/3/15 12/3/22 10/3/16
f 22/3/43 9/3/17 12/3/23
f 10/3/20 12/3/23 9/3/17
f 27/2/51 26/2/50 25/2/49
f 26/2/50 27/2/51 28/2/52
f 25/2/55 26/2/54 27/2/53
f 28/2/56 27/2/53 26/2/54
f 24/2/46 4/2/4 6/2/10
f 4/2/4 24/2/46 2/2/2
f 6/2/11 4/2/8 24/2/48
f 2/2/6 24/2/48 4/2/8
f 29/1/57 28/2/52 27/2/51
f 28/2/52 29/1/57 30/1/58
f 27/2/53 28/2/56 29/1/59
f 30/1/60 29/1/59 28/2/56
f 33/1/63 32/2/62 31/1/61
f 32/2/62 33/1/63 34/2/64
f 31/1/67 32/2/66 33/1/65
f 34/2/68 33/1/65 32/2/66
f 29/1/57 25/2/49 35/1/69
f 25/2/49 29/1/57 27/2/51
f 35/1/70 25/2/55 29/1/59
f 27/2/53 29/1/59 25/2/55
f 28/2/52 36/1/71 26/2/50
f 36/1/71 28/2/52 30/1/58
f 26/2/54 36/1/72 28/2/56
f 30/1/60 28/2/56 36/1/72
f 39/2/75 38/1/74 37/1/73
f 38/1/74 39/2/75 40/2/76
f 37/1/79 38/1/78 39/2/77
f 40/2/80 39/2/77 38/1/78
f 25/2/49 36/1/71 35/1/69
f 36/1/71 25/2/49 26/2/50
f 35/1/70 36/1/72 25/2/55
f 26/2/54 25/2/55 36/1/72
f 31/1/61 39/2/75 37/1/73
f 39/2/75 31/1/61 32/2/62
f 37/1/79 39/2/77 31/1/67
f 32/2/66 31/1/67 39/2/77
f 34/2/64 38/1/74 40/2/76
f 38/1/74 34/2/64 33/1/63
f 40/2/80 38/1/78 34/2/68
f 33/1/65 34/2/68 38/1/78
f 32/2/62 40/2/76 39/2/75
f 40/2/76 32/2/62 34/2/64
f 39/2/77 40/2/80 32/2/66
f 34/2/68 32/2/66 40/2/80
f 24/2/46 5/1/9 23/1/45
f 5/1/9 24/2/46 6/2/10
f 23/1/47 5/1/12 24/2/48
f 6/2/11 24/2/48 5/1/12
f 43/5/81 42/4/82 41/4/81
f 42/4/82 43/5/81 44/5/82
f 41/4/83 42/4/84 43/5/83
f 44/5/84 43/5/83 42/4/84
f 47/5/85 46/5/85 45/5/85
f 46/5/85 47/5/85 44/5/85
f 46/5/85 44/5/85 43/5/85
f 45/5/86 46/5/86 47/5/86
f 44/5/86 47/5/86 46/5/86
f 43/5/86 44/5/86 46/5/86
f 45/5/84 49/4/84 48/4/84
f 49/4/84 45/5/84 46/5/84
f 48/4/82 49/4/82 45/5/82
f 46/5/82 45/5/82 49/4/82
f 44/5/82 50/4/87 42/4/82
f 50/4/87 44/5/82 47/5/87
f 42/4/84 50/4/88 44/5/84
f 47/5/88 44/5/84 50/4/88
f 45/5/89 50/4/89 47/5/89
f 50/4/89 45/5/89 48/4/89
f 47/5/90 50/4/90 45/5/90
f 48/4/90 45/5/90 50/4/90
f 49/4/90 43/5/90 41/4/90
f 43/5/90 49/4/90 46/5/90
f 41/4/89 43/5/89 49/4/89
f 46/5/89 49/4/89 43/5/89
f 53/7/84 52/6/84 51/6/84
f 52/6/84 53/7/84 54/7/84
f 51/6/82 52/6/82 53/7/82
f 54/7/82 53/7/82 52/6/82
f 53/7/89 56/6/89 55/7/89
f 56/6/89 53/7/89 51/6/89
f 55/7/90 56/6/90 53/7/90
f 51/6/90 53/7/90 56/6/90
f 52/6/90 58/7/90 57/6/90
f 58/7/90 52/6/90 54/7/90
f 57/6/89 58/7/89 52/6/89
f 54/7/89 52/6/89 58/7/89
f 55/7/85 54/7/85 53/7/85
f 54/7/85 55/7/85 59/7/85
f 54/7/85 59/7/85 58/7/85
f 53/7/86 54/7/86 55/7/86
f 59/7/86 55/7/86 54/7/86
f 58/7/86 59/7/86 54/7/86
f 58/7/81 60/6/82 57/6/81
f 60/6/82 58/7/81 59/7/82
f 57/6/83 60/6/84 58/7/83
f 59/7/84 58/7/83 60/6/84
f 59/7/82 56/6/87 60/6/82
f 56/6/87 59/7/82 55/7/87
f 60/6/84 56/6/88 59/7/84
f 55/7/88 59/7/84 56/6/88
f 63/8/82 62/6/91 61/6/82
f 62/6/91 63/8/82 64/8/91
f 61/6/84 62/6/92 63/8/84
f 64/8/92 63/8/84 62/6/92
f 67/8/94 66/6/93 65/8/93
f 66/6/93 67/8/94 68/6/94
f 65/8/96 66/6/96 67/8/95
f 68/6/95 67/8/95 66/6/96
f 64/8/91 66/6/93 62/6/91
f 66/6/93 64/8/91 65/8/93
f 62/6/92 66/6/96 64/8/92
f 65/8/96 64/8/92 66/6/96
f 70/8/97 61/6/82 69/6/97
f 61/6/82 70/8/97 63/8/82
f 69/6/98 61/6/84 70/8/98
f 63/8/84 70/8/98 61/6/84
f 65/8/85 71/8/85 67/8/85
f 71/8/85 65/8/85 64/8/85
f 71/8/85 64/8/85 63/8/85
f 71/8/85 63/8/85 70/8/85
f 71/8/85 70/8/85 72/8/85
f 67/8/86 71/8/86 65/8/86
f 64/8/86 65/8/86 71/8/86
f 63/8/86 64/8/86 71/8/86
f 70/8/86 63/8/86 71/8/86
f 72/8/86 70/8/86 71/8/86
f 74/6/100 72/8/99 73/6/99
f 72/8/99 74/6/100 71/8/100
f 73/6/102 72/8/102 74/6/101
f 71/8/101 74/6/101 72/8/102
f 73/6/99 70/8/97 69/6/97
f 70/8/97 73/6/99 72/8/99
f 69/6/98 70/8/98 73/6/102
f 72/8/102 73/6/102 70/8/98
f 48/8/89 76/6/89 75/8/89
f 76/6/89 48/8/89 77/6/89
f 75/8/90 76/6/90 48/8/90
f 77/6/90 48/8/90 76/6/90
f 80/8/103 79/6/82 78/6/103
f 79/6/82 80/8/103 81/8/82
f 78/6/104 79/6/84 80/8/104
f 81/8/84 80/8/104 79/6/84
f 48/8/84 82/6/84 77/6/84
f 82/6/84 48/8/84 83/8/84
f 77/6/82 82/6/82 48/8/82
f 83/8/82 48/8/82 82/6/82
f 81/8/82 76/6/105 79/6/82
f 76/6/105 81/8/82 75/8/105
f 79/6/84 76/6/106 81/8/84
f 75/8/106 81/8/84 76/6/106
f 82/6/86 76/6/86 77/6/86
f 76/6/86 82/6/86 79/6/86
f 79/6/86 82/6/86 78/6/86
f 77/6/85 76/6/85 82/6/85
f 79/6/85 82/6/85 76/6/85
f 78/6/85 82/6/85 79/6/85
f 75/8/85 83/8/85 48/8/85
f 83/8/85 75/8/85 81/8/85
f 83/8/85 81/8/85 80/8/85
f 48/8/86 83/8/86 75/8/86
f 81/8/86 75/8/86 83/8/86
f 80/8/86 81/8/86 83/8/86
f 82/6/90 80/8/90 78/6/90
f 80/8/90 82/6/90 83/8/90
f 78/6/89 80/8/89 82/6/89
f 83/8/89 82/6/89 80/8/89
f 86/10/108 85/9/107 84/9/107
f 85/9/107 86/10/108 87/10/108
f 84/9/110 85/9/110 86/10/109
f 87/10/109 86/10/109 85/9/110
f 90/11/111 89/12/112 88/11/111
f 89/12/112 90/11/111 91/12/112
f 88/11/113 89/12/114 90/11/113
f 91/12/114 90/11/113 89/12/114
f 93/9/81 87/10/81 92/10/81
f 87/10/81 93/9/81 85/9/81
f 85/9/81 93/9/81 94/11/81
f 85/9/81 94/11/81 90/11/81
f 90/11/81 94/11/81 95/12/81
f 90/11/81 95/12/81 91/12/81
f 92/10/83 87/10/83 93/9/83
f 85/9/83 93/9/83 87/10/83
f 94/11/83 93/9/83 85/9/83
f 90/11/83 94/11/83 85/9/83
f 95/12/83 94/11/83 90/11/83
f 91/12/83 95/12/83 90/11/83
f 91/12/112 96/12/109 89/12/112
f 96/12/109 91/12/112 95/12/109
f 89/12/114 96/12/108 91/12/114
f 95/12/108 91/12/114 96/12/108
f 98/9/113 92/10/114 97/10/114
f 92/10/114 98/9/113 93/9/113
f 97/10/112 92/10/112 98/9/111
f 93/9/111 98/9/111 92/10/112
f 84/9/83 97/10/83 86/10/83
f 97/10/83 84/9/83 98/9/83
f 98/9/83 84/9/83 88/11/83
f 98/9/83 88/11/83 99/11/83
f 99/11/83 88/11/83 89/12/83
f 99/11/83 89/12/83 96/12/83
f 86/10/81 97/10/81 84/9/81
f 98/9/81 84/9/81 97/10/81
f 88/11/81 84/9/81 98/9/81
f 99/11/81 88/11/81 98/9/81
f 89/12/81 88/11/81 99/11/81
f 96/12/81 89/12/81 99/11/81
f 95/12/109 99/11/110 96/12/109
f 99/11/110 95/12/109 94/11/110
f 96/12/108 99/11/107 95/12/108
f 94/11/107 95/12/108 99/11/107
f 97/10/114 87/10/108 86/10/108
f 87/10/108 97/10/114 92/10/114
f 86/10/109 87/10/109 97/10/112
f 92/10/112 97/10/112 87/10/109
f 88/11/111 85/9/107 90/11/111
f 85/9/107 88/11/111 84/9/107
f 90/11/113 85/9/110 88/11/113
f 84/9/110 88/11/113 85/9/110
f 98/9/113 94/11/110 93/9/113
f 94/11/110 98/9/113 99/11/110
f 93/9/111 94/11/107 98/9/111
f 99/11/107 98/9/111 94/11/107
f 102/14/113 101/13/114 100/13/114
f 101/13/114 102/14/113 103/14/113
f 100/13/112 101/13/112 102/14/111
f 103/14/111 102/14/111 101/13/112
f 105/14/83 100/13/83 104/13/83
f 100/13/83 105/14/83 102/14/83
f 102/14/83 105/14/83 106/15/83
f 102/14/83 106/15/83 107/15/83
f 107/15/83 106/15/83 108/16/83
f 107/15/83 108/16/83 109/16/83
f 104/13/81 100/13/81 105/14/81
f 102/14/81 105/14/81 100/13/81
f 106/15/81 105/14/81 102/14/81
f 107/15/81 106/15/81 102/14/81
f 108/16/81 106/15/81 107/15/81
f 109/16/81 108/16/81 107/15/81
f 100/13/114 110/13/108 104/13/108
f 110/13/108 100/13/114 101/13/114
f 104/13/109 110/13/109 100/13/112
f 101/13/112 100/13/112 110/13/109
f 104/13/108 111/14/107 105/14/107
f 111/14/107 104/13/108 110/13/108
f 105/14/110 111/14/110 104/13/109
f 110/13/109 104/13/109 111/14/110
f 112/16/112 109/16/109 108/16/112
f 109/16/109 112/16/112 113/16/109
f 108/16/114 109/16/108 112/16/114
f 113/16/108 112/16/114 109/16/108
f 106/15/111 111/14/107 114/15/111
f 111/14/107 106/15/111 105/14/107
f 114/15/113 111/14/110 106/15/113
f 105/14/110 106/15/113 111/14/110
f 113/16/109 107/15/110 109/16/109
f 107/15/110 113/16/109 115/15/110
f 109/16/108 107/15/107 113/16/108
f 115/15/107 113/16/108 107/15/107
f 102/14/113 115/15/110 103/14/113
f 115/15/110 102/14/113 107/15/110
f 103/14/111 115/15/107 102/14/111
f 107/15/107 102/14/111 115/15/107
f 114/15/111 108/16/112 106/15/111
f 108/16/112 114/15/111 112/16/112
f 106/15/113 108/16/114 114/15/113
f 112/16/114 114/15/113 108/16/114
f 103/14/81 110/13/81 101/13/81
f 110/13/81 103/14/81 111/14/81
f 111/14/81 103/14/81 115/15/81
f 111/14/81 115/15/81 114/15/81
f 114/15/81 115/15/81 113/16/81
f 114/15/81 113/16/81 112/16/81
f 101/13/83 110/13/83 103/14/83
f 111/14/83 103/14/83 110/13/83
f 115/15/83 103/14/83 111/14/83
f 114/15/83 115/15/83 111/14/83
f 113/16/83 115/15/83 114/15/83
f 112/16/83 113/16/83 114/15/83
f 118/17/115 117/18/116 116/17/115
f 117/18/116 118/17/115 119/18/116
f 116/17/117 117/18/118 118/17/117
f 119/18/118 118/17/117 117/18/118
f 122/17/119 121/19/117 120/17/119
f 121/19/117 122/17/119 123/19/117
f 120/17/120 121/19/115 122/17/120
f 123/19/115 122/17/120 121/19/115
f 121/19/117 125/20/118 124/20/118
f 125/20/118 121/19/117 123/19/117
f 124/20/116 125/20/116 121/19/115
f 123/19/115 121/19/115 125/20/116
f 120/17/87 117/18/87 126/18/87
f 117/18/87 120/17/87 116/17/87
f 116/17/87 120/17/87 121/19/87
f 116/17/87 121/19/87 127/19/87
f 127/19/87 121/19/87 124/20/87
f 127/19/87 124/20/87 128/20/87
f 126/18/88 117/18/88 120/17/88
f 116/17/88 120/17/88 117/18/88
f 121/19/88 120/17/88 116/17/88
f 127/19/88 121/19/88 116/17/88
f 124/20/88 121/19/88 127/19/88
f 128/20/88 124/20/88 127/19/88
f 119/18/116 126/18/121 117/18/116
f 126/18/121 119/18/116 129/18/121
f 117/18/118 126/18/122 119/18/118
f 129/18/122 119/18/118 126/18/122
f 118/17/88 129/18/88 119/18/88
f 129/18/88 118/17/88 122/17/88
f 122/17/88 118/17/88 130/19/88
f 122/17/88 130/19/88 123/19/88
f 123/19/88 130/19/88 131/20/88
f 123/19/88 131/20/88 125/20/88
f 119/18/87 129/18/87 118/17/87
f 122/17/87 118/17/87 129/18/87
f 130/19/87 118/17/87 122/17/87
f 123/19/87 130/19/87 122/17/87
f 131/20/87 130/19/87 123/19/87
f 125/20/87 131/20/87 123/19/87
f 124/20/118 131/20/122 128/20/122
f 131/20/122 124/20/118 125/20/118
f 128/20/121 131/20/121 124/20/116
f 125/20/116 124/20/116 131/20/121
f 129/18/121 120/17/119 126/18/121
f 120/17/119 129/18/121 122/17/119
f 126/18/122 120/17/120 129/18/122
f 122/17/120 129/18/122 120/17/120
f 128/20/122 130/19/120 127/19/120
f 130/19/120 128/20/122 131/20/122
f 127/19/119 130/19/119 128/20/121
f 131/20/121 128/20/121 130/19/119
f 130/19/120 116/17/115 127/19/120
f 116/17/115 130/19/120 118/17/115
f 127/19/119 116/17/117 130/19/119
f 118/17/117 130/19/119 116/17/117
f 134/22/84 133/21/123 132/21/84
f 133/21/123 134/22/84 135/22/123
f 132/21/82 133/21/124 134/22/82
f 135/22/124 134/22/82 133/21/124
f 138/22/125 137/21/82 136/21/125
f 137/21/82 138/22/125 139/22/82
f 136/21/126 137/21/84 138/22/126
f 139/22/84 138/22/126 137/21/84
f 141/22/126 132/21/84 140/21/126
f 132/21/84 141/22/126 134/22/84
f 140/21/125 132/21/82 141/22/125
f 134/22/82 141/22/125 132/21/82
f 141/22/127 143/21/89 142/22/89
f 143/21/89 141/22/127 140/21/127
f 142/22/90 143/21/90 141/22/128
f 140/21/128 141/22/128 143/21/90
f 144/22/85 141/22/85 142/22/85
f 141/22/85 144/22/85 139/22/85
f 141/22/85 139/22/85 134/22/85
f 134/22/85 139/22/85 138/22/85
f 134/22/85 138/22/85 135/22/85
f 135/22/85 138/22/85 145/22/85
f 142/22/86 141/22/86 144/22/86
f 139/22/86 144/22/86 141/22/86
f 134/22/86 139/22/86 141/22/86
f 138/22/86 139/22/86 134/22/86
f 135/22/86 138/22/86 134/22/86
f 145/22/86 138/22/86 135/22/86
f 146/21/90 138/22/128 136/21/128
f 138/22/128 146/21/90 145/22/90
f 136/21/127 138/22/127 146/21/89
f 145/22/89 146/21/89 138/22/127
f 133/21/129 145/22/90 146/21/90
f 145/22/90 133/21/129 135/22/129
f 146/21/89 145/22/89 133/21/130
f 135/22/130 133/21/130 145/22/89
f 142/22/89 147/21/130 144/22/130
f 147/21/130 142/22/89 143/21/89
f 144/22/129 147/21/129 142/22/90
f 143/21/90 142/22/90 147/21/129
f 139/22/82 147/21/124 137/21/82
f 147/21/124 139/22/82 144/22/124
f 137/21/84 147/21/123 139/22/84
f 144/22/123 139/22/84 147/21/123
f 150/22/89 149/21/130 148/22/130
f 149/21/130 150/22/89 151/21/89
f 148/22/129 149/21/129 150/22/90
f 151/21/90 150/22/90 149/21/129
f 154/22/84 153/21/123 152/21/84
f 153/21/123 154/22/84 155/22/123
f 152/21/82 153/21/124 154/22/82
f 155/22/124 154/22/82 153/21/124
f 157/22/126 152/21/84 156/21/126
f 152/21/84 157/22/126 154/22/84
f 156/21/125 152/21/82 157/22/125
f 154/22/82 157/22/125 152/21/82
f 159/22/82 149/21/124 158/21/82
f 149/21/124 159/22/82 148/22/124
f 158/21/84 149/21/123 159/22/84
f 148/22/123 159/22/84 149/21/123
f 161/22/125 158/21/82 160/21/125
f 158/21/82 161/22/125 159/22/82
f 160/21/126 158/21/84 161/22/126
f 159/22/84 161/22/126 158/21/84
f 162/21/90 161/22/128 160/21/128
f 161/22/128 162/21/90 163/22/90
f 160/21/127 161/22/127 162/21/89
f 163/22/89 162/21/89 161/22/127
f 153/21/129 163/22/90 162/21/90
f 163/22/90 153/21/129 155/22/129
f 162/21/89 163/22/89 153/21/130
f 155/22/130 153/21/130 163/22/89
f 148/22/85 157/22/85 150/22/85
f 157/22/85 148/22/85 154/22/85
f 154/22/85 148/22/85 159/22/85
f 154/22/85 159/22/85 155/22/85
f 155/22/85 159/22/85 161/22/85
f 155/22/85 161/22/85 163/22/85
f 150/22/86 157/22/86 148/22/86
f 154/22/86 148/22/86 157/22/86
f 159/22/86 148/22/86 154/22/86
f 155/22/86 159/22/86 154/22/86
f 161/22/86 159/22/86 155/22/86
f 163/22/86 161/22/86 155/22/86
f 156/21/86 149/21/86 151/21/86
f 149/21/86 156/21/86 152/21/86
f 149/21/86 152/21/86 158/21/86
f 158/21/86 152/21/86 153/21/86
f 158/21/86 153/21/86 160/21/86
f 160/21/86 153/21/86 162/21/86
f 151/21/85 149/21/85 156/21/85
f 152/21/85 156/21/85 149/21/85
f 158/21/85 152/21/85 149/21/85
f 153/21/85 152/21/85 158/21/85
f 160/21/85 153/21/85 158/21/85
f 162/21/85 153/21/85 160/21/85
f 157/22/127 151/21/89 150/22/89
f 151/21/89 157/22/127 156/21/127
f 150/22/90 151/21/90 157/22/128
f 156/21/128 157/22/128 151/21/90
f 166/24/131 165/23/132 164/23/131
f 165/23/132 166/24/131 167/24/132
f 164/23/133 165/23/134 166/24/133
f 167/24/134 166/24/133 165/23/134
f 169/24/135 164/23/131 168/23/135
f 164/23/131 169/24/135 166/24/131
f 168/23/136 164/23/133 169/24/136
f 166/24/133 169/24/136 164/23/133
f 172/23/137 171/24/138 170/24/137
f 171/24/138 172/23/137 173/23/138
f 170/24/139 171/24/140 172/23/139
f 173/23/140 172/23/139 171/24/140
f 176/23/141 175/24/142 174/24/141
f 175/24/142 176/23/141 177/23/142
f 174/24/143 175/24/144 176/23/143
f 177/23/144 176/23/143 175/24/144
f 178/23/146 171/24/145 173/23/145
f 171/24/145 178/23/146 179/24/146
f 173/23/148 171/24/148 178/23/147
f 179/24/147 178/23/147 171/24/148
f 176/23/149 179/24/146 178/23/146
f 179/24/146 176/23/149 174/24/149
f 178/23/147 179/24/147 176/23/150
f 174/24/150 176/23/150 179/24/147
f 168/23/151 170/24/137 169/24/151
f 170/24/137 168/23/151 172/23/137
f 169/24/152 170/24/139 168/23/152
f 172/23/139 168/23/152 170/24/139
f 177/23/142 167/24/153 175/24/142
f 167/24/153 177/23/142 165/23/153
f 175/24/144 167/24/154 177/23/144
f 165/23/154 177/23/144 167/24/154

g template-wall-detail-a




usemtl colormap

f 3/1/3 2/2/2 1/1/1
f 2/2/2 3/1/3 4/2/4
f 1/1/7 2/2/6 3/1/5
f 4/2/8 3/1/5 2/2/6
f 6/2/10 3/1/3 5/1/9
f 3/1/3 6/2/10 4/2/4
f 5/1/12 3/1/5 6/2/11
f 4/2/8 6/2/11 3/1/5
f 9/3/15 8/1/14 7/1/13
f 8/1/14 9/3/15 10/3/16
f 7/1/19 8/1/18 9/3/17
f 10/3/20 9/3/17 8/1/18
f 8/1/14 12/3/22 11/1/21
f 12/3/22 8/1/14 10/3/16
f 11/1/24 12/3/23 8/1/18
f 10/3/20 8/1/18 12/3/23
f 15/1/27 14/3/26 13/1/25
f 14/3/26 15/1/27 16/3/28
f 13/1/31 14/3/30 15/1/29
f 16/3/32 15/1/29 14/3/30
f 14/3/26 18/3/34 17/3/33
f 18/3/34 14/3/26 16/3/28
f 17/3/36 18/3/35 14/3/30
f 16/3/32 14/3/30 18/3/35
f 18/3/34 15/1/27 19/1/37
f 15/1/27 18/3/34 16/3/28
f 19/1/38 15/1/29 18/3/35
f 16/3/32 18/3/35 15/1/29
f 14/3/26 20/1/39 13/1/25
f 20/1/39 14/3/26 17/3/33
f 13/1/31 20/1/40 14/3/30
f 17/3/36 14/3/30 20/1/40
f 17/3/33 19/1/37 20/1/39
f 19/1/37 17/3/33 18/3/34
f 20/1/40 19/1/38 17/3/36
f 18/3/35 17/3/36 19/1/38
f 22/3/42 7/1/13 21/1/41
f 7/1/13 22/3/42 9/3/15
f 21/1/44 7/1/19 22/3/43
f 9/3/17 22/3/43 7/1/19
f 2/2/2 23/1/45 1/1/1
f 23/1/45 2/2/2 24/2/46
f 1/1/7 23/1/47 2/2/6
f 24/2/48 2/2/6 23/1/47
f 12/3/22 21/1/41 11/1/21
f 21/1/41 12/3/22 22/3/42
f 11/1/24 21/1/44 12/3/23
f 22/3/43 12/3/23 21/1/44
f 12/3/22 9/3/15 22/3/42
f 9/3/15 12/3/22 10/3/16
f 22/3/43 9/3/17 12/3/23
f 10/3/20 12/3/23 9/3/17
f 27/2/51 26/2/50 25/2/49
f 26/2/50 27/2/51 28/2/52
f 25/2/55 26/2/54 27/2/53
f 28/2/56 27/2/53 26/2/54
f 24/2/46 4/2/4 6/2/10
f 4/2/4 24/2/46 2/2/2
f 6/2/11 4/2/8 24/2/48
f 2/2/6 24/2/48 4/2/8
f 29/1/57 28/2/52 27/2/51
f 28/2/52 29/1/57 30/1/58
f 27/2/53 28/2/56 29/1/59
f 30/1/60 29/1/59 28/2/56
f 33/1/63 32/2/62 31/1/61
f 32/2/62 33/1/63 34/2/64
f 31/1/67 32/2/66 33/1/65
f 34/2/68 33/1/65 32/2/66
f 29/1/57 25/2/49 35/1/69
f 25/2/49 29/1/57 27/2/51
f 35/1/70 25/2/55 29/1/59
f 27/2/53 29/1/59 25/2/55
f 28/2/52 36/1/71 26/2/50
f 36/1/71 28/2/52 30/1/58
f 26/2/54 36/1/72 28/2/56
f 30/1/60 28/2/56 36/1/72
f 39/2/75 38/1/74 37/1/73
f 38/1/74 39/2/75 40/2/76
f 37/1/79 38/1/78 39/2/77
f 40/2/80 39/2/77 38/1/78
f 25/2/49 36/1/71 35/1/69
f 36/1/71 25/2/49 26/2/50
f 35/1/70 36/1/72 25/2/55
f 26/2/54 25/2/55 36/1/72
f 31/1/61 39/2/75 37/1/73
f 39/2/75 31/1/61 32/2/62
f 37/1/79 39/2/77 31/1/67
f 32/2/66 31/1/67 39/2/77
f 34/2/64 38/1/74 40/2/76
f 38/1/74 34/2/64 33/1/63
f 40/2/80 38/1/78 34/2/68
f 33/1/65 34/2/68 38/1/78
f 32/2/62 40/2/76 39/2/75
f 40/2/76 32/2/62 34/2/64
f 39/2/77 40/2/80 32/2/66
f 34/2/68 32/2/66 40/2/80
f 24/2/46 5/1/9 23/1/45
f 5/1/9 24/2/46 6/2/10
f 23/1/47 5/1/12 24/2/48
f 6/2/11 24/2/48 5/1/12
f 43/5/81 42/4/82 41/4/81
f 42/4/82 43/5/81 44/5/82
f 41/4/83 42/4/84 43/5/83
f 44/5/84 43/5/83 42/4/84
f 47/5/85 46/5/85 45/5/85
f 46/5/85 47/5/85 44/5/85
f 46/5/85 44/5/85 43/5/85
f 45/5/86 46/5/86 47/5/86
f 44/5/86 47/5/86 46/5/86
f 43/5/86 44/5/86 46/5/86
f 45/5/84 49/4/84 48/4/84
f 49/4/84 45/5/84 46/5/84
f 48/4/82 49/4/82 45/5/82
f 46/5/82 45/5/82 49/4/82
f 44/5/82 50/4/87 42/4/82
f 50/4/87 44/5/82 47/5/87
f 42/4/84 50/4/88 44/5/84
f 47/5/88 44/5/84 50/4/88
f 45/5/89 50/4/89 47/5/89
f 50/4/89 45/5/89 48/4/89
f 47/5/90 50/4/90 45/5/90
f 48/4/90 45/5/90 50/4/90
f 49/4/90 43/5/90 41/4/90
f 43/5/90 49/4/90 46/5/90
f 41/4/89 43/5/89 49/4/89
f 46/5/89 49/4/89 43/5/89
f 53/7/84 52/6/84 51/6/84
f 52/6/84 53/7/84 54/7/84
f 51/6/82 52/6/82 53/7/82
f 54/7/82 53/7/82 52/6/82
f 53/7/89 56/6/89 55/7/89
f 56/6/89 53/7/89 51/6/89
f 55/7/90 56/6/90 53/7/90
f 51/6/90 53/7/90 56/6/90
f 52/6/90 58/7/90 57/6/90
f 58/7/90 52/6/90 54/7/90
f 57/6/89 58/7/89 52/6/89
f 54/7/89 52/6/89 58/7/89
f 55/7/85 54/7/85 53/7/85
f 54/7/85 55/7/85 59/7/85
f 54/7/85 59/7/85 58/7/85
f 53/7/86 54/7/86 55/7/86
f 59/7/86 55/7/86 54/7/86
f 58/7/86 59/7/86 54/7/86
f 58/7/81 60/6/82 57/6/81
f 60/6/82 58/7/81 59/7/82
f 57/6/83 60/6/84 58/7/83
f 59/7/84 58/7/83 60/6/84
f 59/7/82 56/6/87 60/6/82
f 56/6/87 59/7/82 55/7/87
f 60/6/84 56/6/88 59/7/84
f 55/7/88 59/7/84 56/6/88
f 63/8/82 62/6/91 61/6/82
f 62/6/91 63/8/82 64/8/91
f 61/6/84 62/6/92 63/8/84
f 64/8/92 63/8/84 62/6/92
f 67/8/94 66/6/93 65/8/93
f 66/6/93 67/8/94 68/6/94
f 65/8/96 66/6/96 67/8/95
f 68/6/95 67/8/95 66/6/96
f 64/8/91 66/6/93 62/6/91
f 66/6/93 64/8/91 65/8/93
f 62/6/92 66/6/96 64/8/92
f 65/8/96 64/8/92 66/6/96
f 70/8/97 61/6/82 69/6/97
f 61/6/82 70/8/97 63/8/82
f 69/6/98 61/6/84 70/8/98
f 63/8/84 70/8/98 61/6/84
f 65/8/85 71/8/85 67/8/85
f 71/8/85 65/8/85 64/8/85
f 71/8/85 64/8/85 63/8/85
f 71/8/85 63/8/85 70/8/85
f 71/8/85 70/8/85 72/8/85
f 67/8/86 71/8/86 65/8/86
f 64/8/86 65/8/86 71/8/86
f 63/8/86 64/8/86 71/8/86
f 70/8/86 63/8/86 71/8/86
f 72/8/86 70/8/86 71/8/86
f 74/6/100 72/8/99 73/6/99
f 72/8/99 74/6/100 71/8/100
f 73/6/102 72/8/102 74/6/101
f 71/8/101 74/6/101 72/8/102
f 73/6/99 70/8/97 69/6/97
f 70/8/97 73/6/99 72/8/99
f 69/6/98 70/8/98 73/6/102
f 72/8/102 73/6/102 70/8/98
f 48/8/89 76/6/89 75/8/89
f 76/6/89 48/8/89 77/6/89
f 75/8/90 76/6/90 48/8/90
f 77/6/90 48/8/90 76/6/90
f 80/8/103 79/6/82 78/6/103
f 79/6/82 80/8/103 81/8/82
f 78/6/104 79/6/84 80/8/104
f 81/8/84 80/8/104 79/6/84
f 48/8/84 82/6/84 77/6/84
f 82/6/84 48/8/84 83/8/84
f 77/6/82 82/6/82 48/8/82
f 83/8/82 48/8/82 82/6/82
f 81/8/82 76/6/105 79/6/82
f 76/6/105 81/8/82 75/8/105
f 79/6/84 76/6/106 81/8/84
f 75/8/106 81/8/84 76/6/106
f 82/6/86 76/6/86 77/6/86
f 76/6/86 82/6/86 79/6/86
f 79/6/86 82/6/86 78/6/86
f 77/6/85 76/6/85 82/6/85
f 79/6/85 82/6/85 76/6/85
f 78/6/85 82/6/85 79/6/85
f 75/8/85 83/8/85 48/8/85
f 83/8/85 75/8/85 81/8/85
f 83/8/85 81/8/85 80/8/85
f 48/8/86 83/8/86 75/8/86
f 81/8/86 75/8/86 83/8/86
f 80/8/86 81/8/86 83/8/86
f 82/6/90 80/8/90 78/6/90
f 80/8/90 82/6/90 83/8/90
f 78/6/89 80/8/89 82/6/89
f 83/8/89 82/6/89 80/8/89
f 86/10/108 85/9/107 84/9/107
f 85/9/107 86/10/108 87/10/108
f 84/9/110 85/9/110 86/10/109
f 87/10/109 86/10/109 85/9/110
f 90/11/111 89/12/112 88/11/111
f 89/12/112 90/11/111 91/12/112
f 88/11/113 89/12/114 90/11/113
f 91/12/114 90/11/113 89/12/114
f 93/9/81 87/10/81 92/10/81
f 87/10/81 93/9/81 85/9/81
f 85/9/81 93/9/81 94/11/81
f 85/9/81 94/11/81 90/11/81
f 90/11/81 94/11/81 95/12/81
f 90/11/81 95/12/81 91/12/81
f 92/10/83 87/10/83 93/9/83
f 85/9/83 93/9/83 87/10/83
f 94/11/83 93/9/83 85/9/83
f 90/11/83 94/11/83 85/9/83
f 95/12/83 94/11/83 90/11/83
f 91/12/83 95/12/83 90/11/83
f 91/12/112 96/12/109 89/12/112
f 96/12/109 91/12/112 95/12/109
f 89/12/114 96/12/108 91/12/114
f 95/12/108 91/12/114 96/12/108
f 98/9/113 92/10/114 97/10/114
f 92/10/114 98/9/113 93/9/113
f 97/10/112 92/10/112 98/9/111
f 93/9/111 98/9/111 92/10/112
f 84/9/83 97/10/83 86/10/83
f 97/10/83 84/9/83 98/9/83
f 98/9/83 84/9/83 88/11/83
f 98/9/83 88/11/83 99/11/83
f 99/11/83 88/11/83 89/12/83
f 99/11/83 89/12/83 96/12/83
f 86/10/81 97/10/81 84/9/81
f 98/9/81 84/9/81 97/10/81
f 88/11/81 84/9/81 98/9/81
f 99/11/81 88/11/81 98/9/81
f 89/12/81 88/11/81 99/11/81
f 96/12/81 89/12/81 99/11/81
f 95/12/109 99/11/110 96/12/109
f 99/11/110 95/12/109 94/11/110
f 96/12/108 99/11/107 95/12/108
f 94/11/107 95/12/108 99/11/107
f 97/10/114 87/10/108 86/10/108
f 87/10/108 97/10/114 92/10/114
f 86/10/109 87/10/109 97/10/112
f 92/10/112 97/10/112 87/10/109
f 88/11/111 85/9/107 90/11/111
f 85/9/107 88/11/111 84/9/107
f 90/11/113 85/9/110 88/11/113
f 84/9/110 88/11/113 85/9/110
f 98/9/113 94/11/110 93/9/113
f 94/11/110 98/9/113 99/11/110
f 93/9/111 94/11/107 98/9/111
f 99/11/107 98/9/111 94/11/107
f 102/14/113 101/13/114 100/13/114
f 101/13/114 102/14/113 103/14/113
f 100/13/112 101/13/112 102/14/111
f 103/14/111 102/14/111 101/13/112
f 105/14/83 100/13/83 104/13/83
f 100/13/83 105/14/83 102/14/83
f 102/14/83 105/14/83 106/15/83
f 102/14/83 106/15/83 107/15/83
f 107/15/83 106/15/83 108/16/83
f 107/15/83 108/16/83 109/16/83
f 104/13/81 100/13/81 105/14/81
f 102/14/81 105/14/81 100/13/81
f 106/15/81 105/14/81 102/14/81
f 107/15/81 106/15/81 102/14/81
f 108/16/81 106/15/81 107/15/81
f 109/16/81 108/16/81 107/15/81
f 100/13/114 110/13/108 104/13/108
f 110/13/108 100/13/114 101/13/114
f 104/13/109 110/13/109 100/13/112
f 101/13/112 100/13/112 110/13/109
f 104/13/108 111/14/107 105/14/107
f 111/14/107 104/13/108 110/13/108
f 105/14/110 111/14/110 104/13/109
f 110/13/109 104/13/109 111/14/110
f 112/16/112 109/16/109 108/16/112
f 109/16/109 112/16/112 113/16/109
f 108/16/114 109/16/108 112/16/114
f 113/16/108 112/16/114 109/16/108
f 106/15/111 111/14/107 114/15/111
f 111/14/107 106/15/111 105/14/107
f 114/15/113 111/14/110 106/15/113
f 105/14/110 106/15/113 111/14/110
f 113/16/109 107/15/110 109/16/109
f 107/15/110 113/16/109 115/15/110
f 109/16/108 107/15/107 113/16/108
f 115/15/107 113/16/108 107/15/107
f 102/14/113 115/15/110 103/14/113
f 115/15/110 102/14/113 107/15/110
f 103/14/111 115/15/107 102/14/111
f 107/15/107 102/14/111 115/15/107
f 114/15/111 108/16/112 106/15/111
f 108/16/112 114/15/111 112/16/112
f 106/15/113 108/16/114 114/15/113
f 112/16/114 114/15/113 108/16/114
f 103/14/81 110/13/81 101/13/81
f 110/13/81 103/14/81 111/14/81
f 111/14/81 103/14/81 115/15/81
f 111/14/81 115/15/81 114/15/81
f 114/15/81 115/15/81 113/16/81
f 114/15/81 113/16/81 112/16/81
f 101/13/83 110/13/83 103/14/83
f 111/14/83 103/14/83 110/13/83
f 115/15/83 103/14/83 111/14/83
f 114/15/83 115/15/83 111/14/83
f 113/16/83 115/15/83 114/15/83
f 112/16/83 113/16/83 114/15/83
f 118/17/115 117/18/116 116/17/115
f 117/18/116 118/17/115 119/18/116
f 116/17/117 117/18/118 118/17/117
f 119/18/118 118/17/117 117/18/118
f 122/17/119 121/19/117 120/17/119
f 121/19/117 122/17/119 123/19/117
f 120/17/120 121/19/115 122/17/120
f 123/19/115 122/17/120 121/19/115
f 121/19/117 125/20/118 124/20/118
f 125/20/118 121/19/117 123/19/117
f 124/20/116 125/20/116 121/19/115
f 123/19/115 121/19/115 125/20/116
f 120/17/87 117/18/87 126/18/87
f 117/18/87 120/17/87 116/17/87
f 116/17/87 120/17/87 121/19/87
f 116/17/87 121/19/87 127/19/87
f 127/19/87 121/19/87 124/20/87
f 127/19/87 124/20/87 128/20/87
f 126/18/88 117/18/88 120/17/88
f 116/17/88 120/17/88 117/18/88
f 121/19/88 120/17/88 116/17/88
f 127/19/88 121/19/88 116/17/88
f 124/20/88 121/19/88 127/19/88
f 128/20/88 124/20/88 127/19/88
f 119/18/116 126/18/121 117/18/116
f 126/18/121 119/18/116 129/18/121
f 117/18/118 126/18/122 119/18/118
f 129/18/122 119/18/118 126/18/122
f 118/17/88 129/18/88 119/18/88
f 129/18/88 118/17/88 122/17/88
f 122/17/88 118/17/88 130/19/88
f 122/17/88 130/19/88 123/19/88
f 123/19/88 130/19/88 131/20/88
f 123/19/88 131/20/88 125/20/88
f 119/18/87 129/18/87 118/17/87
f 122/17/87 118/17/87 129/18/87
f 130/19/87 118/17/87 122/17/87
f 123/19/87 130/19/87 122/17/87
f 131/20/87 130/19/87 123/19/87
f 125/20/87 131/20/87 123/19/87
f 124/20/118 131/20/122 128/20/122
f 131/20/122 124/20/118 125/20/118
f 128/20/121 131/20/121 124/20/116
f 125/20/116 124/20/116 131/20/121
f 129/18/121 120/17/119 126/18/121
f 120/17/119 129/18/121 122/17/119
f 126/18/122 120/17/120 129/18/122
f 122/17/120 129/18/122 120/17/120
f 128/20/122 130/19/120 127/19/120
f 130/19/120 128/20/122 131/20/122
f 127/19/119 130/19/119 128/20/121
f 131/20/121 128/20/121 130/19/119
f 130/19/120 116/17/115 127/19/120
f 116/17/115 130/19/120 118/17/115
f 127/19/119 116/17/117 130/19/119
f 118/17/117 130/19/119 116/17/117
f 134/22/84 133/21/123 132/21/84
f 133/21/123 134/22/84 135/22/123
f 132/21/82 133/21/124 134/22/82
f 135/22/124 134/22/82 133/21/124
f 138/22/125 137/21/82 136/21/125
f 137/21/82 138/22/125 139/22/82
f 136/21/126 137/21/84 138/22/126
f 139/22/84 138/22/126 137/21/84
f 141/22/126 132/21/84 140/21/126
f 132/21/84 141/22/126 134/22/84
f 140/21/125 132/21/82 141/22/125
f 134/22/82 141/22/125 132/21/82
f 141/22/127 143/21/89 142/22/89
f 143/21/89 141/22/127 140/21/127
f 142/22/90 143/21/90 141/22/128
f 140/21/128 141/22/128 143/21/90
f 144/22/85 141/22/85 142/22/85
f 141/22/85 144/22/85 139/22/85
f 141/22/85 139/22/85 134/22/85
f 134/22/85 139/22/85 138/22/85
f 134/22/85 138/22/85 135/22/85
f 135/22/85 138/22/85 145/22/85
f 142/22/86 141/22/86 144/22/86
f 139/22/86 144/22/86 141/22/86
f 134/22/86 139/22/86 141/22/86
f 138/22/86 139/22/86 134/22/86
f 135/22/86 138/22/86 134/22/86
f 145/22/86 138/22/86 135/22/86
f 146/21/90 138/22/128 136/21/128
f 138/22/128 146/21/90 145/22/90
f 136/21/127 138/22/127 146/21/89
f 145/22/89 146/21/89 138/22/127
f 133/21/129 145/22/90 146/21/90
f 145/22/90 133/21/129 135/22/129
f 146/21/89 145/22/89 133/21/130
f 135/22/130 133/21/130 145/22/89
f 142/22/89 147/21/130 144/22/130
f 147/21/130 142/22/89 143/21/89
f 144/22/129 147/21/129 142/22/90
f 143/21/90 142/22/90 147/21/129
f 139/22/82 147/21/124 137/21/82
f 147/21/124 139/22/82 144/22/124
f 137/21/84 147/21/123 139/22/84
f 144/22/123 139/22/84 147/21/123
f 150/22/89 149/21/130 148/22/130
f 149/21/130 150/22/89 151/21/89
f 148/22/129 149/21/129 150/22/90
f 151/21/90 150/22/90 149/21/129
f 154/22/84 153/21/123 152/21/84
f 153/21/123 154/22/84 155/22/123
f 152/21/82 153/21/124 154/22/82
f 155/22/124 154/22/82 153/21/124
f 157/22/126 152/21/84 156/21/126
f 152/21/84 157/22/126 154/22/84
f 156/21/125 152/21/82 157/22/125
f 154/22/82 157/22/125 152/21/82
f 159/22/82 149/21/124 158/21/82
f 149/21/124 159/22/82 148/22/124
f 158/21/84 149/21/123 159/22/84
f 148/22/123 159/22/84 149/21/123
f 161/22/125 158/21/82 160/21/125
f 158/21/82 161/22/125 159/22/82
f 160/21/126 158/21/84 161/22/126
f 159/22/84 161/22/126 158/21/84
f 162/21/90 161/22/128 160/21/128
f 161/22/128 162/21/90 163/22/90
f 160/21/127 161/22/127 162/21/89
f 163/22/89 162/21/89 161/22/127
f 153/21/129 163/22/90 162/21/90
f 163/22/90 153/21/129 155/22/129
f 162/21/89 163/22/89 153/21/130
f 155/22/130 153/21/130 163/22/89
f 148/22/85 157/22/85 150/22/85
f 157/22/85 148/22/85 154/22/85
f 154/22/85 148/22/85 159/22/85
f 154/22/85 159/22/85 155/22/85
f 155/22/85 159/22/85 161/22/85
f 155/22/85 161/22/85 163/22/85
f 150/22/86 157/22/86 148/22/86
f 154/22/86 148/22/86 157/22/86
f 159/22/86 148/22/86 154/22/86
f 155/22/86 159/22/86 154/22/86
f 161/22/86 159/22/86 155/22/86
f 163/22/86 161/22/86 155/22/86
f 156/21/86 149/21/86 151/21/86
f 149/21/86 156/21/86 152/21/86
f 149/21/86 152/21/86 158/21/86
f 158/21/86 152/21/86 153/21/86
f 158/21/86 153/21/86 160/21/86
f 160/21/86 153/21/86 162/21/86
f 151/21/85 149/21/85 156/21/85
f 152/21/85 156/21/85 149/21/85
f 158/21/85 152/21/85 149/21/85
f 153/21/85 152/21/85 158/21/85
f 160/21/85 153/21/85 158/21/85
f 162/21/85 153/21/85 160/21/85
f 157/22/127 151/21/89 150/22/89
f 151/21/89 157/22/127 156/21/127
f 150/22/90 151/21/90 157/22/128
f 156/21/128 157/22/128 151/21/90
f 166/24/131 165/23/132 164/23/131
f 165/23/132 166/24/131 167/24/132
f 164/23/133 165/23/134 166/24/133
f 167/24/134 166/24/133 165/23/134
f 169/24/135 164/23/131 168/23/135
f 164/23/131 169/24/135 166/24/131
f 168/23/136 164/23/133 169/24/136
f 166/24/133 169/24/136 164/23/133
f 172/23/137 171/24/138 170/24/137
f 171/24/138 172/23/137 173/23/138
f 170/24/139 171/24/140 172/23/139
f 173/23/140 172/23/139 171/24/140
f 176/23/141 175/24/142 174/24/141
f 175/24/142 176/23/141 177/23/142
f 174/24/143 175/24/144 176/23/143
f 177/23/144 176/23/143 175/24/144
f 178/23/146 171/24/145 173/23/145
f 171/24/145 178/23/146 179/24/146
f 173/23/148 171/24/148 178/23/147
f 179/24/147 178/23/147 171/24/148
f 176/23/149 179/24/146 178/23/146
f 179/24/146 176/23/149 174/24/149
f 178/23/147 179/24/147 176/23/150
f 174/24/150 176/23/150 179/24/147
f 168/23/151 170/24/137 169/24/151
f 170/24/137 168/23/151 172/23/137
f 169/24/152 170/24/139 168/23/152
f 172/23/139 168/23/152 170/24/139
f 177/23/142 167/24/153 175/24/142
f 167/24/153 177/23/142 165/23/153
f 175/24/144 167/24/154 177/23/144
f 165/23/154 177/23/144 167/24/154

